<mxfile host="65bd71144e">
    <diagram id="oSwbk1vJdZgLvCOZNpLk" name="Page-1">
        <mxGraphModel dx="550" dy="313" grid="1" gridSize="10" guides="1" tooltips="1" connect="1" arrows="1" fold="1" page="1" pageScale="1" pageWidth="827" pageHeight="1169" math="0" shadow="0">
            <root>
                <mxCell id="0"/>
                <mxCell id="1" parent="0"/>
                <mxCell id="xU_yM6ITwMhbhYH98wbw-1" value="" style="verticalLabelPosition=bottom;html=1;verticalAlign=top;align=center;strokeColor=none;fillColor=#000000;shape=mxgraph.azure.script_file;pointerEvents=1;aspect=fixed;" parent="1" vertex="1">
                    <mxGeometry x="260" y="310" width="66.5" height="70" as="geometry"/>
                </mxCell>
                <mxCell id="xU_yM6ITwMhbhYH98wbw-2" value="" style="verticalLabelPosition=bottom;html=1;verticalAlign=top;align=center;strokeColor=none;fillColor=#000000;shape=mxgraph.azure.script_file;pointerEvents=1;aspect=fixed;" parent="1" vertex="1">
                    <mxGeometry x="400" y="310" width="66.5" height="70" as="geometry"/>
                </mxCell>
                <mxCell id="xU_yM6ITwMhbhYH98wbw-3" value="" style="verticalLabelPosition=bottom;html=1;verticalAlign=top;align=center;strokeColor=none;fillColor=#000000;shape=mxgraph.azure.script_file;pointerEvents=1;aspect=fixed;" parent="1" vertex="1">
                    <mxGeometry x="553.25" y="310" width="66.5" height="70" as="geometry"/>
                </mxCell>
                <mxCell id="xU_yM6ITwMhbhYH98wbw-4" value="&lt;font style=&quot;font-size: 16px&quot; color=&quot;#000000&quot;&gt;&lt;b&gt;file_v1&lt;/b&gt;&lt;/font&gt;" style="text;html=1;strokeColor=none;fillColor=none;align=center;verticalAlign=middle;whiteSpace=wrap;rounded=0;" parent="1" vertex="1">
                    <mxGeometry x="273.25" y="390" width="40" height="20" as="geometry"/>
                </mxCell>
                <mxCell id="xU_yM6ITwMhbhYH98wbw-5" value="&lt;font style=&quot;font-size: 16px&quot; color=&quot;#000000&quot;&gt;&lt;b&gt;file_v2&lt;/b&gt;&lt;/font&gt;" style="text;html=1;strokeColor=none;fillColor=none;align=center;verticalAlign=middle;whiteSpace=wrap;rounded=0;" parent="1" vertex="1">
                    <mxGeometry x="414" y="390" width="40" height="20" as="geometry"/>
                </mxCell>
                <mxCell id="xU_yM6ITwMhbhYH98wbw-6" value="&lt;font style=&quot;font-size: 16px&quot; color=&quot;#000000&quot;&gt;&lt;b&gt;file_v3&lt;/b&gt;&lt;/font&gt;" style="text;html=1;strokeColor=none;fillColor=none;align=center;verticalAlign=middle;whiteSpace=wrap;rounded=0;" parent="1" vertex="1">
                    <mxGeometry x="566.5" y="390" width="40" height="20" as="geometry"/>
                </mxCell>
                <mxCell id="xU_yM6ITwMhbhYH98wbw-7" value="&lt;font style=&quot;font-size: 16px&quot; color=&quot;#000000&quot;&gt;&lt;b&gt;Start&lt;/b&gt;&lt;/font&gt;" style="ellipse;whiteSpace=wrap;html=1;aspect=fixed;fillColor=none;strokeWidth=4;strokeColor=#000000;" parent="1" vertex="1">
                    <mxGeometry x="140" y="310" width="70" height="70" as="geometry"/>
                </mxCell>
                <mxCell id="xU_yM6ITwMhbhYH98wbw-8" value="" style="endArrow=classic;html=1;exitX=1;exitY=0.5;exitDx=0;exitDy=0;strokeWidth=2;strokeColor=#000000;endFill=1;" parent="1" source="xU_yM6ITwMhbhYH98wbw-7" edge="1">
                    <mxGeometry width="50" height="50" relative="1" as="geometry">
                        <mxPoint x="390" y="420" as="sourcePoint"/>
                        <mxPoint x="260" y="345" as="targetPoint"/>
                    </mxGeometry>
                </mxCell>
                <mxCell id="xU_yM6ITwMhbhYH98wbw-9" value="" style="endArrow=classic;html=1;strokeWidth=2;exitX=1;exitY=0.5;exitDx=0;exitDy=0;exitPerimeter=0;entryX=0;entryY=0.5;entryDx=0;entryDy=0;entryPerimeter=0;strokeColor=#000000;endFill=1;" parent="1" source="xU_yM6ITwMhbhYH98wbw-1" target="xU_yM6ITwMhbhYH98wbw-2" edge="1">
                    <mxGeometry width="50" height="50" relative="1" as="geometry">
                        <mxPoint x="390" y="420" as="sourcePoint"/>
                        <mxPoint x="440" y="370" as="targetPoint"/>
                    </mxGeometry>
                </mxCell>
                <mxCell id="xU_yM6ITwMhbhYH98wbw-10" value="" style="endArrow=none;html=1;strokeWidth=2;exitX=0;exitY=0.5;exitDx=0;exitDy=0;exitPerimeter=0;entryX=1;entryY=0.5;entryDx=0;entryDy=0;entryPerimeter=0;strokeColor=#000000;startArrow=classic;startFill=1;" parent="1" source="xU_yM6ITwMhbhYH98wbw-3" target="xU_yM6ITwMhbhYH98wbw-2" edge="1">
                    <mxGeometry width="50" height="50" relative="1" as="geometry">
                        <mxPoint x="390" y="420" as="sourcePoint"/>
                        <mxPoint x="440" y="370" as="targetPoint"/>
                    </mxGeometry>
                </mxCell>
                <mxCell id="xU_yM6ITwMhbhYH98wbw-14" value="" style="verticalLabelPosition=bottom;html=1;verticalAlign=top;align=center;strokeColor=none;fillColor=#000000;shape=mxgraph.azure.script_file;pointerEvents=1;aspect=fixed;" parent="1" vertex="1">
                    <mxGeometry x="260" y="460" width="66.5" height="70" as="geometry"/>
                </mxCell>
                <mxCell id="xU_yM6ITwMhbhYH98wbw-15" value="&lt;font style=&quot;font-size: 16px&quot; color=&quot;#000000&quot;&gt;&lt;b&gt;file_v1.1&lt;/b&gt;&lt;/font&gt;" style="text;html=1;strokeColor=none;fillColor=none;align=center;verticalAlign=middle;whiteSpace=wrap;rounded=0;" parent="1" vertex="1">
                    <mxGeometry x="273.25" y="540" width="40" height="20" as="geometry"/>
                </mxCell>
                <mxCell id="xU_yM6ITwMhbhYH98wbw-16" value="" style="endArrow=classic;html=1;exitX=0.5;exitY=1;exitDx=0;exitDy=0;entryX=0.5;entryY=0;entryDx=0;entryDy=0;entryPerimeter=0;strokeWidth=2;strokeColor=#000000;" parent="1" source="xU_yM6ITwMhbhYH98wbw-4" target="xU_yM6ITwMhbhYH98wbw-14" edge="1">
                    <mxGeometry width="50" height="50" relative="1" as="geometry">
                        <mxPoint x="350" y="460" as="sourcePoint"/>
                        <mxPoint x="400" y="410" as="targetPoint"/>
                    </mxGeometry>
                </mxCell>
                <mxCell id="xU_yM6ITwMhbhYH98wbw-17" value="" style="verticalLabelPosition=bottom;html=1;verticalAlign=top;align=center;strokeColor=none;fillColor=#000000;shape=mxgraph.azure.script_file;pointerEvents=1;aspect=fixed;" parent="1" vertex="1">
                    <mxGeometry x="400" y="460" width="66.5" height="70" as="geometry"/>
                </mxCell>
                <mxCell id="xU_yM6ITwMhbhYH98wbw-18" value="&lt;font style=&quot;font-size: 16px&quot; color=&quot;#000000&quot;&gt;&lt;b&gt;file_v2_v1.1&lt;/b&gt;&lt;/font&gt;" style="text;html=1;strokeColor=none;fillColor=none;align=center;verticalAlign=middle;whiteSpace=wrap;rounded=0;" parent="1" vertex="1">
                    <mxGeometry x="413.25" y="540" width="40" height="20" as="geometry"/>
                </mxCell>
                <mxCell id="xU_yM6ITwMhbhYH98wbw-20" value="" style="endArrow=classic;html=1;exitX=1;exitY=0.5;exitDx=0;exitDy=0;exitPerimeter=0;strokeWidth=2;strokeColor=#000000;entryX=0;entryY=0.5;entryDx=0;entryDy=0;entryPerimeter=0;" parent="1" source="xU_yM6ITwMhbhYH98wbw-14" target="xU_yM6ITwMhbhYH98wbw-17" edge="1">
                    <mxGeometry width="50" height="50" relative="1" as="geometry">
                        <mxPoint x="400" y="530" as="sourcePoint"/>
                        <mxPoint x="380" y="495" as="targetPoint"/>
                    </mxGeometry>
                </mxCell>
                <mxCell id="xU_yM6ITwMhbhYH98wbw-21" value="" style="verticalLabelPosition=bottom;html=1;verticalAlign=top;align=center;strokeColor=none;fillColor=#000000;shape=mxgraph.azure.script_file;pointerEvents=1;aspect=fixed;" parent="1" vertex="1">
                    <mxGeometry x="400" y="620" width="66.5" height="70" as="geometry"/>
                </mxCell>
                <mxCell id="xU_yM6ITwMhbhYH98wbw-22" value="&lt;font style=&quot;font-size: 16px&quot; color=&quot;#000000&quot;&gt;&lt;b&gt;file_v2.1_v1.1&lt;/b&gt;&lt;/font&gt;" style="text;html=1;strokeColor=none;fillColor=none;align=center;verticalAlign=middle;whiteSpace=wrap;rounded=0;" parent="1" vertex="1">
                    <mxGeometry x="413.25" y="700" width="40" height="20" as="geometry"/>
                </mxCell>
                <mxCell id="xU_yM6ITwMhbhYH98wbw-23" value="" style="endArrow=classic;html=1;entryX=0.5;entryY=0;entryDx=0;entryDy=0;entryPerimeter=0;exitX=0.5;exitY=1;exitDx=0;exitDy=0;strokeWidth=2;strokeColor=#000000;" parent="1" source="xU_yM6ITwMhbhYH98wbw-18" target="xU_yM6ITwMhbhYH98wbw-21" edge="1">
                    <mxGeometry width="50" height="50" relative="1" as="geometry">
                        <mxPoint x="410" y="560" as="sourcePoint"/>
                        <mxPoint x="450" y="530" as="targetPoint"/>
                    </mxGeometry>
                </mxCell>
                <mxCell id="xU_yM6ITwMhbhYH98wbw-24" value="" style="verticalLabelPosition=bottom;html=1;verticalAlign=top;align=center;strokeColor=none;fillColor=#000000;shape=mxgraph.azure.script_file;pointerEvents=1;aspect=fixed;" parent="1" vertex="1">
                    <mxGeometry x="553.25" y="460" width="66.5" height="70" as="geometry"/>
                </mxCell>
                <mxCell id="xU_yM6ITwMhbhYH98wbw-25" value="&lt;font style=&quot;font-size: 16px&quot; color=&quot;#000000&quot;&gt;&lt;b&gt;file_v3_v2.1_v1.1&lt;/b&gt;&lt;/font&gt;" style="text;html=1;strokeColor=none;fillColor=none;align=center;verticalAlign=middle;whiteSpace=wrap;rounded=0;" parent="1" vertex="1">
                    <mxGeometry x="566.5" y="540" width="40" height="20" as="geometry"/>
                </mxCell>
                <mxCell id="xU_yM6ITwMhbhYH98wbw-26" value="" style="endArrow=classic;html=1;exitX=1;exitY=0.5;exitDx=0;exitDy=0;exitPerimeter=0;entryX=0;entryY=0.5;entryDx=0;entryDy=0;entryPerimeter=0;edgeStyle=orthogonalEdgeStyle;strokeColor=#000000;strokeWidth=2;" parent="1" source="xU_yM6ITwMhbhYH98wbw-21" target="xU_yM6ITwMhbhYH98wbw-24" edge="1">
                    <mxGeometry width="50" height="50" relative="1" as="geometry">
                        <mxPoint x="430" y="560" as="sourcePoint"/>
                        <mxPoint x="480" y="510" as="targetPoint"/>
                    </mxGeometry>
                </mxCell>
                <mxCell id="xU_yM6ITwMhbhYH98wbw-29" value="" style="ellipse;whiteSpace=wrap;html=1;aspect=fixed;fillColor=none;strokeWidth=4;strokeColor=#000000;" parent="1" vertex="1">
                    <mxGeometry x="710" y="400" width="70" height="70" as="geometry"/>
                </mxCell>
                <mxCell id="xU_yM6ITwMhbhYH98wbw-30" value="" style="endArrow=classic;html=1;strokeColor=#000000;strokeWidth=2;entryX=0.5;entryY=0;entryDx=0;entryDy=0;exitX=1;exitY=0.5;exitDx=0;exitDy=0;exitPerimeter=0;edgeStyle=orthogonalEdgeStyle;" parent="1" source="xU_yM6ITwMhbhYH98wbw-3" target="xU_yM6ITwMhbhYH98wbw-29" edge="1">
                    <mxGeometry width="50" height="50" relative="1" as="geometry">
                        <mxPoint x="480" y="440" as="sourcePoint"/>
                        <mxPoint x="530" y="390" as="targetPoint"/>
                    </mxGeometry>
                </mxCell>
                <mxCell id="xU_yM6ITwMhbhYH98wbw-31" value="" style="endArrow=classic;html=1;strokeColor=#000000;strokeWidth=2;exitX=1;exitY=0.5;exitDx=0;exitDy=0;exitPerimeter=0;entryX=0;entryY=0.5;entryDx=0;entryDy=0;edgeStyle=orthogonalEdgeStyle;" parent="1" source="xU_yM6ITwMhbhYH98wbw-24" target="xU_yM6ITwMhbhYH98wbw-29" edge="1">
                    <mxGeometry width="50" height="50" relative="1" as="geometry">
                        <mxPoint x="480" y="440" as="sourcePoint"/>
                        <mxPoint x="530" y="390" as="targetPoint"/>
                    </mxGeometry>
                </mxCell>
                <mxCell id="xU_yM6ITwMhbhYH98wbw-32" value="" style="endArrow=classic;html=1;strokeColor=#000000;strokeWidth=2;exitX=0.5;exitY=1;exitDx=0;exitDy=0;entryX=0.5;entryY=0;entryDx=0;entryDy=0;entryPerimeter=0;" parent="1" source="xU_yM6ITwMhbhYH98wbw-5" target="xU_yM6ITwMhbhYH98wbw-17" edge="1">
                    <mxGeometry width="50" height="50" relative="1" as="geometry">
                        <mxPoint x="450" y="460" as="sourcePoint"/>
                        <mxPoint x="500" y="410" as="targetPoint"/>
                    </mxGeometry>
                </mxCell>
                <mxCell id="xU_yM6ITwMhbhYH98wbw-33" value="" style="endArrow=classic;html=1;strokeColor=#000000;strokeWidth=2;exitX=0.5;exitY=1;exitDx=0;exitDy=0;entryX=0.5;entryY=0;entryDx=0;entryDy=0;entryPerimeter=0;" parent="1" source="xU_yM6ITwMhbhYH98wbw-6" target="xU_yM6ITwMhbhYH98wbw-24" edge="1">
                    <mxGeometry width="50" height="50" relative="1" as="geometry">
                        <mxPoint x="450" y="460" as="sourcePoint"/>
                        <mxPoint x="500" y="410" as="targetPoint"/>
                    </mxGeometry>
                </mxCell>
                <mxCell id="2" value="" style="shape=image;verticalLabelPosition=bottom;labelBackgroundColor=#ffffff;verticalAlign=top;aspect=fixed;imageAspect=0;image=data:image/png,iVBORw0KGgoAAAANSUhEUgAACWEAAAnvCAMAAAA7tzFvAAAABGdBTUEAALGPC/xhBQAAAAFzUkdCAK7OHOkAAAAzUExURQAAAAAAAAAAAAAAAAAAAAAAAAAAAAAAAAAAAAAAAAAAAAAAAAAAAAAAAAAAAAAAAAAAAKMFRskAAAAQdFJOUwBfzy9/v58/D+/fH2+vj09Z5C2AAAAgAElEQVR42uyd2XbdOA5FrXmW7v9/bdtJqpM4Hq4kAATBvZ96VVcltkSBh8AB+PICAAA+GIdhqNq23bs3pscnvP2f2+u/dgzDyEMDAAAA+EhVvYqq7QtB9Q1dt7cVUgsAAADgVVetbd91Dznq7lVo8WQBAACgPIbhLV81P9SotxaZBQAAAEWwDFW7d/XDiHo/qBoCAABAVJoftcD5kYBXlcXzBwAAgEi8uay2y951MbZ14V0AAABA5ozD0bai9vXbzHvDewEAAIAcGdIVA58SWdQLAQAAIDNhVT/8M5HJAgAAANeMbxMX8hBWlAsBAADAN81Pj9X8yJcZ4zsAAAB4YPk5IrR+BKGrGJQFAAAACXVV76spUMyS1TPzHQAAANBV8tXClmohAAAAqPLDXxWoDvhstZA3DwAAANIMQ1Wgrvq7WkhvIQAAAIjpqrz7AWV7C7G9AwAAALpK/uZCxr0DAADACRp0FePeAQAAQIRo86tMqKkWAgAAwAf8SlhNqKWr1UJ6CwEAAOAPYbUXMMDKprcQSxYAAEDRLMOBsMKSBQAAACIMw9pueNdVBzhoiKxfs/L/X8R9/Z9tOzBXHgAAILWyejNZIX+yKxc2x6si/vwv2lZyZgAAAPY0w4qySiKytupmhml51VZ1qpwZAAAAfMQ4VG1PY2DiEQ77xVRWU+2n3l1NGyMAAIAuy1vSillWbuja4dSkrGHtr6QcZzQWAAAA0qqwXFa/Dk+8wKPdbrQgzAPfAAAAgCBvBUGklX+ZtbXH8MkL/NLN/jQ7Y+UBAAAkaI62x8WeWdWw29tXqfWD9m0Cg6A2nrG8AwAA3IK0FXwEbiwAAIDr2oqBofBZpZAvBAAAAG0F0vR8KAAAAE/y7OxJACQWAADAM4mrdcfLDkgsAAAAqcTVcGs8EhTLyscDAADwobg6Wi68gcswexQAAABxBdJMjB4FAABAXAFWLAAAAA3God0QV0CdEAAAQIpm7TG0gywd3xUAABTMcjCKAVTghkIAACiTkVkMgBMLAAAAcQU5tRPynQEAAOIKgDIhAAAA4gq8w2B3AAAIz9ugK8QVmNLy3QEAQHBxxaArsGfj4wMAAMQVgDBMxAIAAMQVAAoLAAAAcQX4sAAAABBXgMICAABAXAHcg7ufAQAgb8YBcQX+4MsEAICcxRVDRMElDGsAAIA8GdYecQVuOfhEAQAgN5pqr9nCwTMznykAAOTEm6Od7RvcU/GtAgBALmC6glyo+VwBACAHmqqnLgj50PDNAgCAc0bqgpAbTBsFAADfqSv6BSFDmNQAAACkrgCkTVgj3y8AALhMXVWkrgCBBQAAIAdX4AACCwAAQJDlYJAoILAAAADkoDAIIej5lgEAwI26WjcKgxCBiVHuAADgg4GOQQhDt/BFAwAA6gpANIG18k0DAADqCkDWgYXFHQAAUFcAsvqKAiEAAKCuAETrgzv6CgAA0tGsG5sxhGOjgRAAAJKxVD0TGSBe9mqrsF8BAEAixmNnmiiEo97Whq8bAAAS0awYryAU3d621YC4AgCAhMkrrsKBgMx9hbUdAABIXgHI1whbslgAAGAOzisoIJXVkskCAAA7RtoGoRhPFpMaAADASF4x8wrKSmQxrgEAAJRZsF5BeUxoLAAAUM1eIa8AjQUAACAqrygOQskaayUIAACAOAPWdijejzUQCAAAQJKlZTADwOOxUSoEAAAxDqqDAJQKAQBAknElfQXwm440FgAA3GbZcV8B/J3GOggMAABwT1/1bKcA/9CTxgIAgOuMO1spwEfU3AgNAABXWakPAnxWKeSuQgAAuERTs4sCfM5OkAAAgPNUJLAAvoTRWAAAcF5gsX8CfGfGWogUAACAwAKQNmPhdwcAgDMslAgB8LsDAIAsQ8vWCfAUSCwAAHiKseIOQoDn4ZpCAAD4Hq54BjhJT9wAAICv01ctVzwDILEAAECSgSsIAZBYAAAgStWxTwIgsQAAQBDKgwBILAAAkGWhPAiAxAIAAFEGyoMASCwAAJBkrCgPAiCxAABAkqXlchwAJBYAAEjCdAYAJBYAAMjCdAYAJBYAAIjCdAYADVqCCwBAwTSUB6F0NqUzRkV8AQAoFcqDULy8qsZW689GYgEAFAnlQSidqV1evwS97wCJBQBQHpQHoXTmdfzxLSj+FQORBgCgLKqa/RVKz1+Nv74Gzb+kIdgAAJTDsjNcFEpnH///QdRILAAAuM+Bux2Kp/tT+OwPJBYAANxMX+FuB5jWv78K1b+sHok7AADh01cbmytAt7z7MHokFgAAkL4CuMX677fxQGIBAMA1mC0K8Mb8kS9q1/07OwIQAEBMGpoHAX6wfZhPGpU/EG6BBgAIyLgy+wrgswrhT44HEgsAAM6AuR3gP6bPR6z3SCwAAHgaqoMAv6m/GE01zkgsAAB4imWldxDgN92XLX2N9l/PLdAAABHAfAVwLolUIbEAAOAbeVVhvgL4m/Xb76ZHYgEAAPIKQFrddEgsAABAXgE8zXQ89fnUSCwAAEBeATwrsJrnPqFmQmIBAMDfLCvyCuCWwEJiAQDAu32hpXMQ4LbA0p/tzlwsAIB8OHbmXgF8St2c+ZwqfYk1ErQAANxDbRDgG4F1UtBU7n4iAACwZSR5BSAvZ1pXZUsAALBlaDs2TwCNfFGv/2PhdwcA8EizblzoDKBWkDOQWJixAAD85a5QVwC6jicDiTVTKQQA8MJy7FQGAfQFlonEerTENACA5IxDu+FqBzASWDYSq1sIbQAAiCuAggSWjcSaVgIcAEASbbXumK4AUggsG4lFGgsAwFhaHW2PtgJIKLBeXnaTnxM3FgDAdZq1bdt1GL4VVkPV7h1udoDbzALTECqbn3QgRAIAXAvTf1zKPHVdt7c/qV711E9eVVXHzc0Agg4nkVkINhKL2VgAAJdiNC51gDwFlpnEwvEOAHCWhtQUQLYC6+XlMLJDUioEADhFy14HkLHAej0kWXWcbHQVAgCQwAIoRGAZSqxHix0LAOApKsYtAOQusF5eFrOT0lQRNgEAvmXs2eoA8hdYr9+yXTK6xo4FAODm3AsAmgLL9riEHQsA4EsaKoQAQQTWi9ENOr/YsWMBAHxKxU4HEEdgvbyslr8E07EAAD6BIQ0AoQSWceMK07EAAD4EjztAMIFlXfnvsGMBALxn3NjpAKIJrNcv2/ZOduxYAADvwjBNhAABBdYrq2kaCzsWAAACCyA5tUFdzThBzXQsAID/w0U5AGkElk1RbZhNf6ueUiEAwE+BxRgsgMAC6+VltO0UplQIAIDAAkjGZpjrWWwd711DZAUABBYCCyAFve2XblwqbImtAIDAAgB77CWIbVdhTRoLABBYAGBNleBzH3fSWAAACCyAuEyJEjyL6d0NpLEAAIEFAJbSI931MoOp5Z2mQgBAYBVM95v2X6rhFtWff9Z/fw3PvHDSDowaLOffbczGAgAEVvSswZu02X8InZ/aJ3kBo/m/Attef7QZ3YEFy4rKcLXNVAoBAIEVTlFtv1JQ2YT4N831U3Cht+LiQnJYaqyKYAsACKzc3cM/RNWakaT6imUY1rfCImIrFruTspmhxuoJtwBQEssUSFf9SFUF9nu8FRN37FshVuvhZ1nZaawaMxYAlMOY/2XPb8LqGJaiXlszrO3W0aBAAiszjcXYBgBAYGVhsHrzqpf9/t6UVlcjWHJbuv6WrZXGmpBYAIDAcrw/bW01UG74g+VNaOHTysXh7tPxbaSxkFgAgMBy6bTa28LKgecyWke7YdJCX/nWWJ4caAAAWvQ5aauVtNWTCa1XnUXh0Ktp0PfEAps570gsAEBgeakJkre6kM+qWpzw3tJXu/+FbKGxKBQCAAIrubjq14H3dCedNbQb9iwf6mpbM9EVw4bEAgC4RYu4KoPxVWaRzUoprrp+zUpSLD0SCwDgOpVfz9XWIq7EN81jxwOf2Eq4tWsutwyoayxGjwIAAss6dbVXeK7UaFZqhg6UVt8e/o8QS6ub9+z4HAEg6l7rsc2qpVvQYOesekqGLkqHbeVbZ426GmvnWwSAmAJr8qeueCt2r7+lYujF/94efpO2Y6uZ8qz4EAEgYh7DlcCqUVcJNs+jp2DoR2a5/QIUh5DidgeAiLurn3mU835QGUyXymIwKVncdBoLtzsAILDUegZxtSdfC7iyPKms1eUHoaaxsGIBQDQ2D5tJvVMa9JLKWnFlOUrqeqydVUqHMmIAAMTCwSj3bSV55SuVhSvLk8hy+HXoXKYzUycEgEikHuU+9TivSGXB1+VCh312KhqLOiEABKJKfDw/eAWOOXZSWU5Miq2/c4iGH4s6IQDE2UKxmMCXLBWXGKKxzDTWzBcHAEFIN2kUeZXTMmEiqQuNtfpbGuIaq+VzA4AY+YkJeQVPMVIw9NBx6/C7WYWDCE0vABBi10wyCGvq8V5lKsgZlpUch2ks4fsKNz40AAhACoG1Ia+yplmxZSWld9h5u4hOfMHsDgD5Yz8Iq64YzBCAAVtWykqhx29oEVwRNV8YAOTObl0d3HFYoLIgqAIZ5Gx6FZ8XAOSN8SAsqoPhGI+dm6KTFAp9rgcxyzsTGwAg8xyEae9gS/oqqsoil2WP09PKKOU7IIkFADljOQiL9FV0tY7KssVtkmeQSWpO2DUBIOPUg5nAIn1ViMqix9AQv0kemVIhY0cBIF+BZeWf6UhfFURT9RizbNLCfhfBspHEAoCS2Uy2gaknfVWeeB/ajmSWOp6XwCHw/le+JADIE5NBWPPKObTcZBZdhrq4nso53j/B0U4IAHmyUh4EfYaVmmGZCksijUU7IQDkiMEgrJ6LneGXzNqf7jOkuBhGYd1PY5HEAoAMUZ/TMNE9CH+xHO32fTprahBOYRTW60FuIokFAKXtdsoCC/sVfCLth3bv5i/aIhaE09NkcIhZ7tWIO74YAMgM5TkNMydP+E5oVa9Kq/tzHdZd+2bbGxBOT+eJs3jVe/A0HQDAX6gO3+7QV3CdCuX0tNExjzd6y/C+8UUAQFZozmnoOHTCHVqUU7T8zq1KIXZOAMiJFX0FbtlRTvE8Sn34RB0AwBsV+gr8wvXRES1K14MOV+cAQD6ozWlAX4EAzCd9krzuRR6mMn5PAEBgoa/AKUinmBbwZmbqKADERmlOA/oKhBYo2um5L24sJvTQmwwABQusmesHQQjGYYX1f18NPkwdBYAs0JjTwHxRkINxWM+wFhV+uN8UAMoUWBNGVBCEcVjfUzdlBSAGNgCAfxQGYbX0UoMkGwLquzNNzjnjaxKLqaMA4B35AkxP6ANZchmHNXd7ewzD7wNGMwxH2/bdrKyvMj/TXJJY5MkBoDSBRQMhiJNDEmlrv1z5y7C2nU7P7rxmnzO+IrEmvgsAKEpgYXAHeRb3Hqj9WRNUc7TCCa0+xJHmisQi1gCAZxqKFeAf38Mapv2sx3wc1l4mnbVVUb64CxKr5ssAAMcCS3aU+4YBCzTw3ErYXc6kNNV+y18275Emzl2Zi4UhAQAKEVgz8Q7c5Des9NXdRd9UbXfhM6z3Ktpx5oLE2vg0AKAEgcUELFDDayuh1KFiGdrtaX3R9WvMs8x4Ph6RNAeAAgQWBULQw6nAEj5UNEfbf5HPmrqtXYeFiMTUUQBwf2IU7GjiCkLQ3Hl99g8qiZ1hWNu27X6xv/7vdvhzxFZgjtOZczprAMCjwBIczbMT50CRqoAEFryx8hYAAIEV4j40yIPd4YQGsrYq9CSxAACBhcMdrKj9VQg5VTgJTEwdBQBviDVndTjcQRt/AovMiRbLSbf7zCMDAF9IzReaVp4laDMgsAriIIkFAAgsElhggreJ7jXLXpOdJBYAFC+wSGCBCR0ZrKKoSWIBQK6snOQhJ5zNcUdgKXPSikUSCwDcIDRciBZCsOHwpbDoIvQWokhiAUAogTWzz4ARvqZhURo3YCOJBQDFCiyGuIMZsyeB1fE+DDh5BzRJLADwgMhtz8yzBsMl6yqFhfnQhHOVYQa7A0AUgcWMBjBk9SSwcB8asfFaAKBAgUU0A0s8XZlDssSKc3XCiUMfAGQVtT6JZQPPESxPBdjci+RcnbDngQFAWoElkA3oOMSDKZ46CWlaM+RcnZCDHwDkLrB2HiPYMuHCKpNzc0drHhgAJOS+wKKHEKypcGGVykoBFwAy4f5lhDVTRsEaT3cSYvZxfCbE7A4AGQusjRM8PMsyDIOEIHflc2cPt2VgFiwA5MCOBwWMxNW6/TeFfer2m4Xl3pHAYgv3fSxksjsAJKHCggU2K+2fst52Y+ksnlJY7ODWMBQLAAoQWFz0DM9wfHiH4LxeLTB7SmHhc7enJckIAN73vdsedzYXeCLl8OkIo+lajXnwlMLC556AGScDALjm9l057C3wjB76ap3NV2qFni7MeVAn9384JNUOAJkJLE6G8ATflaLPXxju6s7niTecgnPTOmaS7QBgyXJXYGHwBQGB9apRVuOVKwrXGSThZKEYKxYAGHL3rhxuegYZgXU6jeWqRkgBKhE9QhgAogosNhaQElivy+lEQnR3JbC49DkRCyl3AHDKzUtHuCgHnuH50etP3wxQuRJY5EaS0XMmBIAI0YkpDXCFM5Mh5+fKzs4EFkXCLBYXbncAQGBBKDrxdJA3gUWRMB3tyXeF2x0ADLjZ7d4hsEBjnX1fe/YmsCgSJuRsEov5fQCgz81tijgFT3FhqsLXI9bG3pvAenDlXULOJrFwuwMAAgtCsF0pQH/hxhpmdwKr5i0n5HQSi/n7AKDLzVHuCCx4jouXB/afpIUcJrAej5XXnJLTSSwaCgEAgQX5c3kgSPuBxhrbyaHAeuBITMr5JNbEGwMANRYEFphwpxjdv6sVNr1LfcXnkJr2fF0XiQUAWoe+mh0FTLhnmpr349dWOB77/HAKN0eljmfnlTczGwAAgQVZIzFXoXvl4Rh87slpiWIA4IQNgQU2uJZGQtD8n/7MeKF8zAwzAFDgXjcWDgZ4mqEAgcU8dwe0KGMA8MCOwIIsxDwpLHiSK0ks3hwASHPPGcO9qfA8CykscKzlaVEAAEcCi1F9cIK2AIXFLp2vmCecAYAkzb3thOsm4ARzfIG18ZZ90COxACCxwLo3spH2GzhBAT53hoN74VpFeuLObgCQikL3BBaDf0A9rUCNEC5xbQYNnTsAIMPNSaOc9+AUU3iBRTeaHy5mTJFYAOBAYGHCglMc4QVWy0t2RIfEAoBk3Cza4OkFy/VGBgtOcdX2h8QCgNQbHp5eOEfwIuGEwHLGjMQCgDTcnU208gjhDE1sgdXhSvTG5Vl/XLUKAGmiz38bCo8QTrFH1lczCSyHzEgsAEjAbdcxo/ngHHVcfbXR9OGS63l6JBYAXKa564khAsE5xqDJq65FXrldcxMBDgCyE1jY3OEkVThxtQ4Dn4FvWs6QAGB9tLt9PxyDf+Ak8WY1ML/dPQtpegAwFli3HTGksOAs8W595p3G1vVILAA4T/cghQUZZRNQWJBi2SGxAMDyWEcKC65RobAgt+MkEgsAziEwlogUFtjrehQWnGd4ILEAIKNcAiksOE2NwoL8Fh4SCwBMBRYpLDhNxGlYvNUCIh4SCwCeReRuOFJYcJYBhQVpmJFYAGAisCaBjYWQA6dpUViQhpV4BwAGjBIC67HwIOEsGwoLMo16SCwAeCLUiLiNOx4knGZGYUEiWrL2AKCOTDsX99zCeXH/QGFBrkksJBYAfIfMRKKZBwmnGVBYkG8SC4kFABYC67HyJCHBHofCgnRJLCQWAHyF1K0ljGqAZPIehQWJBD4SCwDUBRaBBi5Qo7Ag6yTWY+NsCQAf00jtKgPPEs7zQGFB5gfMGokFAB8KrEloU8HnDikFPgoLLjEjsQBAh1FKYOFzhyscKCzIfwUisQDgX4El54IhxMAFWhQWpKVDYgGABnICa+NhwgV6FBakRWYiGxILANS2N+a5Q7IEAgoLkodBJBYAKAksfO5wiQcKCxIjZEZFYgHAbyrBLWXnccKVzQ2FBclZH0gsAHArsB4LzxMuMKCwID01EgsAJBEbhPUjtPA8IbnMR2FBWqGPxAIAcYH1qHigcIUWhQUO6JFYACDGKHod3ERcgaQ7GwoLbsXDCYkFAC4FFpc+w0U6FBZ4QKxcjcQCIHUgu6Fw6TNcY46psNhly9X6SCyAwtll9xOGYcFFYgosjhz5sUxILAAQQLqBi0uf4eK2hsICJ6xibx/TBEDBiM8gYhgWOFmKKCy4SofEAoC7yM5peHDpM1zmQGGBF+TqhEgsgFIZxc3FXPoMF2lRWOAGuTohEgugUGrp3QSfO6CwUFgB6JBYAHAH+RGPLQ8V0m9pKCy4i2CdEIkFQNKA2T+AwkJhwU8ku6y5SQyACMJZDdIxobDAExsSCwAu0ijsaA2PFa7yQGGBJ8YJiQUA6cPHLzoeK1xekFEVFu21uTKwDADg0n5WK+wlnNPAx3bmCbo/skXyRrGJBD9AMfQKWwmjGgCFhcIKRI3EAoDTqMweIoUF11lRWOANUbPqRKc1QBGoXFBCCgu8iX4UFtxCtOG6RmIBcDJjJwEUFt8FvAjbKWqeJ0B45G8jJAcOd+lQWBA9WDIwECA8NRsJoLBQWPAEjehi2HmgALHpVfaRmRQW3GGOqrDYVPNGtgWDdiCA0FQ6+wiRA24RVWAxhzd3NtHlwORRgMAojR2ikRBQWCisiMhasRiLBRCXRel+XS5fg1s0KCwoYm3ipwAIexyr2UXAIwMKC7wia8ViZgNAUDalXWTh0QIKC4UVFNnuIGY2AIREa6ojDengdGmisOA+wrn/lScKEA+lNkLS3oDCQmFFRvgaDBoKAYgSz0J3DNxlC6uwHrxcTqc0FAIEZ9Sa6UiNEG7TobDAM7JWLO4YAwiGUhshNUIQYEZhQUHxs0ZiAXAGe+I0Rh8h3OeBwgLXCI8SpKEQIBBaLneuywEBRhQWOOd4ILEA4CPURmYTJ0CAAYUF3mk5mwLAB2hdloMJC0SoAiss+saiINyOwcwGgBBoXZZDSwy4TA+4gjs7w8RR2X4MZjYAhKDneA5lrlAUFsghbLZAYgGQIMBJANp0KCzIANk7oJnZAJA/h9bWwahREGJCYUEO9EgsAPgDtctyaCMEKR4oLMgBaUvrxiMFyDokzAgscE7kYQ3U0jmwEkYBgqLlcCG/DWJEHtZAMZ21+hU7jxQgW3oEFrinRWFBqSGVHCcABy4EFqixobAgG2okFgC86F2Wg8ACz3sWCgv0EL8hg+HuAIQCBBYo8UBhQT5Iz79h8ihAhmhdloPAAlGa0AqLbrFw7EgsgOLZEFhQYk7AFx0vOBw1EguAgxYCCzKgRWFBVoj7L2aiKkBWVAgsyIMNhQV5cRBXAUpGyduCqQTEqVFYkBk7EgugXJTaCBFYIM8DhQWZId9GhMQCKPf7p/EclBhiK6yJNxyRZkJiARSKjrOF4cOgQBVbYT14wyFZqRAAlIlKG+HE6GHIZrWisCC7YywSC6DUpAAjW0CHDoUFGTJOSCyA8lDxtWASACUeKCwg0CKxAHKg0Wgj7BFYoLReUViQJzsSC6AwVNoId54rKBHd6P4YeMdRqZFYAHz0dy1YNBFCTokAFBaYoJF/RWIB+KXH4w5Z0aGwIFdaJBYAXzwed/DKA4UF2VIjsQCKoeJzh7xoUFjA8iXmArhHoX0YCxbkdihAYYEZLRILoJDzlPichondAXQJb3TnNs/YqFwBy8EWwBsjd5ECGxQKC0zPtQ8kFkABAqsmVw3Z8UBhQda0SCyA+HR845AdAwoLMmdWWTYrDxbAD9KDsJiCBQasKCzglEAJAcA10oZhLFhgwRZfYXHlFKdbJBZAzlTsCpAjc3yF1fGWgyPfY4TEAogrsLiIEGxYHigsIP4isQD8ItwwPGPBgry3JhQWWNIhsQDCCizZJHWHBQuM2AtQWA9ec3jUWmKRWACxBBYWLDCjRmFBBHokFkBIZCeNYsECw7VbgsB6kBMmiYXEAkBgYcGCGPuSJ7jcswAeSCwABBZTsMAPLQoLYtAhsQD4sPmUoYhtiaHuEOWwQFwGSIOowRILFtjyQGFBDFQL3kgsgNwF1kQxAwLtSgzEgjCnBSQWQN4CC487WNOisCAKuhXvHocsQMYCC487BNuUGIgFcY4LBGiAfAUWWWiwpxCBxUCsEtAueSOxACxZmeMO7EmMa4AyzgtILAA7JO/MpYkQEtCWorD4vkqgQ2IBILD+bSJkA4CQWxLjGsCO9YHEAkBgvRdYNBFCEkoRWI+Nd10AzQOJBYDAQmCBB4qxYT1qXnYJTEgsAAQWAgs8UIwNi3ENZbA9kFgA+bPywUL+dOUorIW3TVwmYgPkQM/nCvkzliOwGNdQBI3JWqLqAIDAAviaoyCFtfK6S2BGYgEgsBBYkJ69IIXFRF9iMxILAIEFYENdkMLi7uciqB5ILICMGRFYEGQpFySwHjPvuwSWBxILIONdqUZgAed9xjWAS2okFgACC4EFqemLUliFbYjDK1X7jvXtn8aeW2HnLURiAQjTILAgDHNRCquEcQ3DsLZ71337Yqeu69t2iPhIDPtjkVgAsgJrQmBBmNVclMAKfffzOFTtdml8bNe16xAqFD2QWAB5nhARWBCHtSyFFXNcwzise3c7Lk3dvkZJaHVILIAckTQGI7AgNVtZCivcuIZxaDfRQm+9RZBZpndtIrEAHH65CCxITlkCK9a4hmbtlVx09V7lbYW3LX4jsQBE6BFYEImhMIUVZlzD0GoXwuY+Z5U1IbEAMkNySgMCCxywl6awIkwpaForm9G8H5mGKeMhJEgsgNuBDYEFwahLU1i5e4yWarNNzzy6NUf1YD1IF4kFcA/JJkIEFrjYr0sTWI8j6zPenkYRz/vAykZiASgi2taOwIIST/oMxLrO0U8Jn9vUZ6ZNayQWQDaMPQILwrGhsPIIP+a1wexFlr3DEBzDM1sAACAASURBVIkFcJGlRmBBPKbiFFaOA7EqN0J43rNREQm6ZJFYANe+1gmBBQHX9QOF5Z20xcEPRNaaSTvmA4kFkAWyN4sgsMAJe3kKK6+Ro83uMcu4ZVEt3JBYABkwbggsCEldnsLKaOTouLp9P3PrP5GV5MZNJBbAyWPkjMCCkCwPFJZbht73c9wGVjcSC8DXSQiBBW6oSlRYWXyA4zr7f5Lz6vtZzkgsAOeRbkNgQVS2EhVWBrMzvaevfquJ3XOxMJHLcFqILADPhboJgQVhmVBYHjOLWbnjer8pmyPRIyHKAyQ5BPHpgafzwwOF5Y2lzU72dm6f6AOJBeCWpubDAw4QKCw7fdVn+Ui7yufj3JBYAF5p+ewgNDUKy1dOscv2oc4uNdb6QGIBlJHA4qMDZwmTBwrLEVWX9WP1qLESrvCa+AJgmMBCYAEnfA+sPvXVnP2Dnf1Nek/4UHsCDIBZAguBBd7YylRYLfqqGM97SqchEgvgQ0aF7xKBBd4oU2A5rBKm0Ffd3g7D66NohmHdu6ga63ggsQB8ccwILChgnaOwCtVXdfvPM2haqbR972reZtLRFytBBuAdi4bfFIEF7uhRWCXqq3r9RAItu5AcaR1Fu7SV8IooA/AnY/tAYEERzCis9HlE65fQDwZyb/KTvEl88yYSC0D9QInAAn80DxRWYsznX31fwROKgLWXh5x4Igm3QANoBzwEFjikRWEl3vz96asXuSz+5sSOVSOxAFwEPKWSPQILPFKXqrB8PP7R2gbXPbvXCym/ycdUjNQHiYnwD6B4IRgCC1wu+AcKK6G+sr7feTozDVRoFO3sIVuYvBjOBgAwqp10poWnCw6pShVYs4eHb21w385t882c5K9VYUousQg2ULq+UvsKKcODT7ZSFVaX/NGbG9yn09fZjELLw0FXYfqhJEwehZIRGwODwIJ8KLZIuKc+z9lv+Vfy6FL3WnSpk/gHSw4gnb7SjHcILHDKUazCSpxVWRNUrS75ocTKyIkd76ODNcdYLCiTQbVWgsACr/TFKqyk9ushSQfnNY1TSWnBOm0c3EpfdABpqHTDHQIL3DIXq7ASmq/HRLr2YhapmRL/AEJZQweLjr0ASmPR7pfmowK3FDvQPWVn15qqre2quV9OYqVMY7mYSzIzswFK4tg4tUC5FDvQPV1jV9Ml+50vt0/KSayU9re6cGUPYJ2+0q+RILDAMcUOdE9mOk6paa8PqBCUWOmaCtuypT2AKZXFWRKBBZ7PGMUKrEQ2rCGp7227/oML9pxOqcStk5L4StyB8Ay9jReC3hHwfMooVmAlmTc67ml/6dbJUkk14t1JW8dB4IHYJ/fd6lNj/gl4ptiB7kkSCcOc8y8tWWNLdFOhk9EkFDYgsrxa7bwnCCzwzFiswEpQJEydwHrl3s4uqk+SzG3wMl6XS6ABeYXAguiUO9Dd3m48pC9RTTd/BdHY2aVQGZOT5bcRewB5hcCC2DDQvaAE1v19fRQViVOCSqGbqnhL8IFYNLt1YzoCC5wzlSqwrIcSDS481rcjUjNlLjP8dHbgdoc4jEc/c0oBeLdhFpvCMj79+BjENN3/RYQVinml0I/xcFqIPxCCZU2SGmauHHhnL1Vg2aawGidjXSXOfMJ1ZfOuus7PGsTtDiSvEFgQl2JvfTZ1AK1OarGTxJY+SqtF46kZq59FyBYBeTO0NV8PwKfZ3VIFlmUn1xjMXN1I68V+LHXNY9SFjNVVx/EEIJPzfFgLzOCmmWAWUjLiZvHa1JHk6CJOBo8C6uqagZOXAP7pClVYhoUpR043scqoeFJusuyr83SswIoFmbEce82HA/AEpQ50tzv/LI4SJrvcupG37xn2Xbvqn6XWARmlrtZt5mQC8CSF3vpsVyM8HI0bkwxKg4Izzi5mumrvwIoFOdBUfR0ylgGoUeitz2abmqdZGLKWH4XfzM6M5WpECVOxwH3mypG4+vHNILAgC8oc6G5VmFlchSVhp5PC72Z2h46vMbs1cQicsgztVrsL4PSHQB6Ueeuz1Y52uNKv0nk7FZVi1YDgawocV3+AO8Zh3TunJ/Bu4P1ADhQ50N2qKrMH38VVrgEySi86u+6cDQNc5a3caqv/mFfqhOCfIge622SYR1+59T6X1WNjYXWWvJ3ZLsABQ9VuuczvmXpKheCcIm99tnG5N1N4gaXRT/imNkwCp7Mj+kYwgnSMr9Kq77Iz5Xa04YJrShzo3pb4ZJUikU4d1GT4qLMy4eMgGkGCpNXQtl3GU6fnluwv+KUuT2CZ+HzGvgiBpTF31Mrv7q3Hg/ZzQFldKhYy7AScsiCwdJ6rs9kxej7qI9/X5K0kQp0Q1GmGqt27aAfrnkYRcEl5A91NbNSDr81b1dekNbG2U39R7mbtUicEVWEV+ApapjeARzYEVnzdqqtVFi01WTdlvSbqhCDM+FYK7LsyrCA1pndwBwJLAWcWLG1jf6smOJQllr87z6kTglDCqu264m7rmNFY4IsDgSW/bxdjwfoPtV94Uo6Y/jK41Anhuq4qKGGFxoIc6BFY4nHO1wjXzuBXHvR+fN2WQn8uROqEcO7bG443WdXND/ipsRjeAH6YEVjSWUFXqfnJ5pI/RaGu2lLor0z42AlK8P3CfdNVyKpPgh4aC7zklRFYwvgaM9oZzYkZFWXlpvnWHDZ60BIFn7MMa1t2HRCNBfnQIrCySea4TWBpC0vN9+ZwWElNWIIPtVXbd4gnNBZkRI3AEk3luIqAneWgY816heLUBodlQqM7nSAfxqMtry8QjQX5H4sK+uAMHN+u5rhPtk01g+rvoiexHJYJJ64Agd9BpepxW6GxIEsKGuhucAdL4+mYuVsHl003Vi4FfQIMxYKfHDuWKzQWZMuGwBKMho4EVteYryXtfKjS5a4ey4SY3eEtoPRUBtFYkDMIrJDJkDRT99S7JnQ0lsdTxkxoKp0BeZWnXQLg9yGplI/MoKduL/7UNurbRTQ0VlXoggW/jCvWq+xPnAClDHSvSnqUfTKfdJXlb+eyTMhk94JZWtJXaCwIwIzAEtql3ZSaupR9aCazKnpp8eHSjNgTnUrNX6Gv0FgQgjIGuk/6pm83Vz13aS3Sg80LFa6C+myoZWJDmazoKzQWBPmYEVgyWX0nAqtO3oJmVCuV9a66LBM+OuJTgSwMbUdjQRRKGLUy6wssJ2OwPISPxepRiIpJnzNLmNhQHgcJLDQWRGEs4IsyuCnHh8ByEjrs7rnc5MpoPsuEJLGKo0UCobEgDBUCK8qx003YGO2aJ+TsWE6PGmwFhdGjf9BYwAedDwZXEXqQqZ2jgpLl85ilfm+fZULGjpbFjvhBY0Egwtf8yxjk3vky7JhadYVKhU6zuewDlBQAjQV50iCwAkTF3pshejD99SeR4edOy4QksQpiweRurLEY6gskpX0LrOTjLnqHU5OMS251k9/PTBILkuZ+4cGd0KBMjcC6SZ86QricSrlYP4c2bIWGJFYxDCgeNBaEykrH/njCX0XoN8tt3nN+3/E+lruKwQX0EabRWD13J4AOFQIr45jYOd57R3tHyT7G3OBIYhXCiNjBaQGh2BBY2e7Jve953wnE+9001kESCxJCkTDlcZXrE0CeyK0rrf7jSyewnNqv/qTO7507/RxIYpUB09yTUnOSAQ5Nz6d4AgusLGJBksV1r6nQqw+G0F8E2LBSH2UwvYMoOwIrw4DYD2wYn3NnNpbXMiFJrCJgVkNyML1D7oUcBFb08uB/JBqf2N14QF6r5gexCoUFNvGDjw2ktkAEVmYCKy+rQCJfyXTk9VKfifoEqwLYkDc+UsYrxUKQIOyshlr/C0mxF/dNZgtsTvT+L89tcHuJFI1OBYDT3c8RnQ8Ocq1zIbCKOVgl8zVdNrzPXiM+0YoTLxBvIScmBFYuAmvL0xyQzFkyXSynuu39wIAbnwZd44oNRxbwQf+7uepvRsYCa9pz3V8TOv36MdQ30RKvOPKC9V6yN6xKuErMsv+k/03YCqysB+ElXGPXKoVey4QT8So+DMTyWC0kfQyZlXAQWM//On3eh6gxoWK5VClcvS5spo7G50DQuLSdILLgyuYX8mvQ34gMBVYAt2XSawMu+MPdTjCpiVjxmZEzXkUW5ULgwBRLYG0hOoaTDvmpzx8+3U7hJcTHZ0XL+C0X7vfj8bLPOLuKIeKVOXuYGJjR7PZvUqVJ7bvTEGaTY2BDAXUFvO6uLSjbnXrhsta/8mHMgSAjnSf6m5DRyJpI17wnlixn7yl0WzyfiMvxYeio+1RWX11RWc36Z3J8w1UZn4BX5uhbVWwEVh8rkZy4o+Ls2Aa3d5cQlQtIYuHEyiKX1Q4nospS9f+81qln2FZw4g0Q1p80avHM5jZarmJJXPo4acZy+2HgdS+AAf2SSzJra49vj8LjsG6fiWZEVmzCXTOqP2nUoDegjpioSG1tOjfBw68XBo9sAexol6yO9d3eHsO/X+YyHO3efRdKEFmBieap1B+E1ag/si3ofaPJJ6+d0q1u5z7uRK0C6JAtmWqt/3Nmo0BkBSXclTnqyR91gdWHnWu3TDmJE7djTJjrXgJjjVopC0RWRKJNXlm1H5iywJrayK1i6b1N24nH69ZtTCBGYkFQkUWrcCyC2bDU5zToNvnE1lcultuJPoi92FUOLiTWhuQokK1CZAUiWA0863NleH3logv9eaOe3wo6IbgMsLuXSccNiFGI1RQ8a+88mgKrAH3lQ7VMTxfZ3JYJGYlVSnz2PxdropipkixoaRmOQKjZwfpthIpp+72QvESVkUBxa1LciFylVAo9p7HeRkEtL9QytR7vjuEye0K1BKuvR73+/a6crLCHIQhPthT6ve+AMmExNC5jdLevv0bKHEghxaQBzvfMibQa1dsI1bTBVNRZxUNV4UmvuNsDCGXCkkqFrpZh17fDH+dBLqlWT1hXmLLy/XYDLUT1Biu1+tZW1jHFxZ1r3Zj0lVMmhDNx2sX023faKmAVxCs1zvdMCWTDUr+NUG23XUtbdc2Uy3rxe0CndlAWS5vwXDK/1QQ/XnEr8sfoHew43zMkzgFE/TZCrSa4qcAPx4fEeubBu705hzJheV/Nbi6ypq7/+lrjhhqhochi5nt2xFl92jf5aYWSrshkhIvA/Iy2dWvjpUxY5HezGp2J3y4yHp74PpjUYByzesaR5kQcG5Z2pU3rRr1SL/HNRmK5nUdE9Co1aLedrrI6hqc3cSaipjhcIbKyIYwNS/tErzRpdCo36+tDYh357iEUDErOZVV7J/kBdV3frsPpOgCDGlLtdzjf8yCKDUvd5a4jsOqSvYs+HBzf2pncjsTibsLSGYeq3W4Ira7r2jdddXmzXjBhJdzzEFkZEKU4ra1UdPzOW9nJ3kwkllenyUz4gp9CZxjatn3VS98s1fn1X+n213/1GAaRiIkJC5EFXxHFhqXdV6VTKWqLL3XUOSwetyOxaN6GTwTXO5qcwiIgssIQxIal7RZX2WMn2u1V79EWk1ij12W/soAgIRX6BpEFXxLjys5a+Smp2DlnMhBv6sXFCtzz/Eo61g8kzEBjwkJkwdeE+Ea0R42qRJKaftufuJjo2dsrbAlYQ1B4/hn+v6MwwsHhKSTE0lLuWle5N4U+MF+1hq/fx1zmygeIXv8IBXOyvBHiSillE5bKUQ0HzR8Mk3eJtZe59AE+pUXQeKzncK0OFZrMTFgKRzU87n+z1M4l1lLo2gf4BEaNeoULoh0x57+etE1YCiJ04gt4nyfsnUssr5YTigKQBFzurrMOK4HBx8aGCes7FExCNV0f/7L6llhVmasf4OOdY0bGOLdkERrI9KrbZ1w+oY7jxYeH4tnzYvJ6FsGIBSmgjTCD6s7OUT41+ZsVZ125opALp4nwMxGzeZZYTh2LGLEgAT36JQs6egvTkv+1z7qOJoVcOEmHz3FQKaxyS/cSQaHEDxWeTGT1JLISkv36Ub7Yr7bbweHFxTWFn74gp8YT3BZgDZflZJbIYsmm2tCyXzuZ5cKZ0vBd0nB3K7GcVtTJiYL1tkEbYW6JrJZEFsneKwtnyevxMKXhe4bZqcRyOhKLqwkBgQXf0Q+sXHty9yvqVkgOBFaSNNbmVGI5NS2yYsD0+6SNME9qCijmZP6tbHkd1RiD9ay0TXxI/kQJO3WfcDYFBBY8VSykL8aWzNeL6nIRbyOsWd25pLE+kVg+qyMt6wXs4LrnrPdMOgstGagRfk6HwCo3jfWxxPJZVN9YLWAGg7CyN2ThVTEj73mjfVaRhEHuJ9NYaZsKPxxk67P1dmKxAAILnt+LMBaQ8L24B4oh7blhkPv5DGvSpsIPU44+LSjk/cEIBmGhseB5sr68U3WNNAgsB2ms1pvE8rnB0CIECCxAY7nbwXJeIaqDFscJgeWBJuWAhD6XL4bVBQgsQGO5K8NkvDxU+wilG5LZAi+zTq6Ui0sbCpc/gwUHqiSYxsJfoLx7Zbw4VPsIewSWn0RrQrPgmsmhhCYKMEgoM8o9HMxuUCXjvhDVDvUVgeUq1ZrOLvivw8mldZF0PyCw4EotiBmkiuQ7nFe1RtggsJyRzvHeZJH3ZeYoFCuwuq7b27athjfefa/Lj394vP7f++u/hkT8cC+lUUaNfFeF5qIQdrkjsARYUjne/5k86tLrzuXPUJjA6rofour0r/Emt9Baf1OTA1eqvuTr0Msns4fAkuFIVJ77Z2aDx9I6M0ehEIE1d3s7CCiCZljbjhsW/9ulKBVqkG3v7aRpz+sRWC5JNeO9zuFcwj0YEF1g1Vt7iCdblqHtOxTWY1pZ5PLsuS4HTdtJhcByG+bThML379Cj1x0rBQQWWN1eqRayXnXWNheusTpOaeLkqt3nbGIJAktY/iaJ9O8EvUevOwsNYgqsV3FltPWPpcss+mWkydXup3icGWf2Pc+kKRX+nSHy6HVn5iiEE1jTtppbsMejLbdoWJPGkl1MubryFJ/JhsByzpDAnfquodCj152FAZEE1txX6bb7Yd0KbTbEjSW6jjL15Cm2PbQILP8kuEfn7zXn8cOh3xqiCKxpW9MnU5p1K1FicY+O5E6FzNbUnDUNsEos9rHv7yqcQ7cGHgoIIbDq1s9hYWjLG+cwHax5KfJsJVR0nIiOGkVgKWI/HKt3fjbZWBSQu8Catspb1ByrvrSC4c6qFyJPR5/iCadGYH0dbY795zDkbk990LF3vP+ZOnXoYGTmKGhkcezkxbx7zZ4Me1kthiQHhMhSmyuamyQ37SneIq3+qs3NqctSjXUC/09p79Drjn8C5L95O3nlu41tWUuqF070FIqkAbJ893obycES/WKxtP/o8Tm1X6Kdki09h1537BOQqcDyLq8KFFlMMJbIfeb45vUyJ8uEwDqhr94XzpLEPNs695/Jc39lA9wTkKPAmvp8gmVBIovOmYwywJKnHb3HIfntBGud/3SSevJ5FLaDG/74df153TsiGsjmiA1W7ZZb6nVpC/FkMWsoiw8on1KIpAkrVor1q0xR7/mH08ydOyyxE9FAEn2vYb1m6VZtyugu3PC73yTDgWp653RJE1asubitczFpmsZqDPef6z8bgHuBlVN18N+sfgnTSGkpvEmGwxrUqm+SJqxQ6dWxc7+vW6axfreINu4+Di68ALnvXtlwVFeZb98lVAuRWPegNPwbwXgSavTj9/MGZwdfoWG9u9NYMih7KEpg9SGMqseGxIIvPqL8XrjapIadRXlRYPloOjGcjfX/X9ddo0hNTAOh70kzPzO1YULk0k5ILPiE/IY1tBk8irk0geVj1KXhiPf/jt+ju+BKTAPD7/5qeTDWs6piz2/gMq4bSyO3l602Jl1wrww1COvJQOujOnVM1svQ3bWeA0ENJHYGvU+pC7hGh9DFQrwHl8luWINaCqtjk/tQeNZZ/dKL1WHyPyvWUswHAhy9RXbroO2uS+TxDTTQXKXP7E2rDRsVlJqhMuBP52j63H5gISXjrRmXjD443hf6wDdnjoENWVzHlT5zY4KWehFsuw91cckJc5qX0FkZhblB+7Dv7AwCxTBu6KuLGivq9Aaugb5IZgtCa/sY5Z5DrBxCnaGybGwW9X9WLG+f0EJUg3vRsEZfXT/gBdVYNBRegxSWcFI81kI8k6CZ/OwQNpnZX1Ysb1ZG8vlw74Qyoa/QWLFrM3Z7ESmsN+Ruy5lihZHZg/xNqpi/t396+4awusMtgTChr9BYn9si4AwD7/hF9LacoeDl4ak+auOOagzl3NnUGsAVVFKyXWm78xrQ8z5TJ4yusLT2DrmiUrBBeie1g6djqslkrJ8xx9lHNBHW4HJRQ+O4MBeY/YjYV0id0MmBJbcUltxDiDaY7WSQcDU0pbGIcD9fuLOBznT9wFVdoLCUp6rQZ7mHk1g00cRWWEopLLlBDdHuhDubnPHVRmlyTeEPW7mzgQ0VcQ3cnEracmtLS7Q57xgQTpPVwFGdFJbcoIYpWiw5rb99PYDRQGL9fOe+CgIk8+ESCieFrey0x9DFkliY3c/SIaB3lp/Y6nCWPbGQWJ3sGuKkCXGO2zM7chXKjkVoiaywdL5WuUEN8a5uyt6HZiGx3l67s8sJiWvg4FuZmBvy9lzbSBILJ5b2HpoOnVlYo9gRI97144uTd+RbYv24TsKX4QKrO5xF3oLVsRv/iqOBSoU9rzOswtKpQIltjQEvFRgC7O0GEqt+8TawYSWwwTnELVgTVwv85ggzgZRRMGEV1uw7sES8GHONsLcbSKy3YoirEMpBE859JOIWrJ7plH894DCTGxDO2lmKUCksuWHuETvkLxgIHF57PeqLn8bZwIaayAZnwqD0KQSH+z80dQyFxektqMLSSWGJFchDNshfUFgek8j6o0drST8fVnewRfz6g50E1gfEuEhn5kXGVFgqbSmr4BYbkCseNY/u1sZidboqA5BCgKeRXrkksD5LFYZwvKOek0gMdYOdxnsVqxFOMbtmrgQEl9VS/RJe42tgA23y8GwQlK5e4cCKncZCP58hm1EdKluG2JEiqPvvyvPxWS5VTzDVvq5H2Aht8BTSFUJaCKOnsbiTK6TC0kgSiSXwopr/rkSDLs6vcvII4KnijlkCkhw9OhJY0dNY5McjKiwNDSNWI6yjRpVLssTnr6LfUNi8eGoWYqODJ0Kg9JJlEFv8NBYK6wy53P2tMWxKaqFPYSdod15elQDqbvfa1cAGajXwLdJX5tXcJRAqr4HC8qMylNEoPYnVCOOe2y7pb69levWmjvVlIgxCNohPGcXi/vRxr0ZhobA8oXAiF6sRBjYVt6E+QO21Pi2OzqYdsQ2+3uWF6+YTDugT6nZHYaGwYvt2xWqEgQ9ubai9fdFOMXWjn0+G68NA/tv+KkZTITzFka3hHSUdT2Ep1OHEakYDUTiXvV29Tlg5GtiwENzg89OGdJlqo0KY+hVYwTysM2Rx5bdCmkgsn7FHXh3XrNt+Y616nbDx89Fw0oTPzxrSCRR6CC+QaaWQF3eGLF6pwqgGqb22Dn10uzbhye8ZR33seu8nJ7wT3OCTz0B6lU6kNS6RZaWQW+XjKSz5Cv/h90fLX2E5Ps+qW9H9HEuxuoPRvl5Tkb6qdTOsFHJ0C6ew5PeKUSrGtCyPrD5B9bmjs5+yO8ENPvoExEcgYsG6QZ+dwqKjIZzCkneUSAWZmuWRWfZEfSjoTCSEkhJYNO/fjEiZVQq5jyucwpLvTZOqEU7hs+NduG9Q3ezu5rvBfAzvWeTv8KCj4ibNnJXCQlCHU1jiRSexUlH8PeyaHvH8Gw2PUuiJbvA38pcOT2RK7+9HOd1TOFESDqewxBNFUm7kArzE15zhrqNuV4rCoucH/k5gyS99PO4i9JzbUFhxfO5SM4umAqLLNYXl+tbhcpJYnDbh9rf8tcBiiclQ5RJTSGHFU1jidX6pBtkSfC7X5IjvUn0xSSyGFMHvL1lhLgD5DLnXk4nfHRdWOIUlLpqlrk4pYt7QtXyf74kpxSSxiIbwi1GjDoXAkoy0WUzGmklhhVNY0p+x2HU5DesjU/E5F6KwNsIb/DxVamRIaCKUFcE55NZJi8dTWNJCRqpduZAEwSU14nxkSlWIwpoIb/CiUyBEYMnj3+/OOPd4Ckt6s5YahVVKo1a8cQ2CE/29Q6MX6BQIH9PBkxWn9b4ZUyOMp7CE7eRio7BKSZdem2zhvILaF6Kw2AWhVTlOMAarxOw6Lz2gwhI+hkudEopJl64R9WdTiMIiqV86h47nEIGlhOuWQi6JCKiwhM26C+nSs598yG+xEK97R3wre79WMk8jsPQOf34lFq2jERWWsJ1SKuKUU34ZQ7YBtGUorAfxrWAU7iBEYOlLLK9TG5guG1Jhyb5VKZt7SW3wc8QHtBSisNgKy9VXamZDbsrRPdP6lFi43C/iu61KNjEpZXOfSgoxl9J+7stTdRkKC+dEqdu0XjMHuYwSJRZ5S9MNNNNmKKnaUFGzsi89NPeTmPYyFBbWiTL36HZCYGX8+jYEFgrL5r3K5s2l8qVFLZBrlVXvv1Uh3YQzAa48Fs1hJAgsC9yNk2HuS0yF1bv8Vcu6OWCJ+YwKGTrKfoi+QmAhsW7C/P6gCktUOWNzv8YcUmFtZSgs7hEri0E3nlMsKlJiIbCCKizRIiE2d0st4t6qtpahsFoiXDmMlfKcNwRWkRILgXUHz5OBeo+/aHF71hryKRVixGLmaKjDzpcruteufCOwipRYCKywCkuySLgIhZ/yvMNNzJ29DCPWRISLw/L59I1x1W/xR2AVKbEQWGEV1uRxuRbYVBFTYXVFKCxmjgbi+GS7GysLVyECq0iJhcC6iePbvCWLhIPQz1Ri1eWSFuFowQkUZHkb4ra/b+ZrVqMBlTTslyixiB9epIfzT1oqY1HiOa4NqbCOMhQWM0fj8ENKTfv/+0OXoe0mtlokFm8dhZV4k67Yr65zyYjlfkxAIVcTMnM0DL8v6A1GeQAAIABJREFUYZ+7V2a2WiQWb909fjcawblTYpMaypy3d+Wc7L+mUIbCYuZoGFJmXUmFliixEFihNxrB18ukhltsIR9VIVZ37DNR2BFYSCwEFgrL3+FbbFJDofmAKmRM7stQWMwcjUKdbA3VPPwC4xQCK/ZRvva3Rktdclcqyf6bLgtpJmTmaBDGdKGYSnOBEguBFVxhrWK/YeNP88U/PfsfdVnIvTkPQlwMktmwirsnjOQlAitCEvIb5OYiSGnIcm/R3SNu7EMhCotBkeV+hCICiwWUOnuZQGLhvBPDabFErsucYaNJsoDu9WgpCmslxoVgTrR+SGYUKLEQWHI4Heou94qlVudQ8CKZAgbmUhTWRoyLwIJAL1hizQisbHG60Yg1mTNsVIALpeSWhR8tGwzlnYTZa13QTLx0zkaiiLWvSKn/ou2eF1y27lMnpSisB0blQg85dPcgsS69dHpHRXG5K4iZnlpkvQTnv2/3qZNiFBZGmggksWFN7LUZH3IRWD6oPe4KUtX/UUr6F54IuHCC9v4rVaUoLHL+AUhSaqCNsMB4xXAOaVwOxJL6tElhJTtBee8MaEtRWFR62F/JfuZPm9fWC553Gql5laSwpDj/IL03IfWlKCwufy4ziXybncde3hpAVcc4HRnZpKXWJJe7nX+S3tN+f+Zup9AKi8ufSzzh+PHCgkLIwlKQDR4dv0JCWsq8gOHzwtBR78WpvyqaVWSNRS6iwM+PoBcP/cmjOAq0txonCBXlSGHJcb6XyXeEbv72jI2BbVmEzexJcIkmfhx/LMoHQVzuTvZObYQ6/Rdngi9rzisQ38Wp9b0rf+nCSixWb+5s5muGWe4uz4W6EgsTlgr+dhahYnDv68fJ/PgUrDi1vVdYLy9hS4UDyzdzpkxDMAij6prmgi0v2Yk8bFiksNIKcdczR8ePJMi4xVRYVLkzx9wry9RJryjWi3HeKXG42xFkJA0prMSnpyWb3+b/SZ41ZBqLrjAOwef2WkxYbtGb2UBhWAl3NxPKJD8aX3ovf6ZIX+z2SdK0qSNKLBZvYflj/Dhx0YpQNMT42Tqz8AB0rn6aAOyByoTL52W0iJNIMWLlDSYs+D/jRJDghJQ+WylmXSCFdTnX6febbb8wKgU0vGPEyhpjH8eMH8c1Og2FWAnMtpvkiJgAOhZeciXu9tm9Pwb+rUCaOZrCYhGXlT12EH9BD5WGQlJYYY5I39os0yRcWHjyH7bXh9d+neMZw43GYvHmjK03EMNziZKbQ5jmiT7ggbtn4clzOrfj1Dz5j5Nh01o+GLEgs/hMxMsA+SMgl5e62jndm0YWFp5B6ifX83D7/a6yxlJYGLGKyh3fqSBgwspBdEtv2TPPVJM+3Hm7Z+G5OEy7vOjq39u9Pji3x/K7k5ggPHOkDIS0250jWJxD0rcIHKLEUlgMhrkZ6z1exLA9JUCaUBKLtZsvliWGncdd5J5Nx7zuod7TXiDh3ZE69ZEyv71Q/NUJjyfXXCiJhREr33SF4TJhUEM27N42XXBySvoOgXF3YoqR3Ok7zjss3V3A8eHAvo+XUaD57qzkbFkR4vABktGJ1KUynoxYq6Nfh9zpOy7McfV2iWz3fBFtjCOxMGJly4YOh2ePiihrn3gyYg1+lh63RwgksZxZsdozNqVAEoulmyt5GTTA83GX6JBKDofaClqUvSst7ikFfZxbdHEkFj1i7KPfwTD3vGiR1tngZyO5/7LFUlisuw+4Ytnz05H5mXu9CS+xcFpkit2VOdQIc0OqgLzxKON8xvqVOTFnKKMahJJYbp7kp4P6Ps9WRpFYHBc4/LJCgiE1eBRtrc7gZie4b3SXaoycWBZij9eHxPpcLQ1X/qO8oA8/S+wm6VAjzI8GhZULbmb/3PY+ibn2WXaCz9eDxPpCKw3X/jOMWODycyPcFcJKbMgEN/Ma3KSwGNUg+oDTS6yvlFJ19T/MBxpjCczUCMMhYsWipSvQUUn7Qxerd+L+k10qqSXWlzqpvf6f5gJXbGaJVXGBTTZPRPq6ePkGL8rJPnBb13RSPwmZU+EsYdputq8HtLcGYSw15GQzxOrKHFpNc2VAYRWUbUzvBrhvDJ3XYWgnjvyfc1xVzwnN1t9cMtje+8+zYGXl5kdrsza4j7DoJUI2wQAnZcK7avqubWFaf4kIjJ/yecI6WbtSNd0U9gEkFmXvgj41tljWCF0OrnBSJlzS/hbzfxqAmsoXXE5MT4ki+bfHvE7vd3YD00eIyojvgCwTCovTklEr4c2M6e9biqlM66yVPkE5Yvz+x33iYuQqe4nFms6Ow0Z7UyMse5WgsC1YPWwC3c1fYhYSWPD1qelGltB8nx8mmXW35q6wOKlmh82sBhx6mXP3ShZGdTjfNeW4ObSnQmD5j/z76C/6dNq/9N8qM83HRRzNjpl1Ad9ze5wMjzDM16x7zL610CasV89/0ndK/5ZprOa5JfFc56hUv+2UaL4WJ4jMsJnVwHU5xS8UDAQ5pBrTW0UaAo0V9wxvm5GYHXfRQ5zY5NFENyhwlXlmmBSmGYVVfDzGQGDC4UBh3dt5e7afXDKerUU+5Xj+hzRI3f1ZlEwzfY6LczLDovsImztLBau7Dbm3Eo7sPvno8UndXtt08gtPaixWmtkPzGsgInOyjMnNkQ08QAvSj3W/57m8kynF5W5+vp5VY/vSq0QYoZkNe5o6IYXwok4xYj0e4J97kYmRsxakb0e/l6y8Ubia2HtOSxiBnrpVS9eO7aSkPWSuMZmWJDPisVtkRY/oBpsECSUcC5rkCuvWDnDnxMdEGNuU4f+VRqvheT+tr860WMhkeo82xfdFX35WGHR3s7OG4ZZJFAOBCcnvXrtVN7qx9ZEqT7cB9NKdwkt/YR0//0PINBRuY5KPjVp4WVlibO4FcauoTJnQfZ5RxACcJh4xCesSUnbteRV8/sOmvfJkCnxLld0RBmwxcG2Qu4/EnXlLdBMG+aT1jtgtccYaOZ/IVokcpsd1NtD2IsqyTTLhlzjKgffPsw0PORLjnZBClsGA5EasOz/89dVFjfDqFy1Z6bovso7+juAxPonMSebPYbfICN81A/DH8DCKgHCRxEasO0bc6/sVNcIED/1jkXWjXHj0txbvufiyiexuXYJPDLtFqR8XR8sCuFEnxJJnQZdWYd354jfEewLECxlzX51XWeNNeXV6EUi43fuXFGNHuSIlG/RnNXC0jMadOiEeTQPatArrhta57nOng/3OF62R9Zz79UT5Ymg7+6UnMdt9fEkwdhTnTTao+/SY1BCPgdAQ9f0kVljXrTF4Ee6gVsqo+3b47oy9HHuXaOkJdAJWFu34/8CEyUxQN8VSForIficggXpKIq3CuiF2Zg5yadBteKq7tj2Gf9ZFM1RtL1rSPl2gvp9/qpPkjKmJZ8LKSoALW/j11CdJLAPqTBVWw0Euvy/6pAb6hc4S7RJ8KstLgrGjFMUzQdsTOxP5QjKguT3TJ1VYCX5uFlXCL9oR5xXW/cGju9hF0tib451ctNcBNaGgXK8Tkm7QZ81UYV3d7UiM3qctU2Hdt6C9DaeyHzvKeN0s0J7VQOQLq83nO2c+CJyQuF7AuJwKwOYuQF2mwrp1ScUPjhQfHEOQskC7mkDkYxOnDyYBue1yP9nYbRKyTPkrrCtH+ttTsd7usLEfQUcpIAdmdDaYq3OWReh8xOW2vsueBTwpIhz5K6xLFerbU7HGlwQTGzDgZID2rAZSWIG50UCDh0CbLeEmd9l1vlpLOvibvUyFddu2uKZ4dtz+nAHK5kZyFRx5P/aGknTI+8vWUVgXE2+0TojRlamw7h5I6peXBBMbWPb+Ua4lsI+SKEF7JyGl1f1q5nqxVnQgmJfOWmHd/b2blwT9u5QJ/X9PTv0YkAcLdUK3ryZDhXUx70YKS5CmTIV190Tyoz3aemIDZUL3KM9JI4UVnevHtol+Ql0SbnJXv/uZo3z4PcGrwrppo5qS5I05WnhH1w5LCis+130b3Prg9c2k2uQupk8YuSdLn7fCunysv+eYOfT3U84W+TH5XOuQDTeKCswdzfj0pKGwdraZ0rV5whL1zfroj4qddWmeMqFzdLOapLBKoL157AN/L+YmV7OT14qE9ExIM9ZFKqybX8yY4qOjTOgb3QkepLCK4Lq9k5ENmqSbHnlR8zTWOyp8Qtaz3W+sh1vK8kfrzmhsdid/G3VzJIUF9xOhNUcwl+8ljcLaLf8y+FLsTkUqrFvK8mfm1rhPgDKh76OK5rsnQVEKPSrcJcn2uIsGu9l6QwWH8jylwro30epnc7SxiY0zqmdUJ6SxeZbCnWF9zIrUI1ke4tpLvVYkJIWlQ1Wkwrqlj/Yby5gyYUhUu41IYRGNiRAp6fJSWLv9fgoBJdatFXGnTjjfWceUCSPmHkhhQeq9nMGjeR6g5FXzpSIhKSwklqjmvlPX+dkbbXzvEJkMvxy8eBDhTmYcv54WbVZ73JJgO4WAEuvmke3GabFP8dy4fcwvmrN7SWGxmdNQWOgOeUn2XEoekMJCYr3n5i99o/3rv/sxTcvzXI3hF81sJomJorg1BgaJpcOQlcKqzf4meJYjw6ENt41JN06Lv8rjtmZ3tlqvaK4DUlilxWJWS1Ef+JdcUcyXTKGksLSXUH4S6/5FEfVtdWdqdufyMa/s6GoQY0NiuSOnOs2lihQpLHWJldsFOgLXgDe39z1TszsXn3tF8dthxyyOexdtsGBKV1hXFDopLH3GzK6Blhiwdz33sN45L6RpngS1LdFvOwdInUCH4Wjbdu/e+McqNf/4x/vrv3AMw20vVIsm90aXkcKa2FqcsucksCYJT+d1V2md4tMjdvpEcaA7Z8ukDMP6JqpO71ld17fVcFkdz8nPnuBCYV0pWxyEGbdUGZmxZMLI9R6R/6Jnk5uqBHEU5xFytkyUsXoVVgK137nb22ExDEt/9uGAHH2aXe6K8tkJM44DSzZmrFlIbFzeHP9vO7ccRkfodAkprDAsb9JqFn+N/XqudrgRJ3zR5qOwZsKMY8ZcKoWHVES9mrb7f/52nH1/cKDN4X+Zw/ehb2h71VrQvLWDelhCYpWusK6YQklhWW4XWVQK5S7pu+yhGQw22H+gdd8hehUEukdtEldH2xmFvXqvnvqG7+7oTHaRZchGYVUmfwvcOMtt/gWWpCHpamG0l0rpY2LNHL3NmVREIHH1Wzf3T6isu5lxumIiKKwLb/HCbkSmnDSWYlbz6rcziaX0SWpkjV6vw8TDVd012y1ZpKv3Q3lLR2Ll8ZFLn6gnNpUM0li9b4Elewfy1V/2EEvpc9zImdZTfIXnItyxp2/q2b5MZXVILE/korAuKHMy5SmOd56bCoVDx9W57H/8GHWuvzvcR+3lM5xDhaXq3US3ev1UZN0fY9uzfspTWOfPe6Sw0uB3Npa4yLhqdh/lUvpX/lLwsWGjprPKXc3OwtmnIut+brQmWBSnsM6nPklhpQpG7VSGwLqchfhjadoNuVhZmb7QG+hO46hwYn53mpmvq4+kkMAYGCSWGF0mCotMeU4aqy9DYF1NQW2i0ZCcbp6odZJuPFvBTOPqu0W6/6B5R+DO05lrLctSWIOBiAPBuOROY+mkNC9G3z/Uv91QLKbD+TqG8KIzSF7ND/fM66iwq09IrKIU1unSMims1Bpr91QrnJR2nYvzFiqLVAbuHNeoSeuaZyuigKstm9tW+3dySGJEwITNRoQ0uYbT+91pIcho2vQhqnVzANzU9PY1V+mfs3BHsziOPaeIyMvOKHByWrtHVnSV/OJiIaXbIcwVFrtJllQu4tSkOAvqoo/qz+W5Wj0HCuee0BLW+O3uy6v6kR/zn653mWMbWe9iFNbA2sg1WqUvFupOd7nmKl1vJWjZe/OnQUcjr4RPku0ofGzb8NoUorBO/5SksBwlspI243TaS+FSQP7LK7NYPQvS/n5QG9PBplikvHqvsWQcGkxtSHQEt1ZYZ0/53PnsijFZ4Or0+6quTWxYUhxz+Cz8oPVFkL0vVV79rbGEZhnTUphmf7BWWOo+L1APXwksWb1JKvPSL7aabLekdt1+D1qvmB3x2iGw2h4x+E9jCcVbWgqzVFgnvQJnPQv0K/sMYr2lJ6tejTLclzbL+tYCJ8GRO1rtDaQpr3D0j0D81FhLos0aMlRYZ8MRstsrTWuTypp3w7P8pfD8dzrJqE7IlDgvaGVMCH3nT0g5jBU9q7FeBJ1+XAQdXmGd3MLomfK95LRVVt3alkoujR19d01g7fLDA618rtbJgkd7NrFePyIyV4KD9mrcBf4+ddFAP7ONRMtlrb1OZKv3w/7EdSUDVSc56bAD+6BCQbsIQ/30iEo9yFWi8bvfIAOFdVIFUgrJJZlV7Z1ghJu3dkjz6i+dFt+dC3ebL48qkgu0fD8kG0hf/fbkTcQNFNZTO/G5P5wLc7KKc0PVbjdjQd21VdL20StJrHdlwtHGDIIT2gVKqRM6GUhfPVhaKKyTCuvk/sU5LsuI96q02q47caycum5r22FwkLK8Io/qe+eIqzDIxEP2lpeblqpDM52NV5SGMlJY507S5/puNt5p7vvPK69y642++03/8x+11dv/7+xzv+KreX8SsKkT8nk4QOlV47J7iqUlfYUZC4X1m3MJAs5xYM+FJNYqkAjDqlPKarmyouCj85v97Kv/HxIz11isryvU7hXWOaM700YhjyTWPyvVpk6IoSI5WgNmqeN8/50aqpy5a9fh38TPMgzD2rZbl5/RnslYF+jcK6xzGw9ND5BJWuKfbJLN3FGiZGpWtHMSxtVqtuj0ZF/zm9baMkptMRkrE4V1yjDQqv3JAAmTWGuahDIzk1Kj9JrxyXzJshvZr7r17Jt4a6juspgsPx0spBwU1uPMT7ixfUDEJNa/BW2T+wmZF5c6laKUX+DJfqWvbOxXU39j4vGbznJvwmeHDaewTp342D0gmyTWci9fS4wsZqXgj7jHsBnJKwEpeDiXWR17bDCFhRUBYiax1pvHCZJYWbLxVo31lckm11Vyb2A5dr/urJlydCiFdapywruHfFITHzR8NBbHV7IdSdF5xRwuU+qraZf3gA/r5jSZxdiG5Aeq7zgxtKq6t2UBuE1ifXDoXS0OobyrhBz43KPpq7nSSiA2Ve/RAc/YhudpvSusMz8gh3PIKYn10Xq12BH4ThLSo5rt1KxF1b1THnLdOMxl1Qj6MAprI8pAFoyn4+BHV9gsBtGUDyWrVCeFG8f5q95EazStM1/WxCktisI6cQqhSQry+pY+SrYfBt8f4TEZShM5KNuk0Vd2IzjHw1fBcGeJxVBYRBkIm8T6sLvbwBpJEitYwMXnHlxf/ZfKcnTVDgPeQyishigDubCLbIwWV0CTxEqFzhbJqO2/WLaI+urnr1ZtXiQWA94jKKwTtxJivoPEgf10jLq75kliRV8ivM7zz9hifru2v/0LxsqL9R1fTv4K6/mfj1sjIDWnQ/uR6qMkiZWGip1OW3+0Fr0iQ+Lf8uhdiCwGvGevsHb2DMiG09mnT+yi+m6LmdCYBJ0SD46Y/7MaKI/JRefm4aFcOFE5cqmwnv/5njYsTrxLSM5Zf+0n5R2DkQ2kPZIkWHQyCTzY/1SHRbvd7uV0MnrwZDEnJG+F9fRpnuZRSM/pIlAj9OecP3ySxEqhACj5KtJYNBB2rrI245q8u3Ajkth/8nKWKRLlkBOz0AlQ/3BKEisBPWJZT2xYGNwdTtpc9sRzshjw/hVDEtX7/FdDohxyohU6bOiPbGBfToBK9ZcxNW9YGLD8FAjf5Un6pBKLsQ3eFNYq/+ORKAcXB2kpk3Kj/hWyMZuj81IHHuzLYJHHcZysSVwtxKPjS2E9v1CfLWLicwcfnD1NVlLZMDrQ/LNrvEaGYdlMGJ2ce7qblAMcGNvgSWGdCAnPbjOcxyHPD+rzirm6bZfKujUqiRYMdRYTsB6d/wPJWKVLZM2YsfworBMh4VmFRSEY8txFP8++jur7BuUl41QLqUiNLcxCVkyZDCUYkjmyJow6bhTWiZDQ3d2mAGxZT34NR7pvk2sQfC8NMpFP5G12iy0ro4kEY5uqtRAzlhOFdeZFPKmwKBKCmwgn9zmoW7E4dprS8Q6lOSwKhLn1ylVdGomFGcuFwjrVJf6kHKdICG44maefrbfkq98iGGvv5yj5FS4mUqLLrw6bqFjIZCwPCuuUGnryz+Q9gp9jtVzRXN2KhUvaMrWg8QZLTt+bjMCa8rwWZtlTdBZOWDuTK6xzxdq7/VgA5pz0QawpP08mNrhNbpK+J4F1K2WaxJCF8SCxwjp35Gru71EAxpz03n55PtC2YjGxwQ6NpEK5PT4mCazMk7xVAo2F3z2pwupVfjqqv+CIs5O7v/zDtA/qWBizDrWl7mc2Caz8fUUJNFaPufMvPAusJ4MSsxrAFbOgyNG2Ys3EQ5+pTQ6XyRNYe4RvYzBvLKwJKakU1uka7XPeUGxY4Cv+S+YhtLPMmN196u7bjagksMqa0eBHYzHfPY3CupBybdkjIMMdQHSbXJW/S8zuHhcFRcLPz90mCaxIw52sNRYthSkUVnthxT6nsHid4ItaVOMoX2uL2d1jYhN1/AnjZrJdBeuestZYtBRaK6zuUuLwOYVF2Rey3k2/CUej8sVrmN0dqu7nygLlPcbBxLodsM412HreaSk0VVjzxTTTUxNkZl4i+OJkN+F3RsJGtyzCZHeL1AuJFglak/0qZjucbV8hLYV2Cmu+nDJ8KrVJlQO8cS6WfdsMW3HezH57o0h4n6W20AZT2BJXZTnnnZZCI4XV3VivTyksjO7gjZOd+Y3wn3cWnIzqaAx0L+1saXLNc+jL9cbWUGPRUmihsPpbwRuFBVlycsRCK/Ml4Ofxi8bOVpideDfRBXvs1MtoeCc0LYXaCmtqb6axOw7gUMCG+n0yYtT1UHBK0U6/aLy1osowRhXC+G0fi2FbIS2FOmerX/7d+48XhQV5crKl/Ps/UNntzlCs/PIvRU1aNqoQFvEdGLYVcnTTKj/MrcRaZXOAPDk5r+GJU4Ku2512EV1mEgTuFGrBLR+rmR2rL/7T11BY0y7kcRM6/wMY08iHdt1NZuWdKaIy0L2cIuHINTnST9TMjlV8S6H42p16uYWKwoJMOXdIrJN8qn99tqSC/aQ0KRL+fVwxqWrVZX0BQ20lsQpvKZQN2/Mu+jhRWJApm3w+Qne2O3VCRTTeXDFFQpspTuUNhbMqFU5lSyxBhdWt0o8ShQWZcnL49FN5X123O3VCNTQGuhczid/EgjWVeHWUWamw6JZCIYU174fCF4/CgkwZNE7Qg+omQ51QLQuDhfiyCjC56LnUSpZVV2HJpzcBhTX3lVJwRmFBrpwM8em2auqE6mjkCspIuthMwSr4Dj2bix5Lbim8eUSo90rx6IvCglw5uTU8GeN7TpoZolDdnYp4cI2FVWgquojV2Djeu2JF7HUNO2+t9rBPFBYUcnR5NiWh2VBInVCHgaTANUw87qX3ur3Y3FVY7NSG9qq4snhgT/0w3C8J+X9Yz7YyqTYUcj+hChpe7RKKhJXFzt+Pxa9Pm3t0Sm0pPLkRzF1b2V1T89SPxK05kH/i4mkTlGrhhEsuNFCwE5dQJLRoIpy4Oe9ynuX0sx54tl9uAVt7WD8iTnOQK2c79J/+gxvNKEhCWCFFQJHwChajBGrW+6+gYuLGKlLOfquwuq5th0Tqk3M3lJK5eP4T0yyeUCeUR2Oge/hjpcmsJiqExmmsls//v4Re1/VtewyJJT7HOciWTS34aAbDnReXeCFQJHzRvr+ACuEHmMzGKnCzHn4lqrofmqpdh2Hw01HEGB8o5VB4Zhlrnu+xNUqLBTYqlwKLCuH7h24x3LUjbeiJ51Q1zwncnl100hKKG9BECJTloEjoUWBRIfwXi+kYNc/dEc91kXIWgQC5izPLWHML2nh1omgkHBFYVAg1sDC8z+zXuSksPhbwyElfw6mJ6qPiaZPvSZQJEexOYFEh/OzZGzQYTDz8zBQWVnfwyElbw7llrDgWi9HuomkBNLA7gbVTqfoUg0ohCcTMFNbMgwKHnB3mm37nZmRD8lXwFJEFgr7Ampig+GVgMegpRGJlpbAenLnBIYPuvqk4FouRDXIoCIbIRUJ9gdWxXXzzCgx6CokwWZ3/Vp4UOIxUynMSFCUWIxukWMgA+BJYDKgW23eZN1LKm6aqAR6ZlWO/3sVtjGyQQkMGx3056gKLRranOPTNWAzGyklLk/cFh5zMtp8fnavX+MPIhjRroOx3oy6wGIL1JAZmLAZjOeDZG70oE0LGB4QrM0e1JRaflAwKyYC4RUJlAxAWd0di91VikRhJzrNeYcqEkPHyvZGK1YuDlFNSLIGiM/bKs5ioS52SWPqTsRiMlU984lWBwyB1MuJcOGLrHTVn9iMBFKxyYY+Tulv6RFY2/dpFYjnj6Zk/dCaAQ7St7qoSCyuW/QoouX5b6SawKEk5eyPMHvUAvU+QMepWd1WJRfS7jcashqBSoSKB5e+d6LcUEmTyUFgYc8Eh+lb3F8X7c8jh32aVfytBi4TNRAKrsLeCxHLA0+dzbs4Bfwwm6Qm1MEg/9V0UmuNiTsxcJhJYhUosHD4p6ZDCkC8GVnfVMEjwuwk9nk9+KIqzATbOCUgsuH0GJIkF/pht8hNqYZBzyy0OhRbPwk/Sp58XM7D8il8kVnJaNgMo4oRw3equKbGwYt1Cod995zmdOrOQwMpAYmFHSMb6IIkFRZwQrlvdNSUWse8OCrMaIt7JrdZGiMMdiQVfcsYqTBILcl6/b1wPNFoSiwz+dRRmNUwBH1OjtG3PA0tQRmJNSKyonPn4mIkF7mKTXYZCS2LRiHWZFcGbbv9mmKXgNmwgsUg3poE+ZsgZI6u7ZhjEinUVhVkNAX3bOi53DFiZSSwsnxnsUMhgyHuTvZWiUAqDXFB4NTmj8DIe4AkWAAAgAElEQVTiPSUVl3vPViCL/gU6SKwMDjjcpAbOOGl17279ZUoSi8/qGgevIslDenQYsMRZkVgxOXfC4csCXwymOQoliYUVy0t2Jpy3SGGW+4wBS4MeiUUOgIIGOONspehmdUNJYnFyuYLCrIZw8U18EMCEAUspktVILHIAmN0h7232rpbRkVi06V5Jzyg0XJHmw4CVCgO3Ow2g/sMUIhhcsRkfEXTiYMeLPI2CcyVauXaQVqAkWxU5HgYgsawp/ZQHeXPS6n5/3pFONn/nTSpr6wKbpYUnYZEAUWZHYgXk7LQU6oSQ8TFdIFmkI7G4QFf5bPiMzbTw2P7NIYBStrYirpFY6GbqhOCJs2Vur4FwwuByjoNE4jeIllE74r4+zQOJFY7TnyE3HIEnTlZCJFZvqxH3+K6Uj4alHR4lBzVQILShRWKFYyj9pAd5c7IUMiT5ZmwsYkUhP6sh2K3PgplWCoQZvjQklhOwjEBBxz6JdrGRuJc+Q4PEtUqHUCA0XNYTEgvVzPQe8MNJP45IpwZ3QCdH4SK3UCdHMUvPxI0DeQpjJJYTLkzr5yI1yDWZITJ5atMJe1yZkPQVFH5w/iTWsybzfHFIrJwPgxxrwA0JBrppHTQ5ujzNxMM3WKEzI0atseknRGL5fqO0loMbOvtMxaAV9pg2l+4NRNpyhOw8ONzzFcdIrExzAIKZAAABTrbtSxwORrWwR84g2TYU6dQoMmu0xheYgnFGYhWdA+CwDa6oEmgYNbME2eFUL6Au95MgxLvieCCxOA7S9wROaBKEFb0bxMgOP3XOp0D71dOZSGDlzGaksCbesQkDOwHkTIKdVPGYyeBRqyRN2CNjj97MGqOhWEgsnzsU3yD44lzFSKRlbFQMe+TuTTTE+6650o/MJLD8YGV2R2LZ0BV/6INytluRgViaU2uIet8zkzpUXJscnhNjZnYn2HhWzNQJIcP1K3P73K4Y9Rg8+h0KM4PiDHRfmYGVPWZmdySWBQNHHShn/foPgQweVRYRWqvCRf7jpomnR987oDOTWJznDMAcCjnvKSlWrWrU486Er9kQtZ9yz6I2HawuDzRmCutRI7HcBizqhOCBc6f2Iek3w+BRl/I2THvBva25ZhxbCKGMxPLF5aQ7dUJwQJcgQVSpBr2JoPcFClfmLGV+C+/YWVteMJvYQKbE9bmHOiGkp01wLBh1g17HW5V630XtMXf8gROZ09CLnBl86ZhRv5AvVYpwUusGPdIJlo8+TDL+Rps/FUJXjBMSKw47oQnypUmRHqqUgx6W40/3HvmHHSUXXyHpCz03csRwzY3cMgcfSE6KvKtymZA7oDWi1Wcd68XnPSZuEnDHbCmxeP+6XM9IYhiB5JwrGwn9pdr3s9Li8wnybVZRiiSXvTszhlp/DJYKi5y5Ljd2C2b3QF7LV+gvVc/iY46wOtsH2V0up7A6xLxHOkuFxXB3VW7sFlQzIK+zu1TLlLoVlcz9RyzyD3os8TNAypPEQmKZnX5uvBnu+ICsQpGUwtqJeZmdBmNHsAUhH4zNVGJhS/D6LqngQk57y5rkbyXmud12ghgdrvnTuCcnnmYm3MQ6GDKAGhKTpjNZ3ydB/eZf5IuzMXwOC3nScPS2Eotwo8et3nNGqUBauiTL9dCPeVRw3iN/J26QscmXdmPGjJLEYic34VbunesWIJ/dRW7AiMHEGlIM71jZVuQ2Y+pCztmNJRYnOjUOToGQLW0ahbXqh7yZPVDwKBj4fHglhbWxuJxjencOyRJVbr1Khu5DSk41E05ZxT9adQXjlO5yyG0rxnYT7OxI/3K0MxBDscAF58w5Tj4aRvpqa+mCJGyLwCKJRUNh3NDF5TmQkkQDJk2cqJwqVc/0IawnFzZiBBZJLLZyS+7ZdpmqAgk5dTOhoNeg51Rpi/yEjBBPt0VgkcSi88M392y7DMWChGyJFFZjEfLYDH/DrIYPmVhT7MtkdX2zoHyhiDO8pLOpI+RZIm/DCtGkUyGw4jKbSyx8CQ7yALwWyHWLkdxUTW5npcHnkpIuJ2zNCCxim2C8oSClws0R1QzFgjxyG6LpVpMkFt/WL2rxzaTEzB4CiyQW8Sa/N0lbOSQjWbeMSRKLGvxPRvEHG0JsnFT5tE6QxEKDp2AltwiZMqVSWDZJLHp1f3DwXD9gQWCR+sD6WcAJEeELORzjZStDNkksji9vyF/TFuGx9qwkklj4E+N9qqpt8ABqS1d2j7FJYjEI8EXBhhXhqZ6bmETXBOv+GbgQVYO7031mHiGkoU13ErBJYnH3p4YNK4J39Jy5g3JzhgwJklhciKpBxy4A8WNQ5eurIW//JAfP9APm0iQlGzNHulJDGDdAQwYKq034d5O3v464DWsubeVjlSWJheknm/MQqUVwQ0r3jdEJs/jtseaJ/suZQdG0EZLEoiciKRW6F7LkjN1XeqCe1QmzcA/NyAP9lzOjGnC5k8SiuyajjQqzO+R5yMv0hFn4oVLehhXgebYodOIbVqyYHywvBdxwalyDtF2w4VBpwM7j/JcTvg4uBsiYJYXCoiQlz3g3iYXZHdwfDcQDR28U8YpuBat5mv9wonqECaucIyTdNYGTWJjdIQGnHITid0JYnTBLPr/I27AC2JL6on5bklhMxSKJRWYRfB/mNUrZVifMmjfMrIZLqhP7BkmsC3BBoTg7gQuCH/HkT2b3DyZslN/QSj/KALMaKqR5ORFuSqGwcP2k3arYBMAJiS3OrVXIK7bYI95NFaC1rmbZcMQga54Zt7ORTCoDe84My53k/3qzJFaxEY9ZDTdOw5x682dMksRi6ThMYnE3A/hOcSj8/RURTxVxG1aAWQ1PZzXoCSOJRdY80IvE7A7WnLk95KFhLpiJeFltLwFmNcwE5KKSWHMShcWYD/EXeTsbSe0WXO/AGjvOYRbxiny/HUL1PU1B6Tp4McyTM6rW+3Fx5SGCLWvyHmSziy2KrBNKm1ACtDw/3fZNP1gQ0iSxSIH6S2JhdgdjhuQaxe521gLrhOIXEwUwi87kIAhyFmDj85fEwuwOpSksu5mABdYJV+lnmP+shoPjbnF0aSQWGl06iTWTWITM1mz6PjK7iy3KqxNu0o8wf9nRs1g4R1InzJP7ljrMlWCLg9Vp1k5d3qTliTTgxUdCCisSae7O4aIWce4nsbjQCNzuwZPOj2A3E7C0A8xCFvA9BymsAklzdw6rSJz72UiOTmBK6pGjb6xmEa+wbl3xPvX8mwV64nCJJBo7ytzRpPsV7jhAYb1h1k5d2Ma5Sz++/B/JRPKhRBLdnYPtR5oG1QtxN2Et56bZ2NHHVtTLrXl6FwM0s7CCkWjsKDMupelRvZATrQeFZdhOXVJ7zyj98PJ3iT55oGBsDqcNsuY+g9pEGAMU1kns2qlLau8Rf6r5Z3ZmdHihpJrYsPHoE+5YjIKFnAKPnjvFrp26JRaVO6uhKeUXhYQhBrXu4ZTEHgAorP9jN3a0IIuNdO01/y6cJ7tWKSMEJJXZnaFYKbcsbJaAwnpjN4t45RgdpZ9c/lfmPGnGoYoQkVQTG8iYCLOxB0A+JzsnngLDE+ZRyKsVv/Y5+yfyZKYUn3tMUpndyZgIf8YTewCETHRoSn+7E2YpRkfpQa75e3Yrwm/JpDK7o9jd7RWY3aE0hTWajR0tJW0vbe3Nf7TPc+WFiaDAF4HZ3TOY3SEbJicKy3AmYCFpe2nJ2hSy1kk5RIXJ7kHA7A7Z4OLaHBVFUPiMGul5o/n3RD0ZlykShiXVZHeaU4Xp2QMAhWV/MCFt/xvpq4jyT+082a+KRYNox+nE+fFxYg8AFJbb8FfCSMmWc/g7nusl+66kMw7/wRWy2bEkqhNi+xGmQvVCHmx+FJZhEquAtL20Xs0+tfNk2fQjQ/8yVO3edR9KtKnruq1tWxRXDqxpFBbXE/oLb6hecJfqWLx/NXTr/p+JtN+lY+87ndSs/YllOb+JrYEChF9qklhkI5lTBj4VlvLWMRDxxJCeN5r/lTnPuWP/nNWwrNvVON517ToQwh1+F4nqhKwFd9lIzO5QmMIyHFgTPm0v3TaVf17muV7V7re8Ekh31FtbkdEKtjMX2igSLxvJlwmFKayFiCeF9EWPpST1fiU3F0mxP3dthUnLCx1JrBjZSMzugMJym8SKHvGE/Sb5Z9TXE0t80ViHdd8OGJ7Tk6ifkCRW0q0LdxykYXClsEhiSSH8tEq5MudHy+SqtwfPW0ttIjFHEoVFEsvhKZJ3AmUpLMsk1sBrfZ5SrsyZX15G9TVY9xQNU5LmfkKSWNLcrxNynxG42or1MxmGSazQX5ewnzd/x0Lz7KIYbfr5p21FZSXC8JZ5Eiaa3K8TckUWeFJYBnVrklgeH2P+5+/12RW+2S3AaavYdfNMfpDEcsHtroUZZySUpbBIYokgnIjJfwb+k8Kpao233XpFZNmT5gpo3rT4bnHbMYnZHcpSWCSxJBiFn1T+J70nQ3GVoNGsqzhIW5PEirXz3KW574agVg9lKSzDDH7HW30y0ZL9A3l2VSUaltTjBzE+gqS4PYfbCeXZ2AQAhXUKw00ubBKr5fB97ayb6E6Vx2PeqSFZkmQqFiUpeal8+z1WPEQoSmEZ3k4Y9vwibNfOP8PSP/zTEesdZjVpyfXN7elmZBahLIVFEus+wu3oPBCjHbgl2puRwu2Ohpbn9v1g9HhCWQrLMPQFTWKNPKW/WR6ZMKGxzGjtXy+mH4VgV3POBhSW04TDwEstwT5yPB5oLHhHgtIxnWvyNHetWDXPEIpSWKtdxIuZIW7ZFv5mf2TETGOhEZv5u6Ui5XG/oAMBilJYo2GfT8gOLtmdY8r/gXSPrNhIY9kEGvOZDdiqPca7iT5eKElhWaYcQh4qZcusW/4P5JEZM9WkoBILr7vGa7wb8PDHQVEKy9KYHPFQKfuE1rIWuQ83FhIrpsTC86PB7dEbFOahJIVlWdVpC3+nJRRS1wcSC3xILN6rxy+c6i0UpbAMe78mws03Fav8H0j/yFBiEfNDSiwuJ1ThrhWLFgQoSWFZDmyI54yQFRQBYk+docKKYH9DfxdxonMhlO/uGAzFgvQKy86RYzgNMJ4zokaB/h19H1mCN8SIndeaP3etWDM5Y0iusOx0vqXXPdzphVaAG2vcUUMh0ckI0wt0qEf5fIkMxQINDqdaZCPkpTrNhUvxtXkqLDr77T4Zwwl8lAmVuFvtpQcBUu8+hgrL8lgZbN6c7KML4MzdMlVYTOkxYzTsXqZMqPQO6+LPkoDCehrDU2Ww/PDOfvA3c6YK68Go6YiJTsqETjOR1AmhIIVlaD8NZniRPY7nb8MacxVYAWa95rQ/W3WcUibU4uaQHy7PgYIUVmO4k8XK24tm/wJUqoZsFRZlQttYOBFuik5E8r1B2lSR6U9mWNsJNXpItg0zQOZ8zVZhPYhPtp+OzWgsho6qcdNySdIYpOncBnzLjTFSelg2ZRNglEWfr8JiDKL1x2PheGcMhxo33e7UCaEchWU5EivS2aUli/I/9s5sQXJb17LWPEvx/197ssr2cQ1ZGRIJggC51lPf292uSEkEN4BN8GceB911OPvvjMOSV2HhvS1SY7GPJyPS7U6fEKpRWJp3nZSUVYrOJigh4jz7Es7rJ2//1hwZVRY352RgOxcSOrdcvBqwxGJXh2iOxCqoHdOyF/yc1T5oEoyfTh28sg3Uop+UaZseF4SzU+Jq+PQJIV+Cr1zQ0DxlP9b5Rt9SwJzj20J96f84mWLrMxWyCFC5mPp07ULmNaQkzndJnxBqUVias7iXYu797NgKwnLa/stPYM6jsbC6Z11LTT+svFZnRLrd6RNCrv1Yu7it2SYs5g440YdWQjvjXilieNsdyKKxuJrQQDXrQ2cJe0I5wZCSLWqh0icEyehhOS5otgmLuZRK9ChhCfncKvaHzvpzH9iKzeSiUz8OZC7l1Q3oE0JCLtPhXtNhXMrN6gMP5WfupK13/86uVVZYRHtj5ZGrl5jggRErLQ1pDTiseKhXNDSHjpYyaFnSN1LCRnCjSts+6Avsuq3ClhBlUGY140rqUs6+xtsBG1+iuj9Tc+hoKWklJyyfprPto1MOm+7oBkKUTbozSmThr0vMSF4DFjhMKyzNoaOFBL2JR/Iwh2ifHiO9NMtY2G7tLrWIXZyrCRMTd6CQPiEIMdiO9pptwjIsLw3b+7MvvH0+p2NWLGNxrt8w4TdF469LLrFWlh3k51E6rv/zuhflAuGSzQOKmCi+pjibrVfGYjqP7TpW6D7Oo0u+d8Ss0XXmAYIE1qPCqqiwiqjcSx4lHCv4wgNNrfPJuAb49iEMFadzxtUv8zQgu863Xtk+FRVWEV53SUlagg1rSlUimnTEP5HeOmGdwosHl5woxwQvCLRlfg6FdSkqrCIUBW3TJ1E2Rr/MvcY3iWHHPC21SaPErFBGu4P2J5ili6Z5bquA3UzSuLYW/4VH3ka5DQofJUHKOkGXtIw8NwViZjYwsgHiOc2nXarTh/ynLZI1vyI2gSNpJ+Ba+SZhpzZplZgciDIj6H6AWTrTmrc/F7CmJDtXRQwIaxN7nJrURVbOjdsnQGdzb44KUWOxWHoQy2L+g9Mc615A2DuonvxMcqfFvK+o/soJyWt4ajoSKyIDWhjZAJGf36MPLs/3pnrXrvuyjaAzqAgb1qahXZqUfiwOE/r+yiiQ5CVmLBZrD+KYHGRdmvMa/LsjGA92+wuXVJDbF7fULcMw9t84hpBgj+HWASsKy67EioiBzPuFKHYH6kN1XoP3zphkT/Uq/AsXrldu+/HzPjsMZ39NP39QW0C5izBln5HN2y4xVt6Oxwda9aFcJVNVheW8cCN573MRJoRetwnaTf/wZ6X++C47ih2ePzP8da4lFrfnQAyDh5AwaCos5153wZuy28K/8HyWu4fT4Cl2FLmHo7BMC2CsWKBdHmr8LY/qvO491byfaS36+J8dIWc2pX0CascMxFIkYvIoCQ4E07noVkyqCst34BOs95VxL5dNJf1IYmF1R2FBPolFlx5CeVbbzvYzF1WJ5drrLjjaoggDwmx01M281vYmUFgoLJ+RkalYEMojo3u+torqxTm+u2PYsG7ufKfVH0YSXYnCojSpm9O0lYdCyMDgI+faVRWWZ6/7htD8mcZspfJB2wJPdIkKiykcbiTWydOD9BWPfHG+U1VYnr3ugpa1MmxYvdkWzXa/981xJrffGQrLkMRaatwSwM1+nPEr0zViOS4KC1b7yjAfjHZD5v0i1kqoQmFBfKYevI8sDB6F1PtxzjPjukYsx3N8e2Tmzwx2O8EPOrobsco4BwqrbImF2x3ShoWsQ3l0J2I5HkAkN6yhEOvBYvgN3/eFXMSqAhceT82RxGqRWCC1/djbknQnYjlOWOSGNRSyqVv+6+7nDVjdnX5nKCxjTBWm3ZBN0Pv5vHQVll9jIzasW5+4jeOi96M9o5PKCaUorKw0tVf1QY/dj34fdBWWV2vxjA3rloixkY/eN2ItBKsC920emy+JxYFCeMboR70rG7G8zniU66YWkrDtplugNZy9qIMThYXEAvil4tG6+bCUjVhem+4XfdI7ytxKSYjYXgotCqsCicXMBkggsRYL9ZxZWWE5tSHJlfoKmQ8wWp7guVVXUiw2kL5QWEgsgN8iw/t5Da2NvbZVVlg+T2+NUn9+KTMuB8sVoQeFWazupgmqHWOu8xcnkVjwkHcGgnP28Tvxuv9ZUFR8NHm1XKC7qHdUEkVRzaVIrJWxWPAwzH81FGsxMxWpUVZYPudBrdiwfsb0OcknPV1y5+LWHQrLo8Ri8ig85ItO4Wnna9q0FZbL23axYf3ybZs2NQ0VSt4iCQtOKCwkFlTB9HkKNpjKmxdtieVQZIjJ0FJsWJPp8uSTTxqru2H2enI4JBYSC57T/J5OH8ZGQh3aCsvhniY206IUG9Zk+ZxoR8GjEMLsj1yFhMSCaujOH0/rDbu5Co72zFGPR33ExmGV0pPqLduwntmjCVFmCRwlg8JCYkFVgWLa+280Jgeaa88c9SgzxFRoITaszx+IlQLdswEkWN3N0tSdxiCxAKpNFCPw15iRGmlRig3r89aykZ2tYz8u+St7z8STcyuxVhIeKI1WXWK5W0VS47BKsWF9/kCMvNaHchiru1lqCS9ILEaPAotBDndCQ0ph7SWrciv+urX0imothLofeXJILAAz7OoKa/HWba+2ePfkgRiRKk/NO9yxUtgmvfLkfEss+vZQFPpWd3e1nHpPUT54IEaOcD2uN26EAJsETuqjKOlcYmGNhLLQV1jO0sxO6M8uZhTiZHfe6PN8AWO0TUKbhBjr3EssXiGUxKAvsXztalOlpbtnD6Rz+jEzPqmsDZr36V9ijUxtgHI49RWWr2qO1O3YxdiwGrMG4wAxPBIBTLJUkb0hsRiMBYXT6CssX+YXoYGj5diwerP2l4B6LL4dk1xVhBYkFkcKoXS6DArLVSlfqMhXzlbeWy0FBfVziQAlbc6cDS1EYuF3h1LIoLBced2HClXl4wdi4q9bKXoUwrxUn8dULrHwu0PJG2Zqmvqez1T0B2Phr9srfy8F0ZDHVC+xBsxYUAQZrO6uUk2hP7mcD2a1aePfwuoeOxHAHkfoKrt4dsVILG4phLrzxUq87tiwbjwQAz9roOpRCnMNcQWJRfYDNZDD6u7okLzQ4yloI//seHX+X7UjfYsh+CovjO5lSayDTiGUWZNIjZ/LCYUGjpbTvuhMypQOb3Q5tNXfm4DEolMIpZDD6u7H6y7URC0nGZssHvyZgzdlxjWYY6OthMTilUIp5LC6W+gr3aOv688NU1jZe6ARQZwAUE5AouJRnsQa8NaBb7JY3d2ckpfRnwVNd+kNvsy9gg+xHtbQV4kNq0SJtXBAFFyTxeruxusu00MtaESxQYXVvFBY5RB8Yw42LLPsUdETwzu4JovC8uJMklFYBVW6T3OdtgvxWxLBw7Dw7NglrlGykAaBY7JY3b2Ew/quCXr8tSx5X2WzRL0bBmLZInwYFjasYiXWa6SMBUVVJdLjRHVUNv4rQGFltqLG2ghRWLbYyWOQWLixgG+/ihFRXU31ulustv62E/VbFitvkm0GNxYURB6ruw9fqszA0ZLaF7+Mocj7p3Vt9Lth5GgpC44qR9kSa8FnByVsmmpsFUSF8k6RG2qxbaPAy0FhmSLilVLjKD2YDjjtwCN5rO4uHDB9NdW6u6rmR+NL1iM+IvoKhWX382JWQ2l0S/SegYwGf+Sxurso7Zy1SMm7TEbO98yj0FeIwioko2HsRg0Sa6UXDO7IZHX3EBNFynslTXOZTBzumfvlhcIqkHCfO03COiQWrULw99lnUlgONjcRhVWiGs85o2Eb6/oIyfVoEiKx/uNETIMvMiksB1539vBf6LM3PkX1FQqrlISGJmE9EotThVBNYItLRqpQWGdJn0qf2eIurK9QWJaI8LnTJHQjsVqBVYsdCzyRyer+WqyHRZH+aVHBYMw6+09cX6GwrH1cNAlLZ25F1i13FYIbclndzZf2RQaOFpVdDxmnuCfQV0wCt7T1ln1qBkQl1mvceJTgg1xW91dbgfQs67q0Yc11lKcbk3yC3Etohr7gajjISyzugwYv5FJY1u+T6SmS/MKeKahNqbyCmGbNsLLIkFjPhDUTSOv6bq5++CdKtGPj6d3nsrpbj4wSBjX6F4b1VVnDynzT8Bbr2SqlCtJorHo2gfMXXb446hPnsrpbr+5LbOy4BQzrK86gFVHCWnl63hDr+aOxqtgDxuXTd19D+lhyhUdga19YHZHf5pry+2t5wFZiKGY6JBYaC35n6/+4BwxOXn02q7vxHU7gD+QYuWF9VdiwMtcM1ImRWGgs+G0L+DIytE7efDaFZdvrzlm1rMz7WvXnVxMdWUxtSHpT0FiFbgH9uy3AicTKZnU37XWXKO3hwQ1fXEvyr48mYQkVDQZ8O61OvNBY8NUGPBaTX535iliG14XEwFGWSRibgr7ioKed183EOSRWtMaiW1wS1826z17fp17KQCKBp8KlLGEb7qjy7TGosoQSFiPNkFj/dkTQWMV8GrcdIouHl57P6m45AxUYOIqTOoBpVPr2MMkVUMJCJiOxftBYOCvr0lde5g3nU1iGnUoCvVMsIs/1lZ4pkIy3gBIW89w904mbAbgTuoCvorw4ns/qbjhCDuzh+slLy5dXHTNLDIkleH4Fe6XzeLCWF8j7jEUss1X+eIWFCfehvlo1Pzz25gKiD05HJNbvcXendeyYo6Djcv9yZVRYZjMOqiS6mYvK8UE8cvZefMx7pyeExPrMnXeSP3llL/FM+JZRYZkdSlT0QUlzX+Cpq69wSBdRwmKiWQFLP40zYER8uyRgSJKHmVhLRoll9PhHV+xfZvBZj+pfHQcJSyhhYbkp4QtIZL4c+Doc6u2QcOAgWz4yKiyjvTSBgaOsl3tPOsNBCyxyJZSweItIrC+/Dya9V/EpODizn9PqbrRfEz+rBRfuree85vjoaCF4zlkpYbGv3txcmELqirBmhgOFNWVUWEbjZLzopBH1PrT2WfQVtwU7D6mUsAqLAwnL2ANTCd3Ql1vKyKmw2oJetjNlnbl+cWby/2FzN/MJkMJArNJ+q8SpdfogrG/k4t6cv9qcEsukIzw+q2Ib/5JpzPbBoX1L2FjRyXwJdz8VDFkOCBzc4ePI/plTYZkcTRStsOhhfJmuZLxHgB4hJSyoSmIxIctBMAgTWE4mtjQ5FdZi8YlEN7CYN/pH5n3N+Lmt5LOUsKAyifURkNFYpjeFwD6ak5lIOWeO2vS6R/9RzBv907d2Llm/Ns4RWmGihAWKaT4aqzyB5WabzbrpGTwMEC85mTf6+a56vPLCzmyGmE4xJSwkFhqrHI5ipIPsHyiEve8+fn4Fi+azGNpm1ldMKaOEBfVKLDSWTQJbxIuft7lTV/iJi51cvkoGG5MAACAASURBVC7YL7n1FSYsQ6y8R1CXWGiscgSWp5nDU959z9zz6MsTjbm/sPGVn4XebRm7KSOOCv0oFjRWfYSOMnB1KjzvzmduQlFf3F+UOXK2LwuwMZthXotKyUCGTqXOjcYqIdfyVcgesu58Y3GPgy7Gf+Q+PUhh0SA9ShmySawXM0jdCyxnh8n6vHufte89VmGRZP+f63gZgRFlhlR3zEba8vyQWLGGATSWc4HlbB5SXiOWuaQ0diQmc8P/Ju9wUQ4fmCXKlcdIMySWgMaiEupZYLnbYvPufm1hT4N5o99l+/iyQ0vOamgXRSrfSlCmb/TfOYZ/eCtA2n//Xw7n3/9fm+//GTdNlU4rK+NOaL8Cy184z2vEMtZTnWP/HLJsU+UrBFZJ0abgxfUhhJoPSXRLSAWug2//7X9ll9E1MaudixkI1D4FlsNT4ZmNWLauf47umVa/dC5L5SsEVimBtUQ73fa9SvWhe/IMMBmGo+/3abJ0vE5PYr0GjhV6FB0Oq4+ZjVhLUQ+jcsvPdq629BWDsGzVKKI+j0K2xGna+3EYTKUh38TWZUFrKUqs10jylYnwLNzlqfDMq9vUAKnYgt5Z8bKZjcy+QmAVmLq+3I/c2KbmQ1jZWyK/FLY+pNaUs4OmKbE4VuhNYPk8SJb5UP1RzBbwqnneqJ3ZDAgssyIj6l163Q2nqz+H9eWLD6W156lpaUosLO++BJZTy8eeeTFbemqxMqHS3v41Lha3iRWBVU4u528v7K5+HJaXZ9pBX2jNqg3UFsu7GwXtNcnqMq9iS6EzcnEvNa6YZjS6i2ByN1bMiXqZrv7SpndXtXpT0boUlYjuYRks714EltuEOXMsaMt5FNXNG536wey2gMAqKc44KTV0hWmrn0rCQ9/ovAbl88hY3vXWR0Q27teCk/t8vaEcIvIvqez+u9mybxeBZYy+8Nxl2sf2VT7r0V9dYVsSlnclrgiB5dgyd2Ves4YO4EX+JXX19DvLHhPuIjRG1IWExg2OlYirH1tr4550bKl21o/lXYOYcXiub0vJnRXZiZQFmfaTs78QWHCbqHay3eJw19Qmrn4uZ6WSvuqNFaa8J2esNqDnPmhv5tuOVFhtRatlPizHfjLSogrlq83UZeqdHxUU6bANaWSWvnflwPKedMdoqxVYcXdZlFRw2Av5OxQ2F8t23oV01Fx4jfpe7Hlc5+tsX5BSZmWwB5/YsdIVe5eKd9Y59/q08iAiB47u1SyX3nK4bxmDZY4zqoGDunIhs45e1JuVQWItPUvVYBXHf+kid8fHSo4auaZr2dk70xvMQCJq74uJeqOWujdTj7r6sqE77mJhMEceh+U9SVIy1i2wspuWrZzFjhzuRAHLAGShBmmLeKPbfuC7upXk9JdImpPFvoLl3VhKXoL5Zsu9JOcCNgJrzYxUSbzpHH65iGeFaXIjNveJ1uCz13b08fft5HEIY3kXLuAstQusWGkRj5HSbKRPknJvdgsWsdFiAhcVYQ1o5vkaKV4FJTzDuUeVhDIdwmLKu+DiifMgFXJ8LHeb0Ej5pww3mdlsJDkn8cwig+vQMDcHUimunPXtup1AzZJJYjHlXYprQWD9lf80oQ0za1fA35C0UWK7T0KHsMT0Le+qQl7J1rOe65Zco4QWLO8S6+d8IbC+kzuOmBh0EDdwdCl8sXSD7Qg+0CG0GWSjkticNnfklQWdlW1aI8cK43fUyLGJBR1byj10tPX/EMo2um+j8dC9E88KTN4y2tyvET1kQmfl25tajhVGZSixCUpJEpc24V+xYwhKHhNgXl8xZdQqcffK59riuhNru4LO6ps76zZj+s/ohoiCReQSKsz1kXsLtVCCOF1uBgrbjflsniFYZlO3qDCbZ1DevDOYQTE5Gt8eN8zZYRnI3cI2jVhTyVLYg78yr7PVwDOI+yZKPXxyDeZjNEHQLFGNgiXHmproDmYI/0c/GZVYrxGD5/Mk5YwO6sU99dxX+RrYJQfvEjEB+2o9OHOXWLGJm35he7b/vZdczfpj0zCvTxiN9XTXiO6xH+UVLM7My8vALCOHDY3kmA/LHCG0nMpGLSn1syMbg0UNeLMmexILjfWEZi1BDchHF9qE7o1k9SmslRlYlok7TKRc1rbfDq+F4bysSSw01l2m+GVU6Cyy3O7O7G3COI1ZptG9sx2KmbxsmrgeoW73t6E9aEtl9Z2tJgsaS0lfvdZCfbW5k4TshcG4gaOFLhgahBBKXI9QcxTW3NMeNNgxHJsfv4H8JxCY3aCgr17DTDwss00YlXG3hS4Zww1Cwp1x4nqEeq8XfWWXdt8MSSw0VvoycMEHl3J/wLlrg1EDR8cyvwmzCosrLcwTdx+h2smRjekMXkTWSOCxW6DpRfTVUrKEze25yd0mjFJYhRrdjSqsBQOWebaowpDWKCz0lQtT1j/tQhMvayX4/K4dhE7hDmU/2sxe99xtwqimRqHmvB19BWHEWTJ0KgVzj3rx4snazEisf38M/LOKGinlUPrlsrm97p3jLaHQT6JHX0EGba4yCgv/la9C1mRGYn38GMbE/IPcDenl382R2+ueuU24Wt8RUFjoKzdtg7i3rFEj2NFXzvjmgTrM/JidSCR6Q/pZwfPMnCBkbhM6Foe1KCwsEF6I6xsonCe6mH/lUWNNs6Fbuce6TxZe5yr5Zmt4ZLnnumftbs/2bSOVKyyO8bghbjxk+tEnneX57cswDP0H1/Sdf6Li9vf/9PG/H4eKp88PXWspJPWVOrLmRvaGqaOS1Dnzys1qdIs6NldqB9mQwjoYReOGyCOoqVfTfBqUDu1w9P003f3bu2nvhyrrcGdr6uccTW119fmSfgX1XH52ZQ4ybncFJHfitP7k9I6jEByX3qbuEdoyYLXD2V9T4C49T/tYncxajRnolrEe2/t2JRC4Z0UaNfNqzbmNxhx+KtXobkRhHbQHXRHnRk58XY6ZBmF79M0k8bfOooYYQGT9Qc33R4rvrK7LOTLPP8rZJoxpiJVqdLegsNad8pUvIqe+JA24JhqEw9hPwh/1tg/onMwiq9h24Tw1/ZCqcNjXFRwzD2w4Mv7pMQcpi62x5A7b69n9Bb7o4mJI0mxlylzsWYb+SvVFyw1+hFDpvJcVrr6Z/Y6ke8BQXfqceWBDxiwg5kMqVgZkVVgt8sojcft8yh7hnDW6fYir1NvJdjLjK3dOODaKouHb6dKm/87wI8ff/7vm7/Onj5ZU9/eB1WFQ0OtLhfaPzAMbGpcbw1Ls55BPYR00B30S2YZL6GeZssmP5dAqbswNliwDKivd696+S6pzCJnY0f6uwT44/v+/014fZ5XTDfPOzB3z/eEx2Sn1COFsn8kMXokc1JDOJ5DLgaWnrv4BjWWjY3g2Yu+9+1ZW+lBVRb3ZYSNCZghHLhVWuWY9/c7guNMadEykkXNJltV2WXan9syRKzT0Co0Qc150KlFW/Vfnq/dix7x2yWzPvfP4owtSWO0wpjMBgxaD0eWfY3Rum63RbXKkas1Cazj7/f002W8WqD20BeiKpa84RjZZH322uQcxtbtyy50JcpdvWd2/ad00BVgxwS6R015Stds3/R2rzesj7DhXaFRb/ON5+sUEVVfV8aw74GetSma7/TlCWJZrdBdWWOt5oaVKpovcfRKJkkt7/1oNXEFAGQtsctR+hinv1NFcTz+ijVCu0V1SYS3MXiidOTI5SzRwWFtrHDZcAxduLLDHwCmmvFNHc411j1BYBfeU5bJ6Lr4pn8hzyGkylVm3Q7iMZjJ0OoWAvrJIn/UVZPqjI+JwwacipLYd9BXF7zzl6041X1x7S23wWUJiLcMvoNuAPDtuYWZ9C5lC1GBsZyhJYY24ryogVsskKQU3VW8gwRJrHca+/+rw2/dRAuPAZYiAvnpO1sslMlWEwreHgo3uIgpruVhRNeRlkbWNNsWP0rRgLbu3l/LJqKVlOPdnt1J/SK1zYMgpoK/uk/XqnExj3f31NZ0orJbbb0jLbpDgHISqBas3Waj9XWKtw7fq1PaTRBq/KaT16CPGpkxNj84C9JX9IlaeeQ0RorJgo7vAgP+WDmEVxLbjEqyiWdExZPYE+o/nltqz+ZPReBaZSTdP+4hNC9BXpotYWQ71R2iJgptgEwILbhFrwmrt/aQnO4jhE1J/zyhbDr27Pqf+YFAE/NfkwSbyOzkdjFnsDBFaouAu2ITAApVykfz2ryiwbFex99fQq2etW0MxC77rK+YzJGoP+fI1RUyo4DP4IwsCqw5ibQXyl2XpHSIcMBr+QXZfJ86syhkZM22wiOVLYZVsdI9VWCyvOoiVM+ts7RfdTyJ2Xv/XtSw6hrWynCQfJotYOdq24eOoT74Cn90TkKKLXfHijQQ1gUUB68bnsTM2q0LWnQ7GV2TsoufQLOExoORjEnEKq2UV1dENWq0teC2BRQHr7idyUcqqzH7F8UErWaCNnTlcUJbcCYtTWPQI6yDyOkL5HqFW7KKA9aiUhSsL+xX8R8blkKG66Ms15kJhjayhKoi9jlC8R6glsGiCPxZZOwcMaQ9C9iJWhgJjeB6LwvoDJPh17JrWTAFKgaslTQ9hQ2SVzcH0K/tFLP3qx2RmfyhGYVHCqoI51l8jPdHjUjKLkqcjsuDX8lVPXu2hiKV/cU64lCja0BejsFhqVRB9TEw45dUZNMpt5pFvyYEnax2+gRikfFVgEUt9dw73khTdK4hQWJSwqqCPjsoeBRYWd4E3Zfd04dBfP3oDu6s/MOlTvjIYPf0UhsL/1KK/gAiFxV0JNRA9Nk+4Rzir7IRY3GVoDoNC4fw8cm0Nly1+lVAT70PCVbZPSr0AcganO2ygRhq9oM8WHSFk+wqzRk9nYTORe2G7qeLQcn7ZkrhGpNRntA2mRGdFLPX9eXCjBZ0orJPVUwHRgka4R6ixAw7sJqLY6Rau71snc8N4erqDJRSxtF9a8Lope6hzuMLiKHsFnLHLXLhHeCpEJjqE8ttMY8FOvty0pmw7nqz/HhqjRZ0WsbSNWNiNZBUWTcIKiD9sfBn7PXQIqy1kPZm+MXEF0N/yirODbotY2s03jO6yCouThBXsitHB4TD2e94bTugQpitk5SwNPZ2+YaPslhVGM7guYinXQLbgkIvCMlGDBP0tMXqPke0RKhwjxFyYNtpkM5IvAb2uruZC1oG3Pbf0iEX3BVKrEX4umB+LJ/6kvWwSnNyCzJTR9NtNv3gRWPUWspYReSVIrrRCN5oF37RRuO81VGBjwyqe6PuehXuEyavt3EOoQg7VEr7ZVFfIwntVShFLtyAfHJ5LN76a2DyhoOpmoh7hlDogjeTtWp+W9hzSqGg1V3S08E/TWMFhEUt3kmewwio97FLag0/3lfjU/TL2e75m550rpvW6laHY4uRUxSDSdqeIW1QRS/WPDM2aiu+GUdqDz4hv5cg6GBObsBjSoK3ge73KkEAQ3/qyC1kLzvbyiliqMS00QBffDcPoDp8QP9pzFY3Ye9pY1PI966M2vUEmiF9HqfKqpTeYlinPe1VtNK0efqQjhcWqKXvzM5ZAdViwSuTSuaFGyvJbYiFrORqyC7MFHksnjdIIiVfx5yoCsx4WTckIjPYUPciS+L5nLFj5snuNvUfQ8ltWIWvocV4VXMRStTiF/sji9b2HYwqgi4Cgke0RJr2OEAtWVrb0JpVF9PcWUshqT6YylF7EUlQvk4W1WZDC4s6ckhHI0ycLqxcLFhrrO8IXUFyjf3VFX1yVK8t7VtTQoTG6/FpNWELGsIaCEXCVy/YIUxYNsGBVoLHETQ2Oh72jrhzts36s7ruFnaKg8iUKq1wEKkatmx4hH7IN5rS36SRw2nnsFg49HfFMNFnet97fFzpwtPz7jQeeC/y01wlsdaL+2YQ9Qi4irERjLUkc3d3pR2StI/NEqytiKZqcTgtbRUEKi1SoWATaH6KFoYQ9Qi4irEZjrYk6Yx5E1jL0E43B3Ow5Xr2exzTUyl/+i0dhgUQuksz1ku7C5+HGttNRrS1DY7XJNEa3t5bF1cVJDhvfdo4bxPVq9IOFvQKFBdYRsAvIdmTSzRq9cx52Xhc2KF2Nlep1pxy/OF/jiriCTKmiBZtpwiDsnBGFBf/pGYFES9ZVnGyQzK3i1JGy+KHI5KcUl+xcYeJgvjVmVFY70hY0mDwUbXW3cwSlDGWNwiozCLTWFnUq98K9QtteRpo1n67uV02lsdJr5Q+Vlbdj2B79hbmwqGKGD6v7FvgDKxASKCyQjAGyXbVU5oV7Y0anMirZzeJtsF8ijaVTjpz6I0MxaxjRVta/6oKt7qEHvisotaKwQLJgJOutTJT2HbcW9v9bpq5L2d2g2y6Q/NV5KpcSmcG0jzoXpSzD0Tf0BF2Q4U5LrY06cGb9WsFbR2HBv7uaOT9xolFY9+YI/zAmwu+Bwn+rQf4up0hzJ7SqWN6m/RzWdMqqn6haufqky7W6B9r4B946CqsaJDpywmOH0pha7umlnzxpTiXWfyfzPF6wOqUQJ4d+uaeb9v4QUlrDd2E1cUjQJfomPS3/ZW9bAKKwID8SNQPZ7yLJTRM3O0W/mP49Ngp/mi7l8pNsEmisNV/smqar78dhGB6Kqm+qqr8meoHe0b86R2veVGADtIY7NVBY8B2J2/9kr/FMYnO/53H//VSlO7v7L9M7nVY9UowgPU0olW6aviuuz2m+/d9SqioN/SMQttPzGj7wDoUFfwVbFVMmTClufL7ZJPpkbIUvibWNSxkrNsWYd66jhEwJg7rCUnLqrab1X15QWPCxIy/mVnOKw803i2yfzgVzNHp0GgPNZzbFYoLZBljEIUe+oK6wlJIJjO7Cz4YksLCVL+HBFPYqJTjb3EQ9DScXRc9Na99T2hzfJP2w32oTpBjdMGJqAn3Up44qrXsLrpKiFFbPWmHhp01I5I82352G1LW5xylF0I2L/XTxh1OCw/Tw/4PY19CjsUB9eZZ5mHAykZMbpUVhVY/EGZdlNvBdCnjcv7yb0Xivbdv/qEQWs5/bvWpSk8CORRQDbQZlhaVzmDBQYU28chRWFYmVxO4l3DgWP9h8dxDS9eXDsOx331ofx3aaION5Csv72rD4wV0ya89Mvhv+bT4V1sFSKYdZogUj3VKXbgudQrFisNtbmiQ8aOm5QhO2FJb3dadXCJpoD2xQyazCzkiudbzxoDPxAyulHCQs5dIH7aSPNd/1uL/fxFezZqyv02Mr1bdPT63e/HEpbtLBjwWaaA9sUOnEhQ3WOXjjKKwKkLjvWXrsivCw0bsW9e2O+WtpXK5kK0asIUr/XQlKAMvJZE9QyzBKPEw42P1pThXWwkopBZHTLbuFjzLa4z4triPD4WHCyhTbxEwx5f01Mh8LlFAe2KAyESFMYVUy8ynsGAALpRBEqkWDxR/12OPei/8XdXlTgLPRJhyiq6Bzki1qYMQfGN5wzcTmTzHR+CjrhVNXLwQJZ4v0oAbZNO/uHPcnT6K1+P2/+9Gz6Wjz4Fh5l+TI+9pgyAIFdL3uq4XQU3WZhosJa0akHSf9MUhaFe66pqZnZTODw0ffPjULzc1D5uc1SXappSdxhOTsqgrrZSH01G3mTnk2C0osYKbu9AuWsO4qodP/Cnj7Lpf8NZpN6ufNSexYr9eIxoLEKF9OuBkIPaZPN9tUWIwcLWKtS2xT4lODBUtYN4dIdG0BS6DXl8Ky6fuzB7odaTakg/I8pEXX667wPV8mjkeZZUB/1oqICWuzG4BufqX7q4Qc7MZjy97abCUdI1ObZkvC9A5J0b2cUKHY3luVfo63WQZiFYCICUt8O9qUY8s2JBZwFtTLPxomc59wE/6U9jStQm7TgdxLVQ6FWnvYRlLNwZKgeawMxPLPpFgmylDCSmfB+i/PsBQkBLumqdilv6U5VcOFSe+QDtXLCRXywAMJIS9AWSbekTFhiW9EUiWs++on4r671s4+3Dn4wYd8zE0zueHFpHcwHnoNtZtogyUQ1PhBvTMo1olS50ORtfHw++4Ob8u4zenFShJUmmTbFZPeIQ2aXvc2/Z+zJo/QrglrFuFUqLJ0mfwrkJl4vD7dq4O3aTNerLvNzmW3G2nCgu58psv/SSQhAape9/yZU+UKYnuhQOvDqAlLprIWYKKZQ2tnVhbC/Qc35CrNvD2zGVoR3IZk2xOmd0hAi8KqKHmx2t2FdBg1YYkIvzHsZ4WWsS5/qzjTXM23Ijb8ho8r3VUk647pHbSTDUGSSxmuNn5DUHBaWSWeMWrCEvhd4UajLiyxXEw4oh9Woo/LZKCJSBn6dFsUt+mAdIZbvcJqK3rbAxKUFMpGIz26hBXlMgrsFJoo5z4eq7yM6iLr/Y+K0ewJW4XcpgPCKHrdk/e5g3aTo6KXfdpUxpAMEaNlCo937CY5bDningUrVlAJpz33Sa8FNqUOKglbhZjewVYuaSg89V6DpungXM+tQuUxS+xEKSYrxc7Civ8mw0aXGChwRGjTdhjG/hvX9I1kPvgmedqWslWI6R0kWctRWEElmpqupgq7t5GbCd0iMXIqhQkrsnQuMuopSGIZ6BPKDoVqPzTXJa0be4XNIGmr8LUy6R2y1jVM9uOC1lxNs+bCekYcJvSKyJ0NKfL5uBLWOOd7Oo3PNfxORR+7ZBw8VNLtpK1CJr2DiWBnaqcOUlhVvWyrYzYgyWYsUe44U/yymBLWIiZyQiTWkru2keyms1VOUgwqCitxq/BDyWPIAp2Ew4nCokDzjrCsj0DjE4lhd0mO2sZkdatgsSVEreT2bZ4JI3QrJF4XrceYtlX4sTtgyAK7SdFv6Z9FhVWXySgsIGF1d4nEXpxmBFRECUvWdj9aeSKpl/Dtv07Ef6QoVK/EPmKmkIJGxiFD4r8jKDOu606YsE0Xq7tHRE4JT2YWappPcXS3GpLnwfEaa9bM2lK3CjFkQcaM0pTCmsxsIWYJmz/Zskb8IXJbTm8s4Ij/njmgk5p1w1W4STZaY026cTd1qxBDFphftCrH9oJmEdSVnwTWNSiU+0PCXpnm9G94CSuBK2Z7LkSzFrFUPB2R86Am7cz2Sj5yqMWQBeFojcRKnAkElYsrK2yYfHFgpVr5y0abRlmHlrCWJLvc5CsrO3VCddRcc3WFlb5VyIQsyByNnSqs2mY9hbWOetaIMyQGNSxpas6brZ8TEDZyLodBKVbHDB1rMmS2m8KD4cpC0I15T0k8Pj2kL1KbiTssDjFz1BsSgxoSNUZGWwIr4FnlnIn1UiP8au0+g8LSaBV+BMKL0AJK2sReKWSw95PMEVhNZ4n4QqKXdKb5aZs1gRXwi/KNL+leigxdsiCTJGfrFU7FM70BAmiKUFghOczEmzZwRgFkkRjUkKpuOVoTWAFpx1p6pP6/yp4TPc9EZyg0SgULzUJ4yryUoLA4SpgsB2bmqKvlLNAvSeRyDyxhJRVYAc8rW7Po1FVYYacL+nxbwaRyaotmIagklsbsPLS/Ej0khUu7QRCBTD6ZpAmKNEviUnPjZj0ML20CThX2OSVqr1It4GQhPOIqQGFN9jSfQcJC9MISqWsxpxr/E1bCSl4yeFz5yFX7fmXgePrH9lmf36w0QXvEOgEJQ0wZCqu++2AC2wxEEzdItPzPVD9utCT3IopYmU7IdK8sPHQevVdYaY1sU6vzWLgXGlJvvJYMoiEm0PoGPQVaZTFiFV6l1EmFNpsC63mGmcnrfr1eDjTWe4WVusvaKN21u/S43sFQcpT0TwgZRDDxojFilYXA+OA1mcckpISlUmd+HDzyeJ37VzaOSfBXJk/YZrUjAdxZCEmSOHsKK2RNVZiBWHx1IFclis/e0x3c28xq+9lHyjG+MrLeLdi8F/kKpoNO7VAAdxaClewo6V8woBtSPaYXVxMW/np1yjMBAqFVOrP1+Pzl7PTtxomJ8/pPHM3TL/wrwN46YnUOzlxa9+2+lpNmISRIL235pQOiT423wQSWz7ma0AUCPcLeUoxZtLaux/7ELIWL5WWdZTj6t89S6YDR3Os9r4MUFL5G4/zFZCz61OguCjTLtqwQD3lS/JaScPcbjUWMn3ZjFwviVQZqJrZNsa26NozIgrTZb954SWEmabGS8OGA+C5Swq5cwJeneIT1cZtw87N2raEYSybFxirNQsi8ei9jv7/Kyw8C3QnYOWvIkpaEm9/zesJo+dllSM+mMgSWbuugWTX/NJqFkC7/zRqUQqJPlXM0AwvnIyvEOl10jzDl/X/PF2irWTd9PMYkw0isQhSWcrKmacfiZCH8WevXp7AodDzYfFkh5edIjaVft+gmQIv9/KwpQ2GpGw421SkXC3cWwqdS37fCChg3sVb5nkOHy3JxTpnS2WwGpHyPwGMFeKq/4b4IgZWjGj7pzrngzkL4hCP5h3faij5Dne95sbf9gkCivpje+h5vcdoHfR8HEP2qbhkKK49VSdWO9bG36Hl8v88i2/sf2L/9bxB55khfg04paQ40Q1olzbwG20Rn6Ulf8OMhIYt2q+X5GBP1gzJFKKxsnYNed5rYmtSQ9U1TncPwRja2w9D3DWLLCLNrhRWwwVR6nXFoN4mjyCW+VSVf+eMKgnql4/lhZPV211iCwsoXdWfl55fCkLV9KKvh+V63DGN/IbScFjdsKKyAiamVnqwNNWJxSMYw0T3CtL7yx/VxfZPT84F66mW2oQCBteS0gW+H8h87yqWl89SPsR9Ae/QTNvx8JG8TtpbiY71DNAM344MVYpfozTepwJqffnJrhrXZms85SlBYmae+TNrPUML0vl39INfiXD9kFgEzTxU1+edmS2HV+p5Di+VkP2a5YldmWrHw2ECUYwsYzOccJSis7F4DZcv76zVEfczTfqT4we15Ec71OfwqrIBxWEOtrzm0VnmxQqzmRrEZbm/r52UpdPTmc44CFJaFwcX74kRjTX3SN47KcrP1+lRY1Xa9NsfRESSrkkpv9unPy+PVCVBYs9v+ggAAIABJREFU1kd2UcL6XPH32hrr+aT3xOrq/+Jvx/+u+eWlfp/pImeAOKx3wFMb9vYY626U2NtUEldzHx+tyHOmIqDTqjzBxL/CspKkberHMp8Mb9iaQ1ECrie2LDVStwnTvcqABLTeptdJm7CoxCjSqJH6/r/BluCT1Km6BQD/CsvOxBd9jTXc+1i6s1V/LctIaNehcauwTks/ptSaB21Ck0QOokzdk7tsy5aoVaG7Im4qrNaswDIVQNSPFb7OtyvtGpdMr2YZqWRpZMNuFVbAaqn4PQcuY9qEFukiQ2tqQbN62YbNr4ibQW63WutajBmr1TXW+tUGODfZ5NW/7UKGSifnqEdhLbxm2oQlEFmySC2wejfbcMjTU7WM3Qxy07bYVFj2LtGYtOt9x2yuevWzI5/ThWnZ077AdOby55/nUPFrDu0G0ya0R2SPMLVEeLzb5zuAYvCQQJDCmv/qTEoskzebao/HWj6TmdNo5oUtI4cLk8ZDrwoLtfCE0G4wbUJzdLYF1uNy6ZoviTZZAnyusL4t0tlio9Do1q2tsdpfOjnbuRpTwtyPZrflkEthbZbUngNCAzBtwrIWbPLr/yZzkk/4UY7mVu3fZbXGXBnLbsDV1ljjf1nE3FjUwkuPIysVu89FNiEWVF4zbUJjxPUIk7/Ox4MkVm9ph6ZtbHiimvXHajrsEWbSWEv/91fTjUYdcx+hAY1lphhkIaIHKKyJ10yb0DuTbYH1XADmbFCEVRN6az/wP6NPY2huw2J8x1bXWNvc2B2r8b0WyvgGg12HXL7QgFSe12zStwMpS0Q/VxWSl18eC/mcJaxAhbVa+4E/bozdaaVIYr9l0KwvQGMl56xEYVVejQltEx6sEEMctgXWc82SVcAP1pOOez/wl9d6jRaUgwvXKxoLjZWezqXCGu38FB8Ed4OZl2JoRzAusB7L+KwlrFCFtRr7gZ/E9D53P8qLfxONhcZKzupRYQ3FrvlUhMbcnRViRiXHdICWzuDvy1vpCD3V1Zj6gZ/H2Pk6WwTWDaYBVYXGSkrSGzHt6IW+8tcc2iZsWSHeRbKSwHquWDLfqhK6t66mfuCf+/jz1Q8ILDTW8/fHuUJJLo8Kq0TnZVqCr6Bk5K8RTuMCa/e2EwfvrI2lH/gmdeyaU1tBnN5WVjeiqn55hZhDBFmqUFjVlz6PWuJloUSZsBQEVkAPM3OqHDxbTKv2dksa3Wnjb1d/aDUNF4+57GZ3UFUeFtwh+bfejAorwJ5fvSgP3aEZiWUjz47ZAjSKLs8rJbkPn4RPb1WyHAyyqWN39WPqeta/szXdYW1ga3Za7FgmkuM8umYyo/UchZDF8PYM795ea1xg7f4+rIj5+DrVt1ty6Gl5cp6+Ca0k55uW0bUXg4OFvzj8sGMJBe+ELymRDn4uCgfec6jZgEfn+OVpKZmAElv24miEwtJZE0PK1HH7UFr9ICa12nH379jE9E6rMAWtO4XVIxNUCn943Y2wGxdYITEku8Ev5o5HlWJNUoX1Q2D4prXOYQiccT+MfVNMRwlD1s+6mdifO3x7UVg9rzl48hnXP7sVx1oCK+ScY/YeRIzCUjG7D/qp4zZ911t/K64P2s8k1TfGj/8311SgV2feaRb+mAdxqlCgwu9OYT3Ptqh3Rihp+vGZE+uIvFqlUhQy8SX/oLUYhaVynVQGhQXfPmeahT8Iahzv+Yob2YrpgxWp5ys7M350Cv7w3iLa+Cr1x6BDFPlzniiFpfH7BysKur6c5qRZSBlLjnS3Pyfam59//vST/wq3Sy8ssZwcxgVWmJEzf2E0TmEphJSB7CcfDYUsylhiVVFvCuv5D+El/xVh5yGM+8x/Rrs/8Mj/YCMV1po878D+kLeQ1ePIYgPIpViyvpnn7S7GZn4nNGKsPLp8ubR1gRWWnxmYsjZFBrc2tcTC/pCbjqOFHCqU4PClsJ6HRvyg3wn2ujN1NFuMty6wAofNGzg9Eauwkj9gFJYBLkTW9xoFW0CWndeLwmLgwN/Fv9BgQRErl8BajAusQBt+a+DZRius1I8Ygykiyw4HbtxwtlRvJU3tiHFYoQSPBieDySOJW+MCK7D8vVgQBvEKK+1DvmWGYI0gsrQM76j5cNbCFRYCIVJKc5wQgfUZgTZ8E7FaYg5gysc8obAQWabgWIV2oMyksJ5XYnArRJUcqAI6KzlqCaxAG76RhEciwo3pUg8UljWms/LThSOJdqg+d6Wwnk8qYSr5k6hNEQuBlbIKZEWty5yySrYwrmwBFv78ydctslp20pzBRisAPO+d8ILD1ek/MDxam928wFos/7r3yHR9knnKehQWIsvcmULMWGEkmteQ5gwaR+HCCR+vRPbi5U0pSZg5bKNpzVRDpaZ2J6rJobDsiqyKPVl4mpXz5QzFIyOlNJ8E518Hzw6B9aPACrPhG2o3i92LMmy5fh6RLRfXWKvEwpIbwuZIYXWIgyw7N8cFNLNk6wIrtOxtqMsgd75nSbHr3FGw9O7zMe9tnRKL6ZKqpQ19hTWhurO86ZZnpyewFuvhLzCFt9Rj6AUDXSuffxDZ7C/TOruFDB/VC5g5FNbzKgxzPESKWDxGBFZk/cdU+juJhrpTeNvpUFguClk12t5bJNZjLj8K63nqSX9LpIjFxAYEVpxMt1UG7WRj3XLpR2QUloGUdUBiwXstnuZNpHBdoLByFbHws+msxbZQgWVNoktHO1HHe4/C8sI0ILHgHWlceym0zfPPmbcrU8RCqiKwYjR6V3zM62fdMIfCQmMhsXzQo7AoYr1jZVkhsIKbmOZ8fAnMp6tYqxBrJBoLiVXSF+JGYT2O7wyNEStikTMjsEIFlr0ec5Mi5Am1Cq9s8RUC39iKxILYnMmCwnqhsPLtLFyagMAqpv7Zpdl6RE4Vjigsd+wLEgv+yOFEYT335DOW71fCK9oMxUJglaPNE+2Iy67101BYtpbvUZfE4o0/EuAp3kECnwADR3M8Qx4mAitKYJl0DCW7+WSNlT7XC4XlMrJW1Spkuvuj2JniFSTYj5+rA+6qFCxi0SdEYBVhwvpGk27zGeLEz4HCcrqGTyQWfM7iQ2ExDkuAiHsoOU9Yr8DaQmOE0WG1c8rd59jSr09CG2WsrFC9kE+b/Cksqi6/E5FpYWuzJrAG879wqijm/SB8gzXWiMJyvJDHiiTWxfu+TeNDYT3/fHm1n0SBhUVVisDSOtMT/gvPmmKegMbqXigs11tpPYcKF+oX4pXpzAqLgaMiRBxs4H5CBFYhZ47m5FthkMZqUVjO99K2GonFzIb7JOgfJ0heH3+7jMOSeY48UQRWcYcjFBo6zzXWfSMECssq9Rje2Q1yRpsET58vQIaYIf6MbEBg3cfy1S6byh40pVqZLESz1NMp5CO8/U2UqbBwZssLanJnBFYZGY7OjMj2wZmrJxMx2Nzs0lXTKcSYmy+fk4+uHRJbatOMSLKwYiGw7n4qm+lnPyntQst58zk8GjlGbLO8rGuZ8G58iRtidaCwnkdE7p9PULOk9YrAKmP5DWob0dDceF3TQvZYDH0lEovrc24yOlBYz2UBHa0UmwuxHYFVhBTvFHeiZXzXUOlZhSVxOTBjteM+TR+RpJuac2A3MFvU0IqvjHSXY4tZ/zTfEVhFNBB050N+iKw/v7ZrZWcrC+tmrKH5ZYFeY9CmwCZ7b8d1UD58rrB4r0mq2IyakwnBS8kCy0OLflOvMwz9ZxvS3KwGMlgQXj2GzVhL/2n+0wRUsrhL7R7yRizxn8jAUUliNk9GzSGwilAAWdwyw7lP/73BedqPYp9v5VidjLXsf4wg0/Nd9uBF32EsUGGtvNYvNviYd8uiyiiwVg8Cy8mVoPk6OevwHQ6clIzJyVhL/2UAmR6vCVwjt74F+wprIQiZyd+ZNJZNYGn1aOMElhObUPfyCoe4yl7myRjfJmhPdSEDfO6w2VdYpHmZa4I/0vD8EFgFlI/9nqpnEXlgNuZ3b+8Y0586yGhpJKkQaUeA5xqQ4zZfP9CoV47bPUvF2IfAcnTAqEVhQUpGSx/N3S3x4awJ+oQ3OKxHgAmFZWaf50AhAuvLTkQN1cTMME27hjArW8C6Hz3mRx0OzhPeYC9PYTHSPaWq5kAhAqsEY8buVGExh8iNiF9tfDHPzLN9uv90pZ+B9QjAwFH5jXRFYiGwxAWWs9TG6R1ydGb8xNnBwPeyPN0OH3UK6Wi8Z0FhVUfc5bcjD1DlO9b+oGMFlrNjbvPqUmHhgahj0QtxPM+Hn9TeOFX2nsG4wnqealJjSbzykVjPiTC+Kp3fjD7+5C2z8WnFojHjKpfN+40te+pIwOFydZktHWcZ6W5PV+N0Q2AVoLsbjwqLqoGvSmnOTmEb2MR7MLaBoVjvVbZxhdWisFIs/LgWCZkLAuvXULtV9VqywY0VlZcwHpQ7Z4WVQU31LcYVFkleEiJPOCCxyhJY8WLDpT/I41QslpO3UJvnK1sunXjA+BDlKIPC8kFj6zWXXC+MWGFaGWK0wPI5Gmd2aMXi+Ja7ryzHVdDDphQR2G/fIfz6hU8TP29iMstfY1Nl8qiGwBpdfAuOi5oOLyhkXIM/JvUy1q4XE0i233CZPk3MSHeLOz8SC4FVRiLrz+1OfPOIrhur7RSjApeRv2EzHQAaIlCyvX9BYiGwZFSG3zzWndudrozPbXZwJ8Lvhi5MuW9YLSus59qfUQJ3iWyRILFuPOIIgaWVGzZV7/qzN7f7wqryyaQ04nbolJcGx1vfcFhWWM9dYrSFtfZWJNZbgRVRJtS6nUhiXMs7V61lG/zmze3O4S238VZBYy2CFYa7XQ6KWF+zW1ZYAworIT0Sq3aBJTHZ/F07czQdgidnCgurOxrrz0txzhAcGDuqGWGyKyxSvAeMSCyb4kVr+oFIBWd795HZ9kb2vhQWMx7RWKkbhP9yZdn0i8Oywnq+AfA+n9AisSwKLK3nKuJCGt+qeOM+rVAT8jTl8Mlzdsu5xkrleR8StG/uZR8UsdIEGA2F9UJhmd5ikVieBZbI0n8TXkf77uzAU7Xfiklzr2/jYjvzHhpSCPMhTSv+yLHrl4bozFHZgZ/PR0lwsEFld0FivctUY56r1jMd0+dUp4fWfdBMwH8buc2qrLAwYvmPurvwRzOksh/fS8EpYsnHF52D21Pmf59aCxIrTGDFPFItY7jIGZevg2vjQxScUW/pGlQV1sjyKqKQJVb9XMaEMfje/kARS7ZQpKZwLhSWfYnF6U2fAkvmiEt/55+w7s6e17hAM2lqLCZilVLaEBFZbTPnj2UUsb5kMauwnh/z4VpC/Rom81AkBZZWOtiJLPsvQ+v/W9Dm3dnP1eYvecWmaHqnaozI+rdVfab/GG592Qz6/oqjIIVFuVJZECCxZJ+nVg9IaJj5l9Wp9u5Ah/yM0XFOT2Mxr6Ekuj50JbZnZyZS4H+W1TFaCutAYSGxEFiG06qvpNPp6AN5euLjs9b4pnSwkN2sMObrfNpmXo5GLWvp2AIimcwqrAGF5UNi4b6VeZZao9ylbnIYb4YV+837XULkKA1v4DRhibvwPt4sZrVjo9so7pH9kRLarMJ6bkDFdo3EQmDJpKVxJayf3eP2nbCPYs0fM3YVjcViK5Xu6o/hz1/QcPRNjh1uiFkSECJklBTWC4XlRWINnCaJfo5qJ3LmJf1WfzhzwjZSL0phQBZrrWy2adr7vj+H7xwf/8f+mjJubXcu1+IU/xcIejRFjxLPKCw/Eqsl7McKLLXav9TZli9+8OSuibCKFZGSayy8EKDKztab/PndRfJ3TWR3jiQWs0cjn+Hkbb1/kbb+NmFqKunlvTVCJdZYjMQCXW70CRmUJKpkrCosXmZGiTXxBD0cyJQyYX2lmnqHTYRVUuCkHUKK6QVUudMn3HhMf8SowtpRWK4kVuWBP+756XV+WqGl/kXnb/PYRLgdbu45zVNqrJVaPVhbHBzASB9zhSXO80FdlM+jJEK0AbrmYYhxAksvPJ0KhZTBoxP2tu3z7rSEhBoLJxZY0whcnfNnRpsK6/nP4kBDFPE3qRzVrrI4gaX34YpZAr4IqJNPJ+whHuOmVIPe2c1AeW9A9qctAeZQWAMKy53EaivtxscJLL2DmLOYB/t8mO+2pbzDR5beVJfp4CsGXd7Xvpk6mj6vRWE5Z4tuGNd5pDBOmi6boTgZLwr/oFTMz8S62SZ8+Hck0lgMdgfd1fE+N+MAxh+xqbAsu1mKXUfxnrwK11mkwNITpWLnCL9q+q3ZdWTSlO7x29rOBIPe6ROCLhcFjnDkrO6S6x4DaA6JFZ9yV6dzI5urjcOF/kUwbdwG4FtHa0JO06S4TKclVoGxBISRiH9i1EhtFfJtFJaJj6Gy+e6RAkuxe7ZnLGE56BNOkdpSV2NRsAdVNj5J25E3SbxDYckTPxirKjNWpHlcMSrNS84SloMcN2WMmXfpQe9EO1DlvYmT1rWcmEmvsAI2euyfMp9D/E5cjxkr0rmm2TpTKVW3js1DbdoYI32ZDuEOVEPdguhPmbxpK6w+679eNV28X2esJJ2JFFiaDVU5m/sQmqwZNw/dmYgV5deX1Vg7kQo0edvrYmDDn1hRWPCjbogfR13JZKwj6iGptlMHjTxq8OzUuBFyYq+NEBz0fhKnwJhOoKyaZJ9Io3EGFFZG4gcnLTWsttHMcnm/t2uUsDbXdZc+6m9X1VjLyU27oM2UfnkUSl+GwsJoJ0f8LYUVJNmROlRVbsg1qLYYxWnZoTfpfNNdrCFuGakVQA6GiNiANjWmsAJ2eF6kIAJmrNI7hZGnLkdHv/Xez75zWrFxHQZlRHHMoPe2p1QPuTYFsurAFW9QYb1QWHmZ43vHZXcKr0j9qfpjVUpYjXKM0FdYUj8+bEDW0F/U6SEj71ID7hqQKxgljp4bCis7AnPSCs5pIieN6sYiuRLWV2/0VtnT7rS0KUpePtVYzwZktePOyGwwX4vhcsLPkTrhIucsCWhcclZUXETEVz7aUveFyPmdyjpDrIT1lTDcTP7pojFHVvbea8QP505jEGzwznrKbU6fI2V1lxs5FqCwOMggLyMEOoVlZjWxd2TrPhW5ElYfEX2tN48n9SRu+np9tUd/4R0GT4klyUDSCCynsHoUlgn2+AbyUWJvPlJ6KndPxa58XmUKZTZV95QhxGznZwtsHc5+QluBv2IMlxN+SofCgj98GvG781peXhM5p0H5U5WbhfVV9ekyW8ITe0wpto/5h2bhOhz9PmG4Ar9FLLzun2JOYR0orELURImG98iar/aJG7GJwl8usUcjCCxKrEkxvv1cyJq+Q6gB/0UsLnP6lNaawhrYxu3sPBjef6nrRT4N5YchNozl6x/+rJ9sUGJlU1gAxRSxOHAWn39qRKA15z8OvywqgSLIXk+MsfYoTimB9WWT7Ol4MHt29/cKizITUMRyt7A9PDV1kfNCYVniije8D8U4dyMLvof275Wadvd1c/NpkmZvaAMKCyA6wTx4REHBRVfkzCis4spYSyFlrMh6b6ttBRUb1dDL6jhzEut9EMSDDvCuHMMh2E/YjCmsCYVFGcsmsS539V1ayuf+tcEi4A6hZfP2ZokCAO+KWBiiRTJQewqL/m/ihTVSxop3uas7vJUuHR09lPPicnMUFsD7hbLwhD5B5t4csRbsLr4DgIDuXasvY82Rj0B/IN8uJLDerO2g52Lrjg0UFoBAEYvLCT9B5ryR2EiqHoVlcmnFn4hYfDdzI1tuGao2UvPctxSlPVMToHu18AZQcBGLywmTZbpiIWhEYdmkiy92ep6NFasw9f90pesa9jT/WRQWgLsiFidCfmeypbAGFJZZLR5v2evnSldJBhua0DCsdU5UKTPknhxRWAACyQiXE36iSm0prNZFfaDSTyXe8e70psItUlzmmBSzyiisK1X4MDSzYUBhAUgUsbic8HcWUwor5B/nHaqVcuK9PYfDNTi3aetAKRBqEr5b2Ff4f9rOgcK3Cotj6AB3ilhMTgoILygs+D/xrUKHgxtiB0vlqNYINQnfnQCNKWuObkIg+wbAd7aY2Xl1clpSWBMKy3o9J75V6M3xHrtCskhKmZOEb6VFVC/SyuHuFYUFcI+RgQ1PqxIoLHj0juKrnqenVmHs5TNZruuSGTf6tr0Z989Yme3+QmEBiEQWLIsyoibVc21QWB40R7SLemmqWR9rFjUpM4TlSrJezc3PQWEBCBWxOHf2K7MlhdWjsFx8M320HWtwcqqwi/1L80QcEXflERttfUiX9xFwZ8kD/BMRGdjwkMWQwjoz/tvwgC3ejjV6aBVGC6w8m7NI2nSjiRddzLSQ8b6vUjJxD+Bm9sbAhhTp7pLxt6Cw8uxL0d+Ng3t0Yuc05DFhRQ1ReFJgind7WegTorAAxNYLLfVfGSWiMQqrPq7oCsZ62f4LowXWmimhkzggvEbHWid9wguFBXCfVaXaUg69IYX1QmF5oom3Y1k2RkYLrGxNMImB7jdkhUQzcnMQAFFYAP+FfQY2PGJCYUGoBom3vI+b2T8uWmDlckhLzGq41d8UmLqVf/misADkEjimjiYIx0IKq0NhudNY0Q2pxeh90PEC68j105v4BX1vVpVENzJ7p/hAYQE8YDe+oq1hR2FNKCyHCn2M11hFCqx8F+8JWCvvvRIJR/2aW2APKCyAJ7FxYUd+QmtGYQUFbAZw+NdYq7nefbzAWvJZzOJtWDcr/SJTIXLr6xWFBfCEk/XyhMOMwuo9Bmj40FjRoxtWW6syXmBlrJUL9P3vvg2RUS+Zi1g+pnYB2In3tJWS6xoUFvxI/HgsS1Peu/gxvGe+Xx/fuzs0Y0fmKvSsFd0ASmG0fkDYFI0ZhTWgsNBYFv6UeIGVM42LP3xwO0KKHETOG5AnFBbAwxQU545siEFhQT0aSyDlaHN2vqJfw4Ml9XJfxLpQWACyMYYilnSUlPkhCwoLjZX9jxAYQbB0ntfzKhdpHRSxehQWgGxeQhErXtikCJEvFJZ3utG5xpolDn5knQgzaf763n0R60RhATxlpYilmoeK7IobCqsANtcaq5O4cCbv7Ild00ImY8TKGZAHFBbAUxqKWPcZjSisCYWFxvp7k8+lUZrFeUVGYDk/UzuL9yLWisICeMqbqaMUsX6kN6KwLhRWKcsv+r7CLDNI51FCLRyZH37kKK+HYyYOEYWVcSbWC4UFIK0aKGJFKxt5hdXn+6dBXGPFttv07yucJDqEeY8R3pQMglpnF1FY+fKkDoUF8JztRRFLMsigsOAhTbTGGlVXqYxpO7vAilzNjX7weHp+UT29ZC0D/Mpou5RvCiMKa0BhlYXA8Aa1U3lTK6IUluw3rMRN82of/3syRqxspwN6FBZASMRkY1YMkigs+LTCEX8p9K5RFJrPVyECK7IU93w1yRixsg3BP1BYAAn2a24njJU24jJnRWGVR7zp/TUmly3NUozAilvMAVGxkXl0uXwbLQoLIChqsjPfZbShsF4orDJXYnQDrk1ayJqGVzkC669VWeZsQg8v01XZLxQWQIpQs/KE/qU3obBmFFapTPEafkzlyNqE2lxGBFaUqXJMEGdvP70sT6tDYQGE8e4cccMj+ofLhMKaUFjlskVPb3itZwIFs42vsgRWzJD1sKlUUk8wy1VDjVntB2Ccd1NHl5lnFB+VUVhwczOLb8atvaxbp5PTV0YEVpQtqlf/F7Mf775zwgHLLsBn9EkCSomYGBjYo7BKL2SN8Y7ythdTMtfwKk5gxXT8A1NOKSPWK0fGO6CwAEIDutHjK/ZYUFigwdwIjJ1aT4F3LtC2tCiwYoYnhNompB5kDtvGC4UFEMrI0pHL5JIrrAOFVQOdQCHrtRxNTHo0N8dLlHbzv5TXVGE23bTT+I8RhQWQbv1cPKPYxFdOYQ0orEpoRNpz63kF9ZXE5dXHHmzH0pmhhCRlxMrQU9hRWADpNu0Vs/t3egsKa0VhVcN2irSWnu99U9++xDF0j/ysX8KSM2Lt6o9rRGEBhPN2DMHJMxLJQiUU1guFVdXaHJWlzXb1wysFu6GnGn4sOGIdSRmx9NuEKwoLIOUK6nhGfwmMaxBQWDMKqzLm6G7hg7bStbzSsJj6AINH28XICLGZF9othe2FwgJIWZxpeUZ/CdT5BRTWhMKq8MPbY+ofT5xDayKBNdgyGvQZSlhyRizt04QNCgsgKk1eFLRBAaCwIBNdqCVrebIfN4kElrXwcWYoYckZsbSHjo4oLIDEEYc+oUCGL7DR9CisWrlCBjgcm+YH/ocKuLngMWRZRWJPV/lpLSZ1H4Af3qdX9An/ih+IhcICVZF1PHvtaUpY/VzKQl7j/lUxI5bu+JzOZ50SwBAjC0ghRAo8wwOFhci6qQceX084VFHA+iu43R9pgNqlnqnu2e4ThQUQyQ17D33C6IFYAhOBBhQWIuuGyFrP5+t1k9dXy27yCWYpYd0tBqX/Ic9oUVgA6ZcRc0ejuygCZtAVhQUfIutL4/uwB6VDp7jA6m3GjC5LCUvgYtOA+RvR3NXdKCyAKPEwVv+QpvwK64XCgr9lwvlpVjT0wa9a2uc+bkWt4/jKkVgXVnNeQ4/CAohnsbWuTbJlV1gzCgv++x73n2x567HHvOauEn0VqrDiJUQv9Ww1z+2tKCwAlVRlqd6KlV1hTSgs+Ilr/L4FDucVq2j2SvRVoNJZ5nyr9/d62jD2k8ojvv2bL9YiQFx9pq3dirWisMAcXSOS+oyV6KtAhSVgkphlq4SvZeiv1E96JMIAaC2l2q1YQ26F1aOwwObH/cOUiLmAUJfEXd6+5FnHPWFvYSbCAIhwqzyy1/2MRhQWlIrMhj84cGsOWdbuX6Jlwp+LWUefaIH3RBgAGVrWUTKBIxWlDxQW2FVYz4eculFYIjaj/ZWQIYHKmu8PmGBeIsCX3Jr2VLfbfc+tsAYUFhhVWMvo5SMLsFPKDPnsXomRVlkPUkoWEIBAvlIyotO6AAAgAElEQVS1233KrbBWFBZYVFjLeBX9l/YGnrG+ytoWFBaAFPdmOtd8B3R2hfVCYUEiwieOt6evzyvfFPXhpcMh435/YkpgAQG8yVjUji3XmefHi9MZhQWpCNv9l6PZnP2hc47c6G/GlxoC7vdLM7YBFM+BxEqqsKLzvAmFBal4fi1h2kEByQhYRVIHJPeXLlEdwyc9QjENClAud0NPvRckDCgsKJTrUYVEYdilHYW1zNn+aQGVdV5BP39uXygsAElW5ZQOhfWMHoUFqZjvaquxn1wfd3kuc+Sq9q88rOPjuf/PBBbXEgK8Z38hsb7kRGFBqYxvlNVw9lcJ31HzePXInZNcX/l4VHbsHv5SFBbA+7xlYcdOJHFEFNaBwoJ0tZ3hd47+g2ma5poX8SL3bx+vvHzr7t6oZm2PLfkN6wcgMo1l8miTV2ENKCwAbYU1Zvy301Szxn76cwCfr4MAA5CC+0OH65RYU16FtaKwALRVjuAw1etlh/VDaDU/lyfnqTnD0jguzQEQrZKsNQ53z6ywXigsgEiemikFm4Tp780JLGp9Y80Z2gCq4EEbrMr7c7IqrBmFBaCXRf4zIN1OADHLwmcFcIcHU+ZqHIGSVWFNKCwAbYUlauJey1RYjMMCuMUTk0KFw91bpwrr4ssGCFJYW85/3AkjnxXAHbYn6+okOmvG6oiDSIyrAQhaw7I37p1lKiziC8A9Hk1CqW4KStw8m8heHQoLIJqHjTrZNLIvU2FRIwe4x6SpGdzR51RYBwoLIJas4mEqU2ExrAEgRYpX21isrAprQGEBKCss2SPThSosviqAmzybW17ZWKwpp8JaUVgAugqrzfqvc5QQoDDm5VkEqkpiZVVYOFEBlDXOmPVfd8LJVwVwlzFvCDLNllFhzSgsAGWNswv/60WOa+DeZ4BkKqKq3TujwppQWACxTKp15zoUFkZ3gHRBoKYMBoUFUJHCkv7nxwIFFnfmADygebrAKkph2nwKK+Yc48FXDfBcYUkb3YsciEV0AXjC00NrSz1u98GnwuKwD0CAwhIXDyUqrJ2vCiBlFGireTRHvkh0oLAAdBWWeHu9KVBhYcMCeMLzE3PVHCiMSkHjwvWAwgLQVVhN3n/eBSsfFcAjRgrF9hTWgsICiOXKepSwRIU18lEBpA4DlVSKm3wKi6HLAMo50obCegvXPgM85PmRuUrc7lM2hbWhsACUFZb4P98xqwGgegJKNXW43fMprKh/GasEgAWFVd61OTQJAZ4yB5h+qricas6msK6oMMgnDfBYYSVIG2kSAsAZsNSqmO2eTWH1KCwAXYU12AognCQEKIMQ108Vs91RWAAoLBRWqolhADUQMt+yrcDtPuQKRgMKCwCFZYyNTwrgOUHG6gpMjzFCZ8z1D6OwAP5mRGHhcwfIzhqy3sq3YmW7u2Yh0wTQTZFQWAQWgCQEzdZcil9w2e5fjguEEx80AAqLEhaACeagoknxU7FyKawOhQWAwqKEBVAEY9CSK30q1p5JYU0oLAAUFgcJAYpgYy8XVjox8bpBYQG4V1hF3Uu4znxPAKGEmboLv6Awl8LqUVgAKCxLMM4dQD0YHEU/lC6Twjop5wOgsD4vJg3/gc0dwAdr2MIre2RDJoU1oLAAlBWW/By5S1jltOM+/dY1mKamP4c2scBq6RECxBDo/Sl7ZAMKC6CW9Sv+z/eiGmf/OtRu094PayKBVcUlaQAJmRd9JWGemMmfeYQdCgsgbCGJJ4uCCmu4a66cmhQ6CxMWQKZwsBf8TAaXCuvkYwZ4vJDET4gcYiWkhz9tnvZRsm/Y8CkBRLKFrv6C+4R5FFYXm+/yMQM8Vli7pfAhYILqmnNAYAEYYWRDt6GwJhQWgLrCEq/9LlkF1j8y6+qHBYEFkJ3gjb3cPmGfRWHtKCwAdYUlvW5mM6M+twiZhckdIG/Fptw+YR6F1aOwANQV1mIlZU1jD9um/njugR8Y0wAgQ8OWbkJhjbExmU8Z4LHCkj5MuIsILNng+s0D/yCTXnY+IgApgk/5lnqYt8kicwYUFoB+EUnYcDSKKKwUsbW7+uPOWcNx4yMCyJ90lXo/YUydP/yRtCgsAP3lK3wzjMi8hCXd4/nQWeMX9qx3I04B4Blz8KGTQkcwxSiscPvEC4UFoL98V9loKlLCSn/zazft/Tn8eO/OOhz9hf8KQJo+g56wTJdDYcVHZk7/AAQkSKILR+ZWQi5oACiGLTgQtGU+kBwKK/4I0sSXDPB8JYnKmdPUSUIAyE+4ObPMQycoLIBqFJZontiisADgJ8KLWGWa3XOExp6oDJBDYUnOa9heKCwA+JnwSQFjiY+jdamw8G4AhKwkwRM7DQoLAKLTvqJjwZDhcRwoLIAsCkvwNOGBwgIAOU0x8DREQuOAwgLIorDk5nsKXUr4Yqg6QElEFLcLvIN9yCBzluiofPIZA4QoLLE0cRdSWGRLAEURfHWOxCXwBcTo6NBo7SozgHpWr9RIrFVIYbGWAYqiId/KqrA2ojKABCETqYQO7ExCAkt4zjwA5CY8+ypvYkMGhTWhsAAkCOrxywxsGKUU1ovbawCKIsJBMPIsohWWxGUbfMQAYQpLJIZtYgJLznsPABaYI6zWpd3GPukrrB6FBZBNYYnMR5ArYZU5ZxCgYnrCQUaFdaKwAPIpLIEeu2AJCyMWQGHEFLG6sh5FhMIKHZkwCETljo8YINBRGj91RrCExWIGKI2IIlZhJutO/0lIKCwGQQOEzj2JPrAzSQosptsBFEZMEauwzV1fYXHVBkDWxRuraQZJgbVwMhigMChi+VZYDZ8wQKbze7ugvlqbvxjXAFAYFLGyKaxOIi5z1QZAuN88qk84L3L1K24lBCgRili5FNaEwgKQYMoTxA4xgXVQvgIoEopY/zBoB+lGIjQzQwdgypKjNGINQtyUAKVCEStWYbXqD55rcwD+I+p2hFAr4ybVIxwpYAEUC0WsWIUVOPbzRGEBZM4SX68lbAzV3Ao5sLgsB4DwVHyPSl1hiZz0Zg40QFw5OExiCc0aHShgARQNtxPGlpQyKiyuzQGILAeHSCyhQQ0cIQQgA6yhiNVrq5wXCgtAgthk5bnEknG5r9yTA1A8FLEcKyxiNKCwXsoSS0ZgMaMBoAYixEXPQwhUWJ2MwuKgN1RP/Km+5dE6augQAsBdIopYSzFpWK9cyJtQWAAiKN8/1dAhBAAVdVHMxXiTssq5ZBQWQ92h+gxRdyzVTocQAJ6EqPAiVjHjArQVVo/CAsi8dH+aHHyrqjSPdAgBQGu7L6VN5VRhnXy8gMISSlfeF5Y6iUGjCx1CgJqIKGIdhOkghSUzDouh7kB+KHYD8/pmwPosc9UVHUIAglRdAxs6FBZA3QrrYz19tZiblbIzADwnoohVSsAID5lBN4utMjvCwrcLlXO8JGmbpPqKewgByAMr3OOV3eZSGwKfLlTO8JJlGX9XQd0pkxK1WLAAKGJVOLDBqcLC0wGVs7zEWY5++r/9YWpGoYozQxoAKiX8EHKLwnqO2PknRo5C5bxSsQ4fSP4Hma0CUClb7XfjobAAHNK9nLCwVgEoYlXqdR9UFdYlFbaZXQh1MzkRWO3GuwIgUFXqdR9UFWZP4wFAgt6HwBqxYAHUTLjEaOr+80NmUoltCyMfLlTN6UJgUWsGoIhV8Vx3XYUlNsOHkaNAZogFCwCME34kuQSHga7CEtsWWr5bIGxhwQIA2zRVl8APnwqLkaNQN1iwAMADwaP71gL++F5VYb1QWAAC2B/WwGEUAIgSGV3Nf3xIo04ufnMNB9TMZVxfcREhAHwn/OqcAkZi9ZplpFkuguOhBdJCuxYsMiAA+Juz4jahqsISnJLIMXComdG0wOIiQgD4l/Crc/yXwr0qLFweUDOmhzWcvB8AiE8I/Q++3DUVViMXxBk5CjVj2YLV8HoAQKCI5f/mnElTYQmaRxg5CkQsi6xYsADgJ45q24ReFRYjR6Fi7N773GLBAgChgDVW+5eHjLQ/BCM5Hy3Ui9mjhHTvAeA3hlrbhBEKa1J7yp9Bqgz1YvUoIRYsABAUGletf3huhcVALCAjNOZxx4IFAJIhy3tVXFVhLYLRnJnRUC9YsACgAqXhvU24aSosrj0DEMDkrYTc9AwAf2KotJbiVWEx1RCqxeKthNyyAADiaaH3NqGiwhLNvBmIBdVi7yghFiwA+IqxzjahohNKdIgPA7GgWswZ3Qc6hADwFVudbUJFJ5TsmES+WKiVlXtyAMAXZ5VtQkWF1YiGdbJmqJQZizvU99VPH/Tf+fZ/2ngi7t7gUmObUFFhybpHGIgFlWLqzpyWhQhpldXeD5/2xYfh7FFajthrbBO6VVgMxIJKMWR0X2kQQsJcoj/ed8SHs0Fm+aCtsE3Y6imsUzS2MxALKsXMnTlLT4MQkqmrBwc6lmPnNKuDd1phm3DQkziyJ6C4YxbIBNFXUCBzMz737CxjwwdpnLO+fpVbhcVALKgUI/1BtjNIQnOE7wo7DUPT0nmtrpriVmGtfK5QJRaM7gc2SEhCN0ZeX9si/UsLXq73+nDZc2ROvflaoUr27OWrnkIBJClxNCv6v2yC+oSePXbhCutxm044zuNshCrJa3RfTxYeJGHrF5KA4kV0iIvU8y3EfhUWc3igSvIZ3ZcDmwuk0lfCmcPBBmGSLkBGe24T6imsTTjcM64BqiRT7Yrz8OBHXzGszSwhd7s4Tuz0FJa0QffkW4UKUTe6t0O/T7iHwZe++q6xdr5bewQcFd39/rW9W4XFuAaokWij+9D/wPBHjo//22ZCWkFqZjn/FUPbPLzv58cZWhSWvsJiXAOQAQZA7wQs0SxJS7BoLHN0z9+i33eop7DED5nzpUKFRJ9nxwEMhnbb4ZWahZzCvepoKvpbQxWW+H21GG+hPmYyEyjna9a5xRzPuzEey+rD7Z/qWGGRi0N9RDfbW54hWPmY15cSA7uFJbalmrwwXPc8vfH6lF40jGuA+ohOVLgyHYwUsM6XIiN2LENcT1+f2zH9vVq3QbzfzrgGqI9oo/vOMwQLdOtLlYUv3xBjLYmhY4XFuAaoj+iDV7RLwPnOE9wg59s3w9ORDWuF33luhcW4BqiO+JsReIZgYIMdXjk4aRVa4enIBq8H2/QUlvx1anylUBtXdB7PM4TsTMsrD8vFw/cpPfY6/swIgSO/Wqj5Qm1Em4MxuoPnXSeagzKWEYYqUsPJscIiHQGiEkZ38MV8vHJCGcsID0c2OFXGnhUW4xqgNij8gnO69pUZBjfY4Nk1L06nxnpWWAffKNRF/OWePEPI+wkvr+ys5BkmeFTMdOpvUFNYk/w6wbQLZH2sGXBE8zIB/Q8LzE/U9uLzb/SssMjHgaQPozv44XwZYdh4Gfl5dDTa57wG1wqLRQJ1ET0GG6M7ZGR8mQHDu7cPwmfd0bXCopsOVTGzZMDx59u+LMG1awY+iQc5o0+Hg5rCStF/p5kOVRE9b5TGOiCw/t8p5EyhKwEyl/4HRvXoUgyZw1QCVRG9iLjLE3KxWRNYr9fS8Vpy88CZ53Jew6TVcEihsNgvoCoGGiPglG55GaThxWTmQZ/QZUXFtcKi5wFVwYYCCCz6IEVxX4KsKCxthcVhQqhpl4peMHRFAIH1s38aM1ZmzqLDl5rCSnIXFSejoCKi540uPENAYP1SGSHtyMv9PqHHWTNqCmtIsTg4TAgVET1NCOMiILB+yztI1J2IkKHkP86kwqKJDhWxkpEAAgu/e2ncbnA5/Ntm1wqLnBzqIX7eKGOsAYHFGVtzkW1Jojls4FphcZgQ6iF+3iimXkBg0Q1xG9o8KmEthZVmmXGYEKoh+jjuyjMEBBbz3e1xswDj8eIcLYWVZl3gUQSiEIk6WGXzIbCY2uDjM3H4knwrLKy7UA3Rq2XnGYIuc/t6IbHgLTcL9A6dpL4V1sGnCZXAvFFAYL3GNZXE4pbCnLSlluF9K6yWLxMqIXreKOdCwL3AWj9SjXNFYhXHdPf1o7A0FRabBtQC80bBGQku8vi7TTSNSKw645u/s21KCmtKpLBYElAJzBuFynKCL7KEuWmRWEVxbyiWv+GwzhUW03ihkgDEvFGoXWD9lFGnKGQhsfJxywbhz4jlXGGRl0MdMG8UXNGkn70+9ysSqxzuVCX9GbGcKyy8JVAHzBuF2gXW8nuSIN4sRGJlY3paxURhpVdYbBtQB8wbBUd0KaL9p33uaUBiFcKdtq+7oX7OFRatD6gD5o2CI4GVYpT7n6YfbiMSqwjuTHZ3NwJTSWE1qRQW9+YANQGO3YIl5hQCa/1zNi2rsZBYubhhhVhQWKGPjswcIFmKsvAMQUtgterJtKjGQmLl+nDW8jJF7woLdwnUAPNGwQ1HjlxaUmMhsewmkt5qKt4VFhsH1EB0VYC5JuAlGwhMpQU11oK/12qc82bE8q6wuDcHagDDIjhhTxHm21uSpxt0/z2Q5v2ROG92B/cKi3ouEHg4dAtGSHKo6XZNSWx2AxIrD0NpO757hcW9OVA+0eun5RmCBknmNDzxRTVCc97xn+T5fkozYrlXWPhLoHyivcMnzxAU2HILrG+bjcxv4BBVFsbC3ouSwhqSKSxSDSif6Lyca59BgSRzGh6f7JtlLO9kJVk0+tu5aCgsVYXFnB8g6rxl4yFCegYLAusvKTsWDhSTRSxfscy9wmLvgOK5oudh8wzBwOaoN5uqkWgVUvm1mE76Er7+FRbH0KF0om2MeEogPSnmNLShR8fmk8mjZep0X8HMv8LC6g6lE718uFwKkpNiTsMQMTRhijeFMXnUYBHL17lo/wrr4JOEwonueJCLQ2pSzGmINJvv0T+JsVgGi1iu3ol/hYXFBCpP6jgOAvk/UnmBtUT7oLaBBL68eOfKHudfYTGtGgrnYpsA4ySY09BKHGK6lrxlNJAvYrl6JQUoLKzuUDbRRne8ipAY+Qgv9NHOsdN6mdlgrYjlagZmAQoLFy+we5GEgN2qg+IZQvEyFgcKzX1OdSgspX+Gk+hQO9EOFx4hJKU3WsASKWOt+FC0mcrJGAtQWFxqC0UTbXTnZilIivSchkF6jHTc/FHWjzpDMW2rAhQWGToUzWWqIADwC53w6fAEJYq4Q4W43W3FPE8nd0pQWLhMoGSiWzBc/gEpBZbonIalMbiKcLtrs5YyfaYEhYXVHUom2uiOjwTSMa+S+qpP9rF2Eb8Tt7s2XzeeHV1GXILCwuoOJRNbIsCoCAkFVutCX337pREHHpntrv1ZLYXUFEtQWOwgUHKsyXz1CMAXHE701ffCyEIa74WzkJBWgsLC6g4FM2HDArOIDcJaG4UyURdecMOKpctWyOnOIhQWVncol2ij+8YzhByVhicDEZQETESnECuWLkMZRZUiFBZWdyiX2DYMV6NDKoQGYY2Tg5+MFcvQt+WnqFKEwqJHDuXSsjqgYIG1nLpF1uAzhSwkXZYiiipFKCys7lAusasDAwkk0ipe7Fc/Mw+sJA+cRajdIhQWVncolmijOzYsSCOw4ieNDnm6PYFmrIWlpMlWhPVBqW6UWGFhdYdSie3ELDxCMCmwlnFztqholqjSljBFOTz7sKSwsLpDqcQeJTx4hJCiwhApsNY+5yYZKA+54dOKDnZTVClDYeFBhFIZyD7AHpGj3NfcnqYt7PczskHzGytB65ahsKjeQqnE3vrGngDWBNZgoAIR5ndfGdmgyFFAab4MhYXVHUoFGxaUJbAGIx2eIL87V1ApchVgdS9EYWF1hzKJPUo48AjBksAa7MTqnTuojLP4PyJdiMLCbAJlEnuUEG8uGBJYw+R9cS30CfUY/SvdQhQWVncok57qLpQisFZrX+MVcKSQw7mK78d/6liIwuLuNSiT2KOEPEEwIrAWg52GkKkNjHbXY3Fvf1CqGqVWWC9Kt1AkkUcJsWGBEYE1mozRARKL0e56jO6P8Cj5O5IrLJohUCTYsKAEgbVajdBdS9pil8a91b0UhcVOAiUSe7kuJ5/AgsDqi/qTOFil9nLcF1VKUVjYD6FEYoc10D0HScG/llXACpRY9AnVOJwXVeZSFBaDFaFEIo8SctkBSAqssNv8DuM6/7nEok+oxe68qDKVorBeZBVQIGfcqmACNQjuFmECy35P7bnEwpWixOZ8fkA5CgvDCRTIwKoAI4QNv108+GWeSyyu+1Ri9e2ACFdYzxKT9AqLpAKqii/YsECVsIZ160OKPJZY9N+VOH1b3cMV1rM/L73CojMOBcIgXrDBGCawvGj8bSGlN8nl+0RnOQqL4dVQHpHDGrhMCjLVeJwJrAAXP31CnS/Pd3QrSGHxwUNxRA5r4H4PkJEfa+kC67nEok+oQ+u6bVWQwmI3geKIHNbAAVuQoFnKF1jPN0P6hJljIApLVWHREYHiiBvWwJA4yPgVtt7OWTS0TVxplM71r3ensCjaQnHEDWvgogOIZw78CB0OPu/ZcgziehZNuMKaZR4SVneAP9JGrQiuT4P4LWIJ/Po8VnhG+oSOgqCHxz8p6RkNhTXxLUIt6RtdDFAhuE/t0xfbssL8fIIerO4lKSwSCiiMmaou5KQLLqI6tcXOK31Ca1yex/2VpLBwnUBhxA1rYAgvxLGHu2K93ibwcGYDaX16Ns8pZEkKi5NTUEv2RvSH9GIj4pyF3/ZZQ5/QGqtjY9CkJGc0FBbTf6Aw4sZhYUyETB+fZ3F/0ic0xuH4KM+k1IFQUVjMHIWyiBuHxfOD8J0h5s5x37KjpVLsROufKCxVhXXyLUJRRI3DIruGULaj4kOsDy+BplScTaU4cJo2JSksthRAYZFwQCRzv0QFYu9lnWf2x3Xmi0n8PTq2XvclKSzaIlAWUavh4vlBUNq91J7pjqQyplhl5p67UlgPRyPoKCzqtYDC8hN9wKK+WgnDD6dise8kZvD75HulQvCgorAwHUJJdDGLYeX5QQZ9VURJZ6JP6EKm7H5/ukuFxcxRKImogaMjzw8elm76eH31WoqQGyd9Qku6329NpSyFxcxRqCKwMLsExNnGRSIIl/HdldcnnD7Y+7/Zv/0PjsZHOj5MWJbCYuYolETUwFGGTcMTNS8Uoku5qmkqpHC3fciqYfiDdl6G4eyvyX7V0a8VolfKVJQUFnk7FMRJPRdU5IRM+aoo1/eziWAWDSrb1Q833+tw9JfllGx1Oz6gV1pISgqLfjgUxEAtAZLTnatcBC7H/Tc/E53GZqPMzfj8rbZjb7Se5fcwYWEKi5mjgMLiXC3c34gXyQC8FHSqrnf7l297G/4K12Of/LyLq6yvyLzCYgYQFATdGkhZvOrFw3JRun51WTSOklf//2POy9RWurv94IIV1sOmrZbCYl8BFBb3G8A7dbUfi3z4LWsw1MOjvCZmM02H2MtsDamsyW1XulcK4KOSwqI3AsWw0S8HN+qqwJNGz+oCS36reLMKv9APlWXjk3VrNz2VFFavpLDw90IxxAwc5cwHfPpN9anUVYGyfvL154vrq3/21N3AKUO3tfqhMIXFGXVAYTG3BH5na87EZo3iPBoPn1fWDkqX8OWuY+5S1uLVeV2awmLOIhRDzKJh9i78IK7uT0aigRCR4+STmPOZunZxNDnFjNtxDYPSYlJTWDvhFFBY1HLhn9JGcyqIq1KPGT3su2Vz+k+rxgvOKLIOr8X64hQW991CKUQcD+EOdNim/mhfepTogW18rDu17XXJ1S7svZ5tK05hrURWKIQIYwVnaquuW039OLy0KbIx/bT8l6Oksmnq6Ndy5nDi9F5zyUEpR95Z5wBqCou5cHUyNbp1q+K7B09LAxlGNkyL9qtu9buFk9fK6aCUI09qb/8izEIZRKwCHl5t0urqx2F5ZaTM1PbxTDr1kQ17jpe9jMpKcvIa6spTWAwCguoVFvNGkVaUsPLskLob0DzmeuGDakN0Q2FZUVhsLlAGM2kG/Pnr+NYQHF5mKNWd0Tx+EppdlLnN+MrXXrFZ6NUQEbpEn35FegqLBgkUUp0IXwPMGy2Xbdr7oX0Zo9gz3M/znEVPbHaZv4NlVPtbvdqCQhXWU+GoqLAw+ULtCovjHkgrSlgyPL9KWa2N0lnoDisZslanx6aX8hQWB9WhCJrw1JKHV1QZxbK0KryEFeQkV2rSX4uJdz+o1DQGp44ItUKR4gsnJEMJ9CyB2skz2IoS1k+lQ6sH2hszb19DYw1Og52a2UnxfROYoW6FRRnX/75+ZRtsRQnrZwIupNGwYjWWPoD0GutwerStRIXF5c9QAkfwCsCK6JlpP4eXLzbW4S/bfvJTdo01kZ34G+idVlRKVFhc/gwlEL7Nzjw8l8yTp8JVJSWssJGeqR9JY/ArSBp2eqfRLvBhtlr/UAjcegtVKyzu5nRIt48exdX3nljZij7slFbagSmNye8gpTuhd1qxV7PSKkYPTlJBCSykGJWUrq5+eDmmcNtf4OTflGaVxuiXsKaz+Pd5jxXYV1iaIQQjFhQAbfIq1NXZvnyzlN6UXqw9lsbuxzCksmNNTgW+WuNdU2Ex0RpqVlgY3Z3gX11VcXI1cO9Kdsitsf05pFGWlSmsXusrxXgJlRI+pJdn54BuH15FUHwJK/hQb6J9qFtsfxDrpBsOTQ/E6opUWDh9oWKFxd3nDopX66sUyh++FjyYLkkzxbrA+mYEnTXD4VBiFH/+6Zyab5hr2aBehUUJ17i8Gm/vketw9H8zWJVk5ZewIkb/JqjmbIsD1b1cmuGwxCg+KX6lGLGgRoJXDEb3EuRVezY/R9mtMWnaaliJXygN8UNXsxPnnngZq0NhGVJYJ5Ecqo3rGN29y6uh//wdTvasWysr8UudLC003ByNWKTDkM+WVajC2jS/UpwogMLC6O6c7Z73ah2vL3bly1qP6KrgzU12tqIx8nUNw/m96XwM6aWacJ3DZ0o5qQVx3ROmXBsC3hlILwqiufU6l/FdW8lYl2io4d3tMU9I1BUZUadYjiXDEvoAACAASURBVH76eVvsUg8LaUV7pD5Vvp7CmsisABQUFkZ3g+WrW6Wn9o6naR4tKawqhjvH9V8ESznBZYq2/8OLmh8cuwhQdZImPZ+nWQN1T6v2L2HEAhQWRnfPTPfmKQ13mx2GJFYdaj7S4SImMwLnNCzn16aelCJL8AOpSmENav8SnRKolNCwh9HdFDdPAA73X5udRuFShxsj1kMsJLHmoIEddwqjc5NsFkgrZkP/4tyi4W/nUlNYne7ax4gFzsHoXoK+urd1PWunzFZmY1VSLo0tGgrNbAgpard3hXuyY6piZwp9mgED1Xkv+oAwYgFILRjKt2aY+5tS6HyYEBoZ6z1U8h6jxYeIxAqY2b0+Ee7JNFaTOh5aDnnFKqye+A6uCS36YnQ3U7+6qYMC7nGzcfdvV8mLjC8ZCkisgHbTU+GeSmPJhCSfZftAhbXLPiDSK4Bfwx2dG9/66u6+PIY4Giy43avJYi041p5flrMGqLopTf9ZZMB7VQorpLWq7B0gxEOVCguju4m3d9eNHnig3YDbvWUlPnlakSLj8fsew/7BPUkDWmK0/Rf/ecND3RUVlvKFD2w04JrQMYec8cjPdqQsNHwnvxWrlh6hUEs2TmQ8NWGFT6KajyQSK14E+dzsAxVWyONSVlgYscA1gUtz5cnlZu41tt0rs8Cqpxst1JGNkVhPX3aU7ytJqzDeiVaVwgr5p5QVFkYsqFFhHTy5zDzYoKIswGdWgVXRdybVkA2XWPOiJ+a+/XOnRYnlU+0rKiztgECohwozZ2q3mQtYD5oskWesclqx1nqa0XN+N9KgKrASlbFiJZbPoBcWxoPqQ71yDMCIBZ4JrPkyCC4r16ImsHIOHl26el6p4GSMQOmzawusNG6syI/Gp8IaylVYJPNQocLaeHI+ClgCU4Lyud1r0vGSgzHaEJHxcFBDK1NebBZjEstnyzosjAfFhl05CGDEAs8EFih4cD4KWCJjGHO53Zua3uqSW2QMOQTWh35vbUksn3t9mMIKKg9N2mGAiA+OIa/wxvlSFli5ZrufVcnm3CJjzyOw/vprHk1JLBSWNYWFEQuqU1gnDy4TW6svsPJIrLruZZKWGcvDDuuzHuEi6hKQ7xRGCMCvzl2UprCCtIu6wsKIBX4JPMHEnTm5Sh2PNiO5eegNAivtOpS3Iz3rsT6znAufQOhWOxLLZ79KUWH9pR0JaJiAXwITEgq3eTi1MvnsEquyxDXF4z2TxQFxg9wsPsYy2JVek8LaxJ8QRiwAAYXFnTlZCh3P4qjsrANdidVU9mqTDB17cGfgoyJSivLimVNf+ldYraJ0UVdY5PPgljCD7cKDy8DTU1fCgUlxaMNSW0xN5G25XcTsk/xXnyn4xYZI97nVaxaH1EcQY8QCt4SNj6MznkNgPdyCxL1ynVZoHaorkY6ppOq9MuYjm3uqMbDSCj7sd04VKaxAm+agrbDYbqAyhUVSoc/TLl2C8YjzSMqahC1zu3XMqtz//3kJK/igK5dqUliBykVdYWHEArec6cI25BRYq49WzieJdVffy02pXG+YsTYjBQVpBR+SZHypsOzeMaB5GkD/LniMWOCVgS++TCWcSKdsR9pYutQo3rfMkvVJEFg2U5+5eLlt8lld1SwW9+oKi54J1KWweG7WixzpYtKUsEmw9DNvV121TolFS8pSrXiegcIyqLAwYoFXgqwPHCW0vgUnDUmpNFal+ipxCet7O2iWyrLa1A9jEu1DPz/2WJPCCqwXqw91J6UHt5BSlCiw0rZyPjTBKe/HGhpebzLWL/r6nS1/gOyRwsdTsfqKFFbgy8ygsLClQE0Ki1sJje/ACpcaXaPkTSftvlX7enU2rHOW+Lw0rjKSPVL4dG/ulc/n5vyG/CgsjFjgk7BrCbmV0LbAUqoxdvshUW9Yjorl1V9qh9//VMZ60qNcVF6U6BU6T29r7l0W78NET2hTXl9h0TWBmvJnaraKPPeVLoqCZbv6I6LmMJxNV/n71buN6PO5Db3BUsKYr/xRk8IK/df0FRZGLKhJYW08OMsbsH5JfZuavj+G4W7jsB2GsW8mvqO//pr17iL6/FDhg39/UTuJIHlc7dlXNqKw3rLoKyySenDJRUJRnMBqM//kefoExNQf0B3fOHQxEaA3/d3LmKeGehRW8F+jP9QdIxb4pFddmfCUkINVpHueXrD2VjX+onUfTJBdNYdpCE5teLQgBklTFwoLIxagsNImhRDOFrDNjDw2R7Tqe9XPU8eeHHXRHachN7XhUVF3cFm911VY+tfm0DcBnwRZSqnYKhFybn2ZeW6FZziSGuuy+2XJTW14Ig197vOXahzP8dVSmQePBNV7L56bDgfyt2y6Vx7+01ij4S9rlroD80lzz6fC6lUV1p7hk2UGI1SjsEgn7IbNlcfmiPb1yqyx7o+NzVEclZra8KCIhcJ6T4aRo9nP7wCEEDSXm8emQlDln/pi4RJaTmN987zPxosIQkcK7+cdXUUKKzhW5FBYL9wP4JAXZRKrhLjcOXLjie6VmeN6sFfmmbchdKTwdhFrqkhhBfci5hwfK7kjVKKw2MVVaFWDJqgzr6/s3NcvuQ4QbyKd1Ns9psmizLSmsHIMdceIBbVk0XipNQg6Ec2kBkeML09k0+4yfve7P7/3mcEoK6wMQ90xYoFDghrqDc8tPWHD9pmc7ofGlcDKaQ3YBTb0u7lHTQor/J8bcnyCGLGgjn2cTpRC4r6k3EYgP9viSmHtWZ/VoLY/nz5j31GBwsKIBe7oySVsEhbCKGH5oXUlsHIv+vgy1i6y8KaS4kX4P5djqDtGLKhDYS08tvQbStJOCOTn9CWwsl+UFV3GutnmRGEly8w9N6oBgggx23KUMP12EpaxU8Jyw+VLYFno0DSRZazu1r/yqkdhRVjH83gIiW/gjZCFSbHWZkZKCat4CZ1vqIOFhxZ5qPBe3KpIYUWkyllGjnLECqrYyhnWkDxbJ8Urm9mZCctKVnXFTBC71WTqUFgSjykNpJDgDY4SWtx/F+JP2YzOBNbNDpvC0jgT/xETCivZxoERC1BYlErc7r+8l8JrlPkwtLV14eW/O8X33anCamtQWIQ4cMamewIF7hDocaCE5YVu8aawTFkv+9DHd8fZ3TtVWC9lhZVlIBZGLKhgM+coocF0lPzODxauI3TaJPwnLwzd3m/M9DoqUlgxujmPwiKLBF9cfOXmCBuFhfB1w+FOYJnzv1xhZawbIyeGihRWzJGlLAOxGMUIzuiV1yW8r3AE9kA4f1DwmqNJ+OsqORP9HQsKy/JX3BE/oPRoz1aelMDDUpSwnDD5E1gmL4Sb2iSL5IXCuldFzPMl7gQQ8ERIwwK/T0q2wNCDB9TJ+138CSyjvZkAx3u8/kVhZU0UDiIIeCLEr8hTs6Z5mRTjh9afwDK7rW2PF8vbJtOFwrrHjNgHeEvAqSbaUSkJTQ2pnvtgdCiwDNdHn854f/uX9CishP8gRiyoDI4SFlBU/JbazTw6DzQeBZZlX8Dcy2qKA4VluxjLOStwxMwnXkYJi8u4XSAxanQdjr7vm+n/fPxP/TAknE/U2n6mT/7ytwX4AYWVNheMhRYKFL6hc5TQXgmL0wc+Epq4UaPr0U9fNUm6qenHQd5Jb12+N4ucWHyhsG5y5lFY2IChcIXFZm6vhMUJGxdEjBptz+t2I/hDaA2SY+PN51QPhmO9+S9tKKy75BrrRoYPfujJIYooYV08OgfswfJqD0hrpn1sq6ka3B6ONcemOCXd/BylsDINxMIQAWUrLPrg9kpYjGrwQBf4cvuIqvEkcEOPjxW/LxIVkN6twhq0FVauybktkQRKrpmQQtgrYTGqwQFhJqwhclKCwHQIJ0db5lFAYR0orNvPO9fJVo5NQ8lbOru5uRIWMccDIdWkYcqwwt0aX+60Ct+Er7YqhRU3eCeXwsISAW5YCo639ZSwmFDmgAAT1trk+6Z8Gi/ftwr7WNVQUvAYcn9aGLGgbKiXGKILDTmMObZPwHWEvcRSi98GXfle3rYKv1ZYEwrLvsLCdQoF7+ncC5WMsYYtsFYeb0dtl+ff9V4yeNMq/FphNX4V1qGusHKNa2BeELiJRhwlNFTlCA04Dc/OPI97hKNQrTheYbmzvXw5gPRrhXX6VVi9usLacyksAh44IWBVcmeOtRIWVxLaZ15ybSJDhRWDrwaQ9rFPqySFFdeQyDWuAd8pFKywyB+slbCIN/Z5eMPIIuesi56H5dL18ue7Cr9WWK+6FNYrT8TCiAWVEJDgcpTQWAkLn3tx6llQYMWbZZxeyHStAQprSl32+V97Z7YtN65rWatvQlLE/3/t8bYz87jZjUgCBEjO+VBjVN266R2SSC4sNKxKYZmNa2DLg3oVFg/NmYVFnXtt6llSYN2p3a6zLGAdt+Cfc6OyyG0datQlNmkZ4N1KYTGTEcoAg7Z8C4vdpjL1LCqw4keAlG9aP+ZQhTUXrLCW/C/XalwDF91DIWEe33bxFhbzySpTz5twCmRLPM1K/r6WKUxh7SisEC4rhcXIIChjA6KVsHgLizr3ytTz08uXVYVp3e0BG9idiNOtwooyK9O2c7NxDVQDQxnbTwPDcWq3sHghdaln8RAmsae++Pl3f5RjfZZUv1PK5Hf+an6FZTaugUAfyth8GKdbuoVFXZx7gnLxCln4vvGz7PfpWJ+5H1fRzyN/QZPZuAbmXkMRRMzK4aH5srC4BbWqOEZjemya01CDR/pryfuSqEX9Kqwtv1IxU1hUn0IJTMQOhVtYeIr+CTn5Fh/LvLrRQ4/pxoJZy/b0Yl5zYsl4b6awKI6AAsAyKd3CYhiWezrz5fVIaSes5TX821b4yf+XZ9lH+5T/9ZqNa+AgggKIGNbA8CVfFhZ3GLknIM7XumHy+ULCf/s2zF/ULV5mLqPdLpL2c0YzhUVoCQWEdXTJFm5hUY5Q1SJT08vxg4uqmn/3GPszVQv73QHH/CFaZ6awKI8A/xyc6IVbWAzDqunlTg4/sYba4tfCT/Yx//u1G9eAew/+CV+SzAbwZWFR71nHsa1vj0x8YV9xL5fq9++PkjtTtq9bGIJLcE/4rsudOa4sLASvew4ni2uNbPtaWIdVK6zEZsLNTGGx94F79syeMghbWDTU1LTGdPNPkRKLV1XMwR63kaTVfdg1E1YyRgRqhpxB2RYWm4x7Fj9pjyiJ1ZBTcO9eP88DAQ1MystOYdHWDlVsKTRwuLWw6FiuST6ry+UYidXQhOGj+Aeyx2wiaWkJu3ENVKyAdyKm5PDQPFlYRHHeWV1pmSG8aqaheuJ7Ca+r+F8g+t0ZNhNubC/gm5GItmgLC0exEl8kW0n5kNnhqFAMe34gZ36hYnf3M7MZwTvhC5LKak8WFja5e+7n5fIUPAVPiGyn8LIr3zeOS9mlZacNFRZtV+CbcFOZKW+eLCzehncCPKNMJ/eMT5AWb3p+IEfUNpL25Rk2E5JRAd/gyxZtYW3M1/dOQKdVppe5BlZDt/ONbeVvgYuBFT4bmlhsgFCZfcJDc2RhMdS4llM758tcWPHv8qzgVB/iIrWkf9OwmZDZQeCa8IiH6QCOLCz2F/d0Hl/myYpPWYmuf4RBxbhhMyFlweCaEdekZAuLZmX33Bczu9Nvrp1Sl60GybnnFyqWzYRcnAOeCR/Hy/wlRxYWcrci/ZwzGj/5yP7mWYXkjCs7T1ONhgqLcTVQ13Kk0N2PhcWNOe45fL7MkIkNzTTEz1VIzstAqBg2E9JNDZ4JH/BM74YfCwuH3D2705e5obD+ZK3jgUSWnSflJgxvJsTHhxo2FQ51jxYWVZ7eGby+zBnX+k+6OlyTyLLzpDThYaiwqEWFmlYjM8T9WFiUINT0evMKmQ6F9SdTHQ9kMNhMLJsJKZUAv4THHtxS4MfCYnCGezavofiKjo9eis4LJSJ3kyPP1yQPvVfglvCcPYXufiwsthbvBDhFuctJ7hcnsxeW9UB2g3htN1RYXJwDbgnvAaHQ3Y2FRZLQPQFDEXIX9xworEiR4P1Ej23sGwz+TRHYZ6CacIdCdz8WFrFbTQI6d+gyZPE2yuF+KZH3UtTYO2wug39TBPIq4BUK3Qu2sBgE452AMsf8OmZDyMcFO2M9X51YJeDTUmHRUg3Fx20UuruzsEjYumf3vLBmFNYvrPVENotByDZYKiw6fsApHYZsuRYWdmJNAczidvG34RCM9eyB0Y19KVraUmERa0L52wrfsjcLiyRhTe/Xr75vw7bePb+qQLbYLSWh1t201J2tEHwSvCwodPcQazLKuIz3u+WxD5RFRRMKq6tpD4xWOwkTQyzvzeHiHCg/cCMzJc7IrsKpbShjZhRWjCjxX5cWr3bi579Y3ptD4A9OodC9EIvjHZ48Qef0zusbO79/Wm6WqvbAeLUzZnmC8jAZEErfVyh092VhkST0TlAfg8UfOLDm/yWkYs5/0U+82tni62xNFRa3W4BHwlsJKXT3YmExA8Y7Ibkam8zThsKKEMP+LxpOKPCMN7F6S4VF9QpU4aKQ7/ZiYXGhvHs293r5RGGFW1gl3NGyG5hYs6XCwtEHj0yECqVaWGhd7wQZxDZFdWMtiiKnhVXCeMvJwMQyLXWnfAWqCHUodPdiYfEmqjrlbLLvCwrrB0G9d3Pdm0u0iWVb6s5+CA4hUijVwqJ5pipfZPe8AbAWiyuq7iy0iqnCmthxwB3hUQeF7k4sLG7iqsoXscq+9yis4LVYQpSZckvg9tD8mNTgaILyIx2Kf8TY0/YTupO9U4QvcqGwgm8HLeI3WYwyNi11ZzwgVOCjUOhuJm6J2Gp+wYvjv7L6Nq25Qvc4yU+KbFO2LXVneg24I7jjhHJCJxYWUreuI87qr7yTTaq9wuWRx+HxrBpl3rhtqTv5FSj/mKfQ3YmFxV3yzhkK8UVQWDeHghWWnz8sthdThUXvD7gj+CPmkfmwsDaShFV5CHa+yNS8wgp1XoYqf5XI/mJb6k7UCaWvQhrYhHgmbiYzj9A3aym+yNW8wpqqjDLXtA0mrqjJttSdyglwRsfBXsiuTt9MYQT2kCye94C6FVboJljK00h0yaOcOttSdy7OAWdcod8wIwJkSC0JpaizsvPN7g8dGldYa6gSKaXZ50zbYnqLfe1loAoB/DgpFLr7sLBoTK7LGLHMvjeusMZa98DEicZxStJWYWEAgC+C723hkeXyDQjWJH2KZVnGX+iWRbnvKNAYscy+T00rrPClWMovWyw2mclUYXFxDvg6ePiCbUgtCKXh4K6y6sZz+iCO2Kd5XJRaMpeCgu+r6WU/Vbv21pfBLnPZmlhseVB0lENySoQHbrj6p/0mrW5VtJ2jQton9Ny2zDx1LSus8NLscvbAPXWbGTU+JlVoAAJPBGfqGTjiwsLixpxP1OtyXFNg9ns7D9mk4VJS7L00rLAeW8WH+JksWMLzhA9bhYUFAEWf9AzNlSDZvmfuy7uPdTnm+DKQXlJkhf4Ztq2hDSusCBFScQD993cZHsptpgqL8gnwROhBwLwRHzsfXvifNkwX7Fu9tz13Qt7goyzJ/GU2qdopeBE5rYLUpsDohPA3f9qaWHgA4AgK3U28llQtgND91bgaZ7mrOrZZZIcO9oZtRyydvgWgHhE5wmKmYX0T8Mpj6kJGW4VFHQv4Yah4d6krcKbY4H1xde7iW/SUXnQeXotiO2JpbDWyiskplzQnRWB1bKG/13jmKJeOgB+eZR0EtZC87zEM65uKuJLSWOEH9+p7H6hUYcXYLUX5xxIZuz7027RVWFx2AQXvMLSwebCwGq/mHDrBtOAHJmHSh76UdmwPbSqsoXqPZLRwhXpbiUX4CcWGOMQHEiRPPW641GAZzyy9SvuQ9QVbK5gmFda6V7/4ZDJ2gT/ZeOYoowLBDXvN8Vu9u16bTuL6vHLeyNHlfMHW9Y19iwrrrH/xrRa2kPHMUSbZgBsIDwxInjbaoM79rq6y5x6iH3OENWI9feNsUGHFZdAKy9DL1CqGTcUynjnKxTlQrJtCijud9P2ntXaD5bKp7Ojj7IpD3STIrzYmNr8yg8zTwhfabRUW7VjghIPoID/JVQpNFcMNh+EAwz5G+EQNO7N+zF1zCmuILOcrLMiUGk4VJCyNZ44yywYKPeyZN5pO8rTRdlK163M2joa3iPM0JglsvrCW1lb+2rcR3iwWK+GwXbVcnANOCC0cZt6ovltAnftPHodxJPzzYAmud1/KjLpbU1hTK/6IhWwZjFctM4WgzNXHbXjpJLsyLdS5D0f/ckKgxCp1AsDWlsKK7jYprhJVbCGNcl+TNpxT4OMcIzbIzjN5+6i+jnO49pcjwozbq9B3OjWlsKJrIcurgZzFFsIg9jW57QIGsDztmTeqfpI1/xIeoyt5FbpfR5a92D/30/1fKEh8pr68Imq5mqiAPKHx5c8cVOCCkdAgu4DI29RTGKuf5GDcdx+XI/RQmjs2pLASSiHLG1cjWBN13801vvz59eCkgQL9FOaNJpPs2W/1Zmqf58sptwdjndoSzkx1ILBKNUcE2z4eBv8oYSgUy159AOfOpEkuAa3VR3SYHfxVYt07W45yD4SlGYWV0sxbYjO1YE3UZPGPxsDFOeDhuA8NYXhklrt7zSp3OV++uTUOKLqLwUHzwifp632app4lWGr2SfIe5tsfqnEhFkcVeDjW1CIYEHIN23gH3f5yz43BWEO0QenhJfz9qZ1jt1Qn6JMEVt/cL47NkloXYnFxDtgTGmcwbzS3pv2brrpnso4F6Ks7n3+8wHJxcP/y1+/n+Ky0Vvhob/WJ3sN8O5/tfLEC6DMTFzh/4vW3Ia/j9iqFc9URWD5q6/6pnJmqFVfpC7DQLhPJFXb7ERgXYpFvAXtCO+OZN5oqJwjNytVXr88vgk4QWD46n6bXdh51B1FrYoRTaJeJqNi5uwMZF2JxWIE9LRQhuOLIFkGWQbe/ymI7NASWD3P4UX2n8Jo6bK1Q/Skqdu5uQdaFWFycA9aEroGLR5YIVxL+JkqmV3lMDwXtzMrI8r2l+qWlpuifoivgrollvFA5raA0R6XjkeWVtHU0i39kKFyvItneOWEeabMmMIezGKbJCelSx1iusgvgpollHD+xqMCaud3jvYwH/nepdUVqc3+Vyv5HqJFcTMZlVCUsvoJT9LJr7aaJZV2IxXEFxgQGGdymaR5K1lOHPL5KZj/+f9g+xma9kYJ4CNx3Wa4Qlh3ne1NpWhdikXIBY9o1UGxIrnOvpgN5nV6lM43L8G1YRolfwmVU2jwlWlbLNUWE45mbJpbxCsUZBlsGIu28JHv1tbTHDPsLKHTPJ+hnEU1d7gMQtpNuZjOMwyguzgFbOiLtsra5WtK0y4aoqtKa9Pq9yQj6klP0Jgm4w3hdcWCBKRchQVbmPPtadco+OoadrmNZ/qkZeSzd6DU1SV+5qoEl1LNadHzTy36x9/r0BuN1RdIFTJmItLPu9FvLW3xmgdVf71798pw92mfMRvRvYBUe38zCn+w9e8h4sVE4DKbolDeClrLoeAw3d9buk2anzp+TRVu5Gg+xLrqy4xvphN29KvLTeGHx/YMhoR4u1z5ntQwrtbDUBdbUfdVL7m0SF1NQ1BC89bLslJN0wu7ewAbrQiyOLCjorOOJpUXTWFjf1EsztuuWH3S4yhXSVa6EpJQu/UJQ6Y+2y7LnJULaBQwJLAClDCuNA6dD4Ga4z0/B8e4x+OgdKSwKcnW+tYnD+v9I58bv1TgZu8VcnAPlrDkantLYcwSNzll3F/rqjdmPwqKpXMMyln3BpVtY38QvAX2UsMpWFgKYQcNT1ogaC0t3BOEYuJt2XgQWU1Dc66sK4hvxz/2W8/qkSxc48gkHCoghnzyDT3PY4f14XiQWPeXu9VUF8Y14AeStDNxqvLZIvEApQQ0p7TQS82M1VMHpBbTbM8MKoAyrEC2hkJqqIEUvXgF5K6YxHo1Cmy6UYigQDZiqiwr6jle1Kvcz0l/1IbEowxJdaBpneg3xzWQSGYzGi4tRc2BFYDcVGe0kEuPqGjJJWuHsFm8CjQ4EFmVYgiL+0GmlqGGukvi3fmtPsr44p2NRgBGUYeVkaz4U05o+2Kd4QA46CpmGJcWgdSVSFa9IPke/Ztj4eHVQKAtlWOVsbxWkaB9KW+2ZJP1X+7lYRNlC9pXaq9yqiC7lp3/eSmsYxzA4xFCGpUAskMTc/BavlCNM1Z4P8+numMMCdJo34FXSirCZrD3rWkeqHKGIM59I23B3q+DhK/URpj8Z6xOAWQ3p39asKpNrucxCPMa51ahnPa+BTl2wIdBTpyfDTl9UsMXrDHPfJKTnyQlQ8oelLK8qckHk2zpuHQo9EQy0iEK4AkKGYX1bvErT3ibyYFbbu9NIEsbzODLI42puD5a3kTuzpR8AywQsCCx0pwwriaQwmzJ3TYEVvBQIsZ2YV1cWaVxPi498qfutU8F6XsPCWgH/pgJlWGZn+F6ByzE7Fli27U4srBh1tYy5ZoVvFVVKbzbq07iXZGS9gAGB9jplWClcjcdgD99H32p3BmwkCUO/peeVs7KnpjI5eVV66+s1ntfAnCGwIMxhpwwr48OuLkeossdKmj9Ps+2f7HuIuFrGM7MYriqJK18RtfheXVQ6QiGuAgdBCimVCDXkCB/OBZbh/bQeDcp1WbpxHM/pN87xjW55I3/m7PtfNBk4jXtVp7O81LmVgbOe18B9b+B+sVEtksJR2RHswMISLq6wmjvqyxselvGabvut2zRd47EsuiLksRwBf5M0dY2rlI907ll8k63CujiBwLthTBlWCr0bJVGLhTUbr4fq6tyXY044B6dpGsdxWQTDgTcfbZ5sB2lUF1huNhHCYfsWKcSC/EwKCwneZ218c7jk90x538TkLHdR5/7oREvH+59y63jLJgb+vGFZnuN4TdbCqtraCHkzySrEwh8A31CGlY/4e1m2GvYG+U49bxGfEQAAIABJREFUjcdiMhTL3KEculldzew/67jm8X3mH//T/uWP+rwP+VjnnmuJFQmNMfCJ5iO+DKmKGs3DaFsP5GwtuB6Oc3tBI1XuibFe2slw2b5JDAJwfuphs6YQHcGNbf/8vI/FoNjdbufPN7GzWLahvp1Ifrz6aPTvUuQCFdkqfKEm21ods3jE029a92DnL3Y3CVzWvBM7EVieeBktRmOzdOAUAs++Au2uGf1CzXJu/2Lesjo8t/DIb2EJF7XXTJ2FEeJvv7fZBAI5OIUgbxzbYDmQGZEFPtujxU/N8mPMXeye9wU/MhS1I7AaC3duNhNaj3XnenXIS+AHz7UDKbSdpTgK2izzFuRmtLBQVwisH8hnwm+eDbZpwo1TCBwvNCa2GTgjtZQOCOclVCdIZb0BOtcsLOquEFiKNu3Nvt7T9oVSiAVZCWskogwrf9hYyx4v3UWkm7DOmczI0ig60DOIwPpVblsprM72jVKIBVmhDMurmq1tjxdOvGkXVOQLtfX7c9duZt4VAut3xL+Im4GC8e3PE+cQ+DUWKMPKp2Zr2+Nly3/UM2v58oTKYcvjwLxCYAnFexJWrHGakHMIMnKg/7MRUfmwLdX8euEkob7ZnytPqGrGDRd17dEifql6OxJv5rhbQmKcJlw4iSAfs0qUAulq9sceX1FZpuyG3hf3F3/4jvUmNSCvkl5M5TXR4kLnbvxtfPszhxhkZEf+ZyPYHe8fzX5pHr7ENUvjnZYZ9xiRV0kavvaKCLsbFmwbWumHh3wEhhM8sBRCC3vOtd0v7QvyDJAaMpRi6STe146xDIlfWP0lp2af8mH7aikmhmyE1ZowDzenxqirrVh0V8015F6/YkTllywzColUUmZXOSAAN04T0hAP2bgaPvN9q9m9siqQqcjzby5vt18PsoPUuGdfkkEpDluDlaGOkI2wT51xuCkEzRu9KrOyRYfgbKvTBWKf7RywrwTSXQ82JFWFZZsmpBALshF2sPG8MoWMfXUxtOjog4xeqm61u3Q19ZPJV2QI7XTO7X/ZOE1IIRZkIqydZOaBpXC7bHqvcNChpLWy5/zDNavdhYuwOtKDEl/Xwu6vrbCM04QUYoFLn7jjgSVwN27bqwyhJQ//vN+hosSSPMspvxIq0mnH4FjtFJZtmhCrADIRllR48MDUI8a+ThkrmRbYM//tahJL8FWvI/cOYmCpueriCss2TbhzGkEe+C5zntTjV974NtfaS9D5FCamEkswkiY/KFSB1VaFzmSmsIzThHgF4MhW+c8/54ElWw3P68Otpb8qjp/PogNQFYklJ7DQVzJMrfVKz3YKyzZNSL0LZCHsM6c+UEjXHtf0+5nYn+NSd/S8lb07KkgsMYG10D8oo9zbO3ZHO4VlmyakEAscOgv0uMoKrX9p4LcK7qc2uWpxiSU1p+HB/CsRtrHB7e1pp7Bs04QUvIA/Z2HieUEkgmVYRp2WwnOxJqHznAJ3IVOjyfBxMVRYnen7phALcgTmJRxtUAFyRstmdRSuksk4oSzFQgGWzOto9cA1VFir6RunEAsyEFaGxZU5EIucAWTYbjE7E1jrhTZCXyWx2SksyeaXcE72ZNAn6BvnyhyI1gJ12Pud0IEk4wY/SRBKeKJXywmjyVBhmaYJOc3AWwSD6odYlkpiz0EiK7eJZCjWE3UkUPE8tt2+MxsqLNs0IRkZ0D8vyFxDFuS6wo0bLwV0zS6yty8YWALtBh0L005hfTPtgj3YlUGbsDIsui8gFjG/xb7LOjU3d4qYJlRgkR6UoLNUWE/L109KBnyde0wQgWjEDBcHpsMjRS7KZAiHHoGUesBiyf+wQi0V1jdLH5ZCLPB17nFlDkSLErFt0UXVTLyNNYnYJh0ZwjT6A/tKeGVGKSzTNCGFWKBMWBkWV+aAeaTs5LKLNa58RajEnSHuyCsxTBXWYPkdUIgFyoSVYXFlDsQyVhd3xtxVI9O2RoYwqbYdefU7oiNrN9N/nUIs8EVQPQlX5kCeL62QWsAh8EcJjbU8UEnR5//cESb+iehArOBDYrT8HHj5oEtQNQeeKpgHyr4+whAfS0hfPSaEUtxxeh7U3WgGP3EK62H5TfBBgG4QzucIeZDaE71leNbjlnYUG2t5UOKOupJlNFVY3yxT3pgGoEpQvoFZDRCNVKG7x8qJYd6+yk1JDUnFwIo486+OwqtsCit8gVrenEMhFvjxh2eeF2TR8p/gdITRMH4offpLrgUXAytYXGFdfYno1M/w+zZNb87h7YMmQRs2sxogGqEB5J5LU5dx/kNm9ee4CBZWY2Dd/06meVxwrvL6y5EKy3Qk1sLrB8XIO+hjpAkHohESB/591OU7x/j2f0qvl4xNV9N3xjeWf3jffFj+Y/zJPP3A8MTcv0urbmGr0jsG5CubLG/OGXn9oEfQnt3zvCCPW4qP+o5y2/Vl1fUmqaTSaj/1V/dDef3QXZo/oJ/OcXziWsVhbQoZjsRiAhF4MRZQ+xB/3NafJFTlcWqqk+/CKlu50vCL53XGW17b2//i9dNlw7EqXGFZ3mHO2wcnK4uSUYh3YFpJEuow6lS49+f4dLSsh/9nHZfn+DvP//4n7EPiSM5LiLERLUdiUYgFPo49xt9CPEKthG0mCZ8KWZR+Pjhb4CeTtSdkOBKL1AyocWEfQCYThiRhtLMjXjg+jSTWwJPCMhyJRSEWqBEUOXQ8LzDewxtU+atwK3s/Yl3BH8zWgmU1nPPG6wetzZtZDZAJmTxXc0nCVbQAi2uP4V1Gc0vIcCQWEQcoETSGhFkNkABJwhg6QX21XUwMBnWFFVnWtNgpLAqxQImZ7xDyIDPTsLFLxAQL3LcZeQUfctjrFbuRWBRigRJBHzU90hCPTIjaVCngIld+PFFDCZkcpFglf9iZWLx/UCFoCAmzGiABmTREQ0VEcvpquxh0DtkUVmxVk+H1z5gHoEJQ1MCsBkjgws4PCn5m7CsoUmFFR0F2te4UwIAKZw7zF+Cb0LCGo5GHJaevZsJzyKuwPPwNlHeCB0jQQC523Pzs+mobSQ+Cwlmg5DObzXWnAgbM4xb6LcB6B99beFDrKKavCIogu8JK8IPs5rrj9IICQaUxB88L4hEZ1tBAKaDYgNGd0aJgobASaprs5rpzuoECPSofMiFSY1F9KaCgvuKTAxOFlfLlmdW6U4gF8gTNath5XpCASOqrcldGTF9t9EaBlcJKuYLmYaWwKMQCeYKy3hfPCxKQGNZQ97VNgvqK/CCYKaykj2+yklikaEAcZjVANiS2zqpVfid1aciFvoJwdhdukFmtO4VYIM6GiwolbeBLvY9HTF+dzGcAS/dost8nKMQCDyx8gJAN01GGzeirfuFLA1OFlWg0j0YKCwsBpAmqjKE1CVJ42EfHfkMdqcNtY5WCtcJKTLeZXU5IIRYIEzSrgdwDJKkI20E7LegrCrDAgcJKdVGtBjYQnYChq9DzvCCFw8He7XIVnlInxEQQDg4UVqrMtxrYMPMJgN2Zx3wdSEKivKK+p7KKBewkCMGFwtq8/CHBM3r5BECUoOCZ+Bist83qyrDEBmB9D8BJEIILYZO+Sp9GJhaFMCAK+h6K2r9rm4Yl1kD42ukgBCcKS2CVGg1swAUGSYIiBXLUkE/PNzHzVq7AnQp38KOwBHSK0dRRbi0BSeZ2DzcoUmHVpCMech1TPRl88KOwBOzUdTNRWHRzgSQhVizT2CCNgUrUX5ErwKIHBVwpLJHlYWNiYQWD0ZHHQHdIQ2AcVj2Z6mXHwII6FZaIEWQ0dZRMDQhG0dQAQj4ExmHVcjWr3AQsSkdAjl7ki5QJxm2mjrKawGg9YZ9CRkFf9cCQQy5BSAshyOEpaW0zdXTiIwCxQJoSQMiIQFBaxXMYerkDgRlY4E5hCYn+00Ri8RGAWCTdYn4GzJgIMN8QLOHdqBoBfwpLSPUvJgoLTxikCIoRGHYLiaRbNxUUSUgaWBOLEvwpLLGGX5Orc+jLBSFWk1UDbN8NT1weOQugcoUl1nVucnUOPfMgRNeYewDFb9+lF7o/BA2snRkNYBl0Z1D+FlfnMPcRhODWZ8iJQFlF4U9AsIXwdVLiDg6XqGglk8nVORx1IMOGsIeitu+yC91Xyd4oGk/Aq8IS1P4WJhZLC0Tg1mfISnoJUtGp6kHwtGCKO7hVWJIluxYmFmcdiMCtz1CYwiq50P2QPAPIEIIGIoJGslTc4v5nmrpABJKEkJX0JFm5zs06k8aABoIg6RZXi/ufmYECAjytwhJwxLD8hqqESZ9uU+xjpocQmlFYoiM7LUwsEjYgwNxKegbe0VXHeE4fKJ5pusanxmDj5DqkYi9uWughhBK4/F07Y2BiMZkIBAja9NnV62Bdjmu69+b3aXzK2uXNzgKULNdlyijoITFEXTgOMjCxuIIXBGwMkoSNvfBunII3q33uxFTWo1V1IViCtXFpGjhXWNKteAYmFoYCJBPkB1NaW7Zz9YwQV7+oLJm6hPRO8CLrIyRr3HtqcEETCb9I+rAwMLGIYyCZoKIYNvZieXSzQJX12aWHdem5shJLvFfBGncG9YAuLkeiX9kVFql4SCUoSUheulTvahabcpne65Du9jcusGg3AeVwzF+hu9Rf1dDdEeABkoS1s1y9r7AuOVtW4CTAQe4dMKQB1PcMn+pkzi6x+BQgEZKEVcei3bm5C+um9iLLQe4tTFTfgjZPF6GYAxOLaAYSt36ShPW+26NX2HPSp/onJyyLG1MjKLAY0QP6SLTtabSjZDexyNpAGpdxVAJah/qldRt9spHZXP2pnMDaKMGCDMwe9gkPJhbjiSCNDcu0QgQL2+Vj0/RdsrAeajmBRQkWZEFgHJZOsWRuE4vLnyHtKOZrq1Be6c6NSc1TpVfRlqUz5ARWTwkW+Au8c7o/2U0sSo8hW0hACUgBx/m1a+85qdV4R1sNPnICiylYkAm/FUy5TSzS8pAtViFFgbx6I9FJSa6i3Up6J4+NvR4KQ2JYw+J9PWErgDokCZFX2QuxzpaGNYgNGt2IbyAXEjeUa/1tmW8npH8eEiBJiLzKnq1KrqItqL9HTGBRggX5GB0rk9y3E7LwINPHShCNvJLI0jU0rEFMYFGCBRkRaCXUi8czm1hc/gzRBJnBJAmRVxJae21nCqCYwGLuIeREYEvRqxrMbGIxBBKiOQmjy0Z17pVSfLq0E1UK9T1thNGQNTKwjsI8mVhc/gx5FtKTB+ZNXm0vG5LszMPz5u1RYPWM5IGsSLQSap5befc9vgfIcdZtPC9P4rg7X4akaJyxlS1PSGCdlNqC44PBwPkZi9nsoGmCqkRIErrhoXKjc6404dSIwupkHjVlIFBgbKDaeL5mrY2gCBIiD2qShAWyXPvLnBRDc3cdHjsTWBvLDrLjutBdMHqpbjgMuOIiSVgYa2dWeiWnt9soPV1EHjM3PYPBNuN/xsFeSDgJRCokCQthGPuXG+LjunTpUULeTOYywokSLCgzOlD+E7OaWHSagP46IlthyaM7t5crHnZ7YwEKS+byNC5RAAs8T3S3MLG4EBRimHFKi2B9eqi8EpM56du3f7EvMml0Y2MHEwQmuqunPJaMex35G4g5BTY+shLUVf9ySfRIrPTt2/38TRGBRQkWGFFEB+yUb6/j8meIoKvMN6iB37TDcsz7yy+xDkt6/sx9WYTEICxKsMCIwX+he2YTi7UIyjEAScIs9D99i2EZ5/7lnMiOPoE+pRYEFiVYYIXAvNEcUVBGEwt/AYIJG4ZFkjCLhfUqicXoN3pX+wJtTpRggR0Ct0XkWKNDvq2OeAeCGRHxhb8Ta2aj3+h8HJaAwKIECwyxM7jDmLNtdVz+DMHsNdkGldAXpbDiMgHpAbLvEcsCg7C4iBAMWUoxfR75tjq+CgjkiUvqjrUsgRVnYqUX77sehyUgsLiIECy5BLaGo5i/tJL2ZfBGmMNK1iIHXWEKK8bEElCRnhVI+pW0XEQItvTFKJI12xRmoh7QPOh2HlgOzlf9JtZSdTyZPgir54YOMEUk95Ypz52tcJVCLAgjrCGXJKE/1VuoiTVWrbBOA80KIImEk56rbnfNNTCQQmQII+zLJElYytbm3sSaiomPI0htbmJIA5QfJeS0fLLtmRyBEEJYroYkYTFbW26CNx6Bygm3LzDVn+vZxsEcu0Eu+laB99J9qIWwYJskYQ4KTBKGB6sCUwLdXhKWGk/PDGkAc54S20K+wvBcQ5pPvgxQO8wJrXNw6G4R+/QPpm3MR35RV8jRRIYQygu+7UslM92dQyEWqJ1zJAmzoDZudD/H5deS9FXySunAj0MgE+rUUU0chEWGEFwgMgAhY0NsLhOL9Qn3CTtfSUFnOaF1Qq+ze3+3exxCii4sIbDl/gcLEVhkCMEFIknCrKWSme7OwWIGLdnPhJ5CN4pt/nR65WOUcLK2kM9DQka6nMiZ1jZOhhBq2oaylkpmujuHOSpwm9PvcmkW+Tr3qfvaF+kENFZIDajEhECP47DSJo0yZRS8IJIkzFsWnmfsKLUyoCT6SRKWuE3MN09tAY0VIHkkylKrE1jcyAFekJkvlfeLznR3DmEQ6BzmfFnFxI7/ZZ3G+2U965j6T++3/zERo87hy0up39+5VBaq+JLNapaOLAqLTD6oHOYMAikndgzXV288Up2lK+evdDisIaV25aTEHdwgVKuQO2jIMnaUQixQOeaQ7oXtEVf4mZ0aBN7tZJaIkP0p/gSBtZGCB0cIuUG5o4ZnDoVFIRbcY/K9WlC9aRZPVFJ3SFN4d5shJFKh7qqWEgQWQ7CgwkAv/3TOLGNHKZeBW4dp6ZYBO5tCUc86ZZA9IqGmN081oUWB26ig5LPBTyI/y9hRsjmgEHI/eWLlWFhjvu8ipvJCpIx2qeXVbZS4Q9Fng6OKpRxjRwmI4I5Z4d3wxcIyyjkl1WDc6SeUKaOtRWBNpN/B2dmw2Qd6kTwyTGxgMCTcYHQfjrTH4WNf65TjVhGnzle9afxPosQd6tyHbPIeOcaOEhPB12z+Fwuho1HRdJIE+rpKQeQiRFfDGjrLtwUgi1Q16FLqJsphCJnPBDpUCwm/Louv4/d88leiQaYa9Sp3MSUN1ABQRqxcvKzFSCEW2IUpfFP6CJQQiBVNXyku2heyQaYY1VFDT+yevhELg0NOISFiVLvbqyssCrFAOkwhmaFPuvLo5SyRlF3288EeD5ldzk8DXqz1ODFXBzxGemIj+Qq34CjEgmgmRHvpolfXaFx3rT9EqJ+6eGHMPc9QaaRnnPjQHzuK+QyyYQoNT/qkmtubbN4sSfB16hGyG80feR7tuMLgErlScasY4qGusCiaAdljgXyGOqkd0uJH9qgjsYSKPM5CV9K/My3IM4BP5MYdmCXyL22FReMXiIp8bsxxHzn28kd2Sp7ww4bCpfD4+I+3Fmc8bty7AV6Rm3YwlLqZYjlA3jCFA0GdRGtHYyBskhj6QGKte+nxsYDA6tmfwSuCww7sfsShrbA4EUFQ4m+kNLR5enR0kkpe3/dpxKpoPXySw1aw/QbwHruYCtmr+BX5Ilpo1sLic1LXvLvHiCrRbO8UY0sPhRDPqMezc88zNGFhWd66oD2xgUIs+ITQk4HeVG2SSjM3tTM7sej1r3LurqYYMk4tnvjB0ISFZdtwpz2xgUQ/iIUp6HXXEdemWFCauN/+ceueYHxsPj5kjcp3bow9gUYsLNtsuPbEBgqxQOzYZPiH9mmdImRUByslb7i/XLy3zoIbnPU0qUcvoDgB6rWwjJtRlCc2UDkDYqcmhqjjzaDXzTql77jzz432MUp2UFvbqkvUjyFUgXYsLOMoSHliw8bHAkKHJjfmaB/XfgWWzJY7TZNwb49xO15UfdpGiTs0ZGFZ32ulPLEBOxqEzkwyzsrB1u5XYOm3PRdYZ/qIqqKlxB2asrDMI3PdrYuKShD67jgZdJk9CyzZTbeKIoi4IQ1syNCWhTVZ/xrdiQ3ccwLvnw98SYW/kKwCy6eJZZhvW6OG71PiDo1ZWA4G66pObKAQC2S+OoZh6Z7Ym2+B5dHEMoyOlyjBeeEDQ2MWlgPX9lFrmAd+WZDqhSvezALLo4lltrfFGVgbQQoUwFGdAlGd2MDlVyBxoNNh7nRXyyWwUge7V2RhdVF+44SBBQUgPd5gre8n0WMP0hYWw7BUGfwLLO3BMsUEx0Oc3UiJOxSBdCRVoS1HCxhIW1gIdVXxsvsXWEnNjvVYWGtcxoESd2jTwppc/CrNEgeS/5BuYTEMS5MzdnFvOa3FBxbWGjmRnhJ3KATpOMrHtTKaExu4OAeSLSycUE2i2/S2vM7I2bqF1cWFwpS4QymIh1FOCsEVJzbsfDWQKuiR6YoMWxkCK2VkVw0WVqS+osQdag6+y8ihaRrw1ChD6ipi5ocea1/M5rW3a2GtY+yPp8QdKg6+v8JLAaJiKzQrHBJXET6oItGFD/lr4w4/Citv3Pi4Yn1GStyhIORjKDeBrF4rNNedQKKFxVA1PbqCIqfVjcDKmrZ+xhegUeIOBSEfQvlpQle8lIIPB5IsLBLNegxFaIxkv61cC2u44uN6StyhJBR8Hkf+Tq+2G1FEA0kWFi6o3p62F7VzLU4EVq4bBpYrJW1CiTsUhcLtMo7SH0vx2xFUamExDEuN2PxTb3R4+6h133L8+uE400J6CmChKAaFperJxVWbNsM8bkixsLj0WY3Rs8SQ/IOLCozX5biSu9YpcYfqj4ZyWgnf0JvYQBkNJFhYeKCOXobJIKwcm1RIa6uOvlyX5RivSaZcg0UDhaEy7q6KgJYsD2jGKQh0La8kNgtlaL17mOsuu5+tSzfOk2z8vlH7CqXtRhoVAH0dGy6VyqDnmkw8NSVi3RLLAp/OgYUluBzGSWPTPSlxh9IYG5AeWrsXhTQQb2HRca5E7OgD2yuMNnOFJeQPrZ2SH7dR4g7FoZP/9zZJUet6Qg5JiLWwmOfuLJ7qbQ0S85FYMp7qotdYRIk7NBF7FzgpSmtiA2WXELuMCMh1iL3veVvr3KOybtqd3tQJ7j+AAlG61d1dDa9SgIgPAZGn40ZJiQrRdaXmDonxSCyBHOmiN915p8QdWtqOSqtPemyNSEkoxMLC/tQhNkll3xd82Sqs5K1sVWyHpMQdikRpUTvsklKa2ECqB+ISPGhzV+t8tv/TB1OBlZyEe+qV6nMNIZSJ1pp2GJ8ruXV03EOUhTXz1DSIrXpwMV7GMk2YnLRWdOAmohFo5mQoxHH/G6WJDbjXgIXlhdhigM3F67C8OSfRjF97t38agBWH1ppw2VY7NSMmwf2XxaxaDaLPeR9l1IY35yS27Ax6GUJmNECx+5HasqjGaeCoBJUPi84oDWI7hr0MAujNFFZaoZOiwKIhBIpFrfXDaXGSysQGxrpjYVG+54Ou9P3qsBJYaU9Ar8adGQ3QVuhddNyhM7GBNhfWERaWB2L7dnY3tZRmacKk7/Gp9mcxowHKZdXrXPFam6RSSUpTGBYWFlbJG5qjQh+jNGHSHqaWImRGA5SMYuOK19pEFVHJWHcsLCysMpWuu1Y1ozRhSielmsBiRgOUjOZ4O7c/umtJTwIWFhFjWS/DJk2YUuiv1i7FjAZoMuIr+wDR+NV0u2BhYWGV+B5+pKJ8lfpYDB1NegRKeU1mNEDZHE5DIqf7MGlCENPsVO4pmD+xVooztWtxN+Hh7+8d+aKhzQ2p9O46jYkNhFtYJ7mqXkDWSvF2lBvcTbhn/vyZ0QD1c2ouWc8ttg9nMSBgYYGZ9dO7+yX504QJAbFOP/rFjAYonKfXmEgfhRbKng8KCwsLq7DX8KMCyd+7yJ4mnJz9scxogOJZNXOEzmN0jd/OmYmFRYlJgWva4eC+Z26FlZCR08gRMmQUykc3TnJ+F7LCxAbShHgnhfautapzf57mHn/MVo6FJd9HuHV8zdDiuVBT4bf8vkCakKMdNW5GbOJ/dyl252IsLPl+dIaMQg3oFlO6vwpZQWCyMRCqMNqjtPXss2Oty6mvzgTPSLzeYiP6gJZDvpKt91TnAWMCRD4kynilie5nczopeP1NdEzX+J1TY67nNndJJp50rQlDRqEKtCeu+Fcb8hMbSBO2SITbwH054py1rdn/dPt+/V9zrM95k5VXqVpfehelAwSaDbxrm78pX+lPmrBBIswTRilK86xun/qnvGn/K4H3lNq690vASj0xsAA+XL/tlmF905jYQJoQC4thowZEX07h1zL5aQ6N72XwlklCXomImQUDC0BwR6qnDOubQikaaUIsLCY1GDBVuGC/f1j7Rypo6T3Iq2+yqRBuyYFqOJUF1quMgSbi7ZSkCbGwiNSzE+vIb56TUtdr+kSKH9Excn/I7VKSFha35EA16E8MLkNqiLdEX3xbWFhMashMtCPvOqs/fJ5MfkzW8uqb5FBBDCyoh1V9YHApp8jU6O8GO43OpAYvq7jwls7DWF5JRqgYWFAR+teKluLliI8dpRcGC4tJDc6VRi05/WG3lFff5KosMLCgJhZ1gVVOnH42Ki3BKoinVE+Ytb4+wts//TSUV3IWFtc8Q+NxdzDFPAvpgXmkCVlKlLlnJfYGvyoafy8zeSV2kGykzaEqRn2Bdda1RVFlA0JB/E647iVGGpr4BPdDzTQdMbAA1F2bwidvSlf9M00SCwsBXoCFVYuZuGw55l5p7ZwYWFAbUwaFVVKtibClxzhJLCzK3P0HjPWk84cPlM526bp0IwYWgMCpUHmFwypcltbxjWFhUeaei9hWlYq6196TWOlXOn8pbTcMLIC/9MSWQWGV1VAnrDlPPjKCFcrcnVtYVfX8/iWxzgxh3oyBBaCwLuqrIRU2sfApsLAoc/e9n1WWy/9NYvVHjh83YGAB/MWSQ2DtbT+Ug88MC4syd9cWVm1v4j+JtV+ZArwJAwtA266pxIGfmhaYkGktUebuxcKqL5P/U2Kd2ZRjh4EF8BfjiySLPHugAAAgAElEQVShvonFzTlYWO+dKqSPnVhYNb6JYduPfLZQYjkvBhbUuSFtJAklQ2FGYmFhUeZuSOS44CrfxFrAg//ngOAWQqiT80WSUDIWZiRWu4wNBB7uRUVcxNjz5BJJMv0vtkeok+eLJGEWE4uRWBzuNQ9gKlbl8iZkPv4dAwtAcl3UHiHKjgmjpJnDndSx10XLmzCMRzGwgEOhxWEFsg+HmmYOdzLH2hzk8E2Iz4X0GFhQLY88AutV5gYma2JdfG5EKwxJU2ZvKAJ0xBC9VdLrARUz5RFYpXrwoibWxueGhUVxtS5xI5l4E6nffh9rYDHFBipmyWRhFesDi1apUeuOhcWINI8LljxVIpEN6RsGFrAfNVrnnhASU+uOhUXWuJyQkTL3RCKr3CdKU4Gou23zRlSDsqGwmCiu1iSq6oG5+iYCa6P4DeomzzT3sscqippYuBZYWOSMFRmotS5GYHFJDrAyqD/61gs+CGwLLKw6U8bDsizP8Y1z+klXzI7GXP200CLqoXPLM1RPrjL3snXFgtYEBQur+DL376Lqu6D6rqV2N9XjcbNnOOuTnnlUCMqMUaifTJMaSjfhJR8TXeFYWIUvijdddU69y8Aq6uph+k9S6GIqTZgxCi2sDSys/CYWWwsW1o/MVHGL4rEc4xQUbZzeXwIzM5I/iqnBkBvgFpkmNZQ/LlnSxKIvHAurtMzU8BzPvoSVf7Ai8+qrqAosRjQAZwKNhFomFtsLFlYxmal1idRWNlMQ9gL+xoqIq3CnFBU4EyjuVjOxcMgJV0rQ2W/iKtnlziskO9Zj1i8kyjGkwh04E5hjrmdicTkh4Yr3Y304ZqESgqx5wphAiPkpOXfFnTJUaIRHJoFVR2n3iacHcuGK52N9OE5BdztnDm5hNfqO0bmEENoh17DROupIJfUo8w2bt7C8Huuy6iq3hT2zGLMSahmeVLwBFhaTGtQFKU5549G8y8T5+pxVmosP11saw0bjIUEIIBV/NDupQUGRMuGwcQvL3wCmx3EWH2ONLMWsBF0BSYIQmiLXfTn1jDCXNLFwy5u2sLwlzh9Hr7kHZJo7GtUbja8ST8jwMRKEgIWlQT3jkiVNLGYc1sXm09TxIK/yZeI6LCyvMScJQsDCUmFsckPBxGqLrthFserLq2yScsfC8hmlbwfPClgcTHPPaGJRlFATe6GLojszBVo5PNuYoPHk202AEaMAthZWXVeqzqVF9eDRwnLSvfa4ct3pkMcrOrGS83JvovuETQhYWOQIMbEgj4Xlo/Snm1452VePi5NySO0wfWeeK7A26CPML0y5OqdVC8tBTL+O+ysz6hHFhYUlwnCc0z1Z9PUpso1Y9YCFpVbfOtT23CSVKcFdJax7Yb7JY34ZoL0ZbFhY6fw7c/aWNPpyN5xRsICFxaxRG2nKbR1tWljWp84yvUzoXb0FLKx3HuEZZj8tFGAB2FlYNfbpYGLBn4RZWMb1d1b6Sv2X91hYaR/G/KcJuD1TNkMKsAALq/DaVkwsKM3Csu0hNdRX33+6pmU0RPxBeCz/sh7vhgnnGnuOcEUONEyeITh17l+YWFCqhWWqr5SbKGdff05RfDy24/NK2o+nNVwUuEPDC4oiLEwsaM3CGoz1lWpIsRICRvNZE+bnmcIPMrNcQQhNk6WTqNphyU9MLIi2sMzeuE3/YDZ9eYT/MT3f7g9tesaPx+0ocAcwsbD2em3iHRMLIi0sqxe+jtvLA6ejRUl48+M0+KpD4NNE4d+PfX/yTAELi0lYuc5Udvm6mUp438/95QQlf2Mhuolj2JKC5T+f+8aGBlhYRRdcYGKBI5YCXvdjerlByduO6N2h2e1utHjd/Q8wwR3g25hhH73YlpCiWFg+3vb48oTK1hATNSIGbl809Li3GdJACPBtzVCQMfEIMbGwsFy87GV/+UIjTxghIpk2+m2dJJ7Vvy2q3JADkCei3VeeYfNDLbCwPFhY6/XyhkYL3+5D6JXFcP+pfS6euv57UD2wGQBksbC2gYdYxIAkqN3Ccmdg6RRARQxQwTvuNrkwcECvAvxcV/o7aAPturPrAwdycfq2sK6XSwbb14B1HPxtMP0e4B76QW0Le5dkPyYmViOfQe4XPfQ+BZb4eU2dezBrYHspax3Ah4XVRgWppIl18Vk28RVkNiu77eUV4SAsYp772faHO2zWtiNAlaiHtY1cRSF5//OLJhwsLHGTYn75ZZP94iN8+bYHj4dLUuqsAHILg3cFVivu+4Tth4Xl9y27zRAq5AkjNrWt5c92ZTwrgH9d0GYb4b+IpluJEOu3sLI6lc/t5RvJov8It67lxPwQU4qLwgIQPxMcdAn5Zfca0kMmwjr1clb+jC/vCKZMY0anNFxWdES9LxQWgEq053yiYmk7FQ+uGgJP9nw+ZUwWKDtygjPCTW53GFbst4HCAjC3sJqaMSM6upX5h+UxOn3Da/8qAbFa856N6jbRE2hRWADCZwIF2xkNQXawyhV2Npdy2IoQWGJ5wpiwsdXm3ZH9CaAM14ViIlFHcGNiQ9WnVbZRDc9CBJZYnjBibn3f5hf7SOhzoowB4Ct0p432zU1JFi13YWJDYewuX2/3KoenwXtoWC4kaW+6nQEU9iKHQbofZIeLsYfVHK4MLv+qCvKEMYuwxRtzEifQYrEDfBXDMAjLs2Tt+ULrffeZXm5RAksmTzjb/LPFRYOJexULHuALVKeNNnkLheyBdvCJVvvq8+SlhldhCDyWzeRfLY3UHicG9gF8wcP5Vlkgsq0D28pHWmu4kuXVDltpCiu9v+PJOrvxYSTP7+ByeoAv0Jw2evFMKXZvicDqnyx5qULmYMl6IyfLTN3A+v7IKMMC+GL/ZRCWe1+QYvdKLawsOfTzVSBj/l2tsYKGR4++AiggkKFGO/mk/QImuxdCYMHTVvgC1yQtqoiohNza+lSPDX0FoI/eqIa+4fqhzlVED5kIzA7n8HiHMgVWYlUUScIvDKwJfQVQnhRofU7DfwgXF7OfFXFu+ctLrXuhCispQItJEra0XY3oK4As6I1qaFpgxdzZQVd0Yy99K+87LERiRcSNDWXiU1sI0VcAdxcbcxp82BkMxSqf0CEdGfJSy+vVosSKSBK20/Y8oq8AMqE2qqH5QSnC5iA3QNd3dGVwefdX0RIr8gmRJPxEc+/oK4BcUbfW3ng2/2g7nmhrBFpYGfJS46tsIms5I9ZeI33P64W+AsjGQRuhl/OWcT2taWp9m/exvUqXWFHFBhFJwjay8M+UD2Ib0VcAQSglEUhpfZOvMebynMoWk/4c2flVPjGDSiJ0RAs7VtKIhm1k/wEIDGloI1Tcz8i8sphMOwmXVw2ca4ZtrYVe3XFDXwHkROk+jY4n+8bEc+V1W3YSTlUorPB694ul9Y7c3tFXAGW7LNma0ItAfJgryVfHBM89Ua+rq8PCiijGitAStSuI9URfAWRGZxphz4P9Z1cTrzNm7qhfQmue9JOE+6sarpAzPiJwrD0Bn5AgRF8BRKLSaURBdvShS8dTuTzcHepq92H10zg+l+VfQ/WxLN04T7ptiyGZwogfXnefbkKCEH0F4GsLXniw/+1s9BA0Q7AfrF75o2Bh9fO4fJipXpdRU2bdDy7CE2JbzV/m40RfARgw2W6EDSB/yDFozCfhGWHtFykcP+3zcSd2Gg618vrpbhViuMyruHJ0jU8Q7nTWAMSjciUhEwV+RWGk9sVT9Ujw6F71asVeUNZfzwA9uHZKLcrbobWv1esMdzv6CsAEjXGEOxbLr2g0azLa3SPBB9mo/AdJZai3uQvvYF27XkVj3arGCjfv9lq/ymFCXwHYsGrUTFAmpGYk0EngmPAZl9rliiLJuv2K/jMHnXnyN5oKw//hSisbHjP6CsAKjTr3kceq/5AZ2eCPcD2j7V5IyKu0eGkdNWK4r1OF4e+iyjFz8Y8ffQXg0l7h7P9rm3uhYxtgcLdUUh2kbRawo3U01v5Fnpza0R+x3Y6+AijpUPh6V2bk+F+oFP0yEMMZszeVnFgAeEqdsjoaa1pEN7YKJcWCvgIo7FCgBjsmlFRpqqIUyxWrO5GcclvDdklGStk1VnCJf33DsKIL3NFXAEIbn/y+x6CGPM+ZdKw3IoZyuP3q9k5avj9UfNz+IzEQPDejtvkn0QXu6CsAv94Kxkour5CpWM4I1zO909U9qfjQi8oNifv7A8eD5W5dtQ3rhb4CMEe+zp0c4bs8VRQWT7vsaEV5iHikopnUcpejziqYn+n/VFUX1UfnZNFXAILI17mTuBIzOG45hkweKzla0Z3AFKfqe83asIfSZTp/j5QIVVg1SQv0FYALLvETnz7CD9BJE3JBoRtipqfrFrpPHg/ZQ+tW6D/GogYqrIqKG2IHNKCvALwbK8xokjUUaCyoWkKrHusRoxq2DOt36F9abOcxRAreai59Rl8BuFmN4nEkzzSfmkXUeiJm9JTugIBwyXfmcaDHlyLbND5/yKwwpVGJ946+AvCDeFEEMzBlPY5WJyUWSIxsUC1aDB7VsGVrm1i2lzL7NJ9u3gT6CoCwm4yVLk+1qJ1qdwfEiAbV1FToQKgzYyXSOr18UYPEiNVXGy44gJewu6GRMh7OYEaQlXK8uUvwhp23W1f43tN6dUO8vmL3AHCwBzP/MhG1NCENhfZM3hRWmGXaZ/dB9TOFLdUyoq8AvPHESvFvczTWCVUqcYPlNMsWgyTfbLB0H70fhVW4+Y6+AqjfUyGd/zmr4hGBfVjiWlJUWEE1lofNepi9CKyyA5RYffW60FcAxRz4WFhfcSoeEnQDma6lzZvCClAvm9m3czhRWAW3iqxjrL6aqZoFKGh7w8L6MtjUPCUYlFHem9V7ZwGSz7IV9emiGKvcUQ3R9w+irwCU6bGwMvPQPCaY2VDeWtJTWGMh382wO1BYpV6f/rhi9dWEvgJQ3tuoBCpd1CJxC5fOegprK0WYr/b17oWOanhEl7FN+N0A2khf+kxUJOksMLOhhbWkdtJ15Tif9vXuRZYwLtEzW3v0FYA+whUQzAu4waB7VEw8YRt2bwrr9h/kIUF2YWEFK+hofcUFOQA5kB6GRWBkIGuRuWULZ61F05Vl33SmCqu4Dp31iC5e29BXAFk4CQQN0M6IUAxXlAmjdbhPhSlyy5bC0soX48vbGTAKkC0OEt6nDh7praOEmpIK2Z0prOVuRY4fF3DDwrr3ahNiNAaMAuRC2phn8ZoIWySWB1fBW+HcTQvL03wPsyt0irKw4suvGIAFkBPhDe3kiZo8dwriHBA/ulcnt37XwnLlO1tNbSjHwoqf3s6ABoBSwm6ckyRG/aCcyaOZOZ1Zv72pgRYtIE4srE8YUko4d/QVQE6kG6RJEt7dKF9IrNpIeFcawxLuFgC4+0xmLKwP3+mUsiEQ/wLkRfiuCpKEt8lQ0rtRcZGTJeFVzXZr2+FkjxEL6z0eKelBGggBijoUSBImEZMLCVVlDHcvRRds8n/O3aowjzI8+2CsAjauJc3ao8AdIDvSfjwnuvgB+FtJ8o7Eqksz66UJ161YC+tNYuWd2uB+il/CcFEK3AGsEN7Hep7obR4xRkfwGC0kViGLSTy/PhdsYX3LPRjr6fvLGua0p7E/WZ0A+ZGee8m40QDCg9Lr/pBuJFYJkllR6SxWyk5MVez5BJbrezzXLnF+xTayOAEskO6LJtWvYDL81vQVfoxzRWEmEmsahd9TX7x7k3EwluOm21T76vuHRYwFYLOHCW9UJAlD6KIe74jEckpqA9xi8cdsnrenKZPAcrtCku2r12tiZAtAKWf811ksuE2wHfUjB7vuSCyfXI7ik6GObyPPYCyvkxqW9J+/09wNYMbUjtnukVCt9DMH+3whsepcTYKv6bb14fwEzjIYy2X16OMQqENjAhZAQSZK6S3PZUfoffxJjsTKQHrZkJjcuW+neT+CMwzG8ljm3klUyJ6UxQIYcghvVSQJVZ//kSCMkVj6+Jl7+QxW7X5Z1Kc2uHPeh0viN3MFIUDpQXdRQ2XcEXg14X8R6YjEqlRhydyOFzBKqoDPYlBuKXQ2yuBxiPxeJjQAlHXAF92W5JOgUPX/dsO6I7EqVVivMz1tFzLloIRzWHdqgy8XrxOan0OCEMCaS3iv4gwPJWg7/SUH++T1OBQCQsWMqcmdIEFSRiZJs6XQUY7wOW9OviEASEZ6ZjJJwlCC0n2/7poTEssdYpeoX2k21vyqTmGJV4w67CMUk1fJHxAACCCdJOTWZ91D+df/xQcmY70K67WlFLyH+T3FPFylencnfYTPSy7cxcAC8IB0kvDkkQYT/XhHJFbNEUv8oMjAhFoxT/ehUozlYtaooHslU8gHAOlIJwmZHhxOdE3yuiOxCpbLWhprDS2ULufprhrFWPZ2j6y8cjo9FaA9ntK7FbGTquOwiLw+JFYhCuu7xgofyB3edVfS8+3EM4XGcmSV6hz8vyfHrRoAxR3uxU5G9n9oxJ+FExKrboX19rLCmkeGcAlS1AOWnoxluhYeh/y91j1RLoATtrriwTIZ4gXs44XE8sUuL7Fe23XflYipzSvrCctmCg31yHBplJWxtAG8IJ4kZMSdqu9xiRyoBLqKTC8Vtvl5540NUf98cdvWVr7Aes67yodCjAvgBukkYc8jVT2V/y58Xnckliuulxr9uHz+0pa5kbjoIaVjbUqW1u5Umjux0WkE4AeShGWdyu+cB8sLieUJvbGYP9/afHwgs5b4aUoFzk46tlIF1uM41b4OatwBHCGeJGSBR3G71P29/+UTieWJ5ZWB6RzH5Ts//sFl6cY5qaKnxHsYJGys/IJE6EZnBBZAAUgnCXceaRR3S93f7dR8REfzOxuyAq/yGIt80MlzG3ILEl15RcgE4AzpJOHFI1U9ld9vEzqIeT0xlaewCr2IYb0KElja8gqBBeAMkoRe6JO8hh6J5YijPIVVrPc8TGUIEn15hcAC8AZJwsLexAcVyQl34W1PHr70aVpgmrDcIStLbHl/vpv71i6HrYnAAvDFKp0kZNZdLDenWn3kOKVkS2jvNjIkPVFyD3C3u/7FzznLG+SqZwBvW5P0KscPiY7E41sJf2jlHYlV8bqiEEtaY+Xq8Xhce54XSHAL4A3xC0d5pNE7cWIWNqmijv4EWdatPIlVuAOyhOXhrjw/t8vW9IDAAnB3ELDM/RA/rEFALfPiZLnKU1jFjwp+XLd17ZTFwHqM+wuBBdAs4p2EJAnjuRXtfpLLeST5JhRxyB6udBNa0N0KM/Ys29QyZ3x5CCwAf0jvASQJtV/GZ4Mh02YE0IjUuom11PDcv77vb8qir55ZZ6IhsAAcIl0tcvJI4xlTFVbioMuewViSJ315lVhTLc9+GT9cCfuVZSpFt78QWACNI54kpCct5VxITsMOaW+P2aOSHJhYlgzdNf0hc/bzyDP0K7O+QmABuES8UIBEU8qZkH4IjokSizI6QcqbiVXfuODHshzjD5Zs8jG3vkJgAfiEJKErBGyGHhPSj2IuL0848taK01cILACfkCQsz/T4wiVcUl8hg7EED9vy8oTkidNYsusrBBaAU0gS+uJOofpX/42LDbviBaYODaUpDNMLgQUAPyFJ6ItRQGGtO4esG9bySrE4sOPftsWAjoPnDuCTJ6u9PoWVnidkaoPgobsXJ7FYxJF0FmV31GUAeEU8h/HgmSZxQxzdGOmaHkkztUGMAqvdObSjXvTEuwKAX5De/HseaeIuLTIUUsI3YedGYkEAo8WLYrgKQNGOCfmFvIgoLJEXS9s+Egtuv2OTejusZgDHiNdlkiRMZRNRWCJvdqbeXYhHj8TCwFJo+0RgAThGugiXJGEyk4zCEqmvpqVQigI7CpmK5l5BT6xPAMcM0kueJGEyp4zCkkkAk4QQo7y5WCfn9006mywwUzUAXEOS0B+jkMKSebkbyaLCj+EEdvT1HdbT5vWwNAF8Q5KwYoUlNIeJencphvIyhbz8G691R/4CwDt7A0lCfyxSCkvq9VLvLmZ2XMVJLEqpv+IghQsAWTYHkoSeFJZUfxP17nIvt7z57hdv/zPRbFReRywL4B7prMXOIxVATmFJvWDq3eVO5LE4ibVxmn+IUeIXZxHAPw/6uytXWGKTLimqlVt1U3Eaa+f1v49R8wLVcQAFIJ4kJLKSYJdTWHKvGPEsR4GpQjTWe9iU1U3UYgCUgHQwTZIwz2sJUFjfxBrJGW4o6X0UqLEOPoDfWU3MyJ17CAHK2CFIEpapsLaQlyyWx6A7vHGNtc2YJ79gMqRhI0EIUMomT5LQJV/XQof8155yuzuZosY11mvqMLL+fX2bhb7i8QOUgvQkYpKEHhWWZLEIJqXsIV1ezftrm8lSCa8q9BVAhZAk9HrwyiosyZkcFGPJspwvRFaJe2d+bbxjHwKUxFN6DyBJKHTsCiusQTCfQTGWMI/5VaTIavq8z1+CdeIcApSF9NZOkjCbwlqkTTGKsQz9kHErUWS9+rFVtZ27BGsfaTEAKA3pbYIkoRTSCku24o73LK6xjr1IjfXazqNBlZW3BGubF1YIQHGQJGxHYa2iJzjXFCrYIoVqrO8KYBqXlj6IrCVYlLwBFApJQrd86S4GZ+oG2X0fMa0Q8UyvcunnoxGnJWMJFvIKoOJjnOSRFV+eteFjB4UvSOIuYAWWkjXWD5lVv5uVrQRrv0gOAhQcMpMkbElhSQ8/m8kUahgk86t0tuk66tVZmUqwpoPdFKBoSBL65Us1dIb/N1fh7EbPGaDBo3yN9Z/Oqq4Bbu1zmFfzk+gFoHRIEvrly6HuU8R/dBB+44xtUNJYhQ5veFeGn2NXj6G1bJhXAHBrtyBJWLDC6mP+q+LXUCKqlaySijTWT90wj8/yq4oO5ae0YV4B1IJ0QQFJwqx7edR/VjwB1TMIUUljHfurOvZpLLjhcNW936i/CFEB6mHHzyjZYIw7JMTLSDb6nbToKtRY/+isZ4HCfNF8Hf1BqAJQE4P0JsEWkVVhxSmbh3z2aeRtqWms/lUrW2kya0ReAcBtpJOEPY+0AIUlX333ek3Ujuh9B9OrYrazlPFZjwl5BQD3kfa8mUApitrzVojFyRRqaqzzVTf93LkvQNKaMrpRewVQJSQJC1dY0ck5jRObTKGmfzK/auftZkO/L0CrxH1i2glApZAkLFxhTbH/ZZWhiWQKVTXWtb3qp798zip46jz8GfsKoFpIEvqmV1NY4oNHyRRmsFHGFjTW2zjzzpkZ/lAxsLYLzx+gXkgSOufrytqEoFzlcCRTqKuxah3e8E79u6Ox5odKODJi+QLUDEnC4hVWwiatM5uaTKEyFQ9v+PtjclGYtag88YuFAlA30pEZSUJhvs5NpJxAOrXTZArVT/zp1RCTcWGWTovBjN0PUDnieSJ2DWFGVVG7KrkhZArLPPVdz3Iw2lt0St8mohCA6pHepk8eaXaFlaRmVqXC6Qmpra6xGil6/6X8/TS4zVClAGtnPgNAA0jvHmwc+RXWlPTfH7RmKD55d+ruSjNF778VZuVMGeo8YQrcAVpAPEnIzpH/Fe2JZ4jWUcgN4Dk+j+nVIPucpctQaTTGxAAsgCYgSeieG/cHqrtksaUzZAozMMyvNpku3SujH7OKvtpoBgJoBJKENSis1NoUtSN643vIwTrujYqst1t2lGRWp2QOUqAI0ArSScKNJKG8RaE/IWPVG68080VkoZte7fIms2QTb8+Z6kQAcGZezDxSeTIUPK16HshOzUkmJT5vr6aZ5nGR0PPrU+9JMosXoCGkdxICNBOFNSX/G4Pi6UzZSSbWY3+1zvams+JF/bqMimYgFVgALSGeJOSRmiisV/o/smiaCwTuuVjmF7w5p9M1LmHliY9lnHUvI6ICC6AppC+LJ0mowY1tXyAT12kaC4yvxsgyoZ/mcXwun2UPh+U5XlOGix655gCgrc1Yeg/hINXgRtpCIjs7ap4ujMbCyDKv03rjHP9h/vF/zeiqUY8I0BbStsXOIzVSWCLhseq53HPA5Iyduh5F5Qp6agFaQzpJiFFh9Zoml9/D75lCRmNl5XGRLfRTf08LEEBzga70PoJNocKN9J1Mi8Gqa3ychPF5ebY+v8FNNRgl7gDNQZKwGoUlJG6VJdZOnV72NX6ib8yhxB2gQaTLPBn2YqewhFJww8ZZUxkrIss4Q0hcAdAgD+mtBCtchztTy6RK4LQlFvkSRFZbkBsHaJJDuhmaR6rDnWGgfc5/jIL38kQWNVk2YOwDtIl0zQ1Hp6HCeon9ax1BfaUMFyMccpe40/wD0CbiSUIOTq2T8c7Tlyv2UJdYFLzbLfoOKysjF3siQKNIJwlPHqkWmWvID/2Th3dqKNiPE5WVpcSdIVgAzSKdMWA7MVVYklVw+peukD2x9rLIGGrDfecADUey0gEbj9RUYYk+f32JtVEBbM5yXBNuFiXuACDOJbyhzDxSNW4NLhN1hTJcHUzBuwvWN53F/TqYtAAgiPSmyo5irLBkY+YMA5QoU/HkZ3XjSd5QDCbrAjSNdJKQG3OsFZZsp8Ga47il1coZj+UYJ4QWBhYAJHERtFX2soQL4bJILI4ihBYGFgDUhnSFK5ehKDLeegXCaiWLxOI0csz6ljqkFp6oAQDCeEpvKzxSc4Ul3byUR2JNaHPvDMuB0rpbXEjIAADSvWLcmKPJvSnr4iNf80gsLiosSWnN9B0SLwDA50gHpJQsa3LvNmb5iWR5JBZzGwpjXZ7jOGFq/d3uQ3csAMgnCRmG5UBhKQzMyCSxNi4qLJLHm9Q6cbX+TRASKQDAN/lpR8RuuqaBWdV4JonF3IbSY4ClG6+2ba2ZBCEABJzYDMPyws0iEI1PJZPEogOrIq01Ts3Nepj4fgHgJ520A8Ej9aCwXipqPNdZSRNWZTyWZXwzthpIIk6kuQHgX6SThMRvytxUOSrJ2mwSiz6sahmW5Xhztib0FQBUjnSSkGFY2u6YTwsAAA5JSURBVEyWXmI2icXchhY2n+WtPP6qJ4+IvgKAXzmE95iDR+pDYSnVw2WTWMxtQG0Vxom+AoDfkN7POBa1GW++CaU8Wz6JxdyGZlneyrbGs6SGxI3+QQD4gwfDsGpVWFpuYj6JxdwG+Ldua/ZdJb8ffKoA8CfSSUKGYalzt/nz1PoDMkos5jbAb5+ez1TijNsKAO8gvFMxDEuf5e7L0DvnMp5vzG2A9/kxAGK211o99hUAvL9LMQyrXoWl5yeuGTvtmdsAX62I5bC6r2e/+DwB4AMu4Q2H7SYDHuTunLGEmLkNcNPVelNa+Yrj+5EkNgB8jHDcxzAsTwpLNWWbUWIxtwGCWJbxUs8engfhJAB8xiC86+A2uJLFqhF2TonF3AYI56elpWJeXXyQAPAVwknCDa8hB7cPjbGkj4e5DaDCujzHS6xKa5vGhW8RACTdEIZhOeJ0krTtckos5jZAGo+lS2s9/C6uOr5CALjJU/gUxDrPwnj7hShXimSVWMxtABneWg/noHHx0zl2OFcAEIRwKQ3DsPJwf0qs9iWRz6yXmjC3AaS11tu4+HF648/N7O3/7fv/7LlgWwFADMLnI5c+ZzoX7vc7af8pQ1aJxdwGAAAoAukkITa6N4Wl/0rySizmNgAAQAkIJwlPnmgmPI3PWPPeWsLcBgAA8I+w/cClz/4UVgbVm1liMbcBAAC8I5wkpM49G5OrzO0655VYzG0AAADfnLIHH830HhVWltrwzBKLlgoAAPDMyqXPpTJ6K47rMkss5jYAAIBfhE9F6tzzcQRUhmf6mPK2FL42iv4AAMArwklCjrx8LP7eS+apDa/XTME7AAC4RDhJSJ17Rh4OvcUhc0vha2duAwAAeEQ4SUide048zoHNPbWBbw4AAFwinCSk9DgnIWIm300zuVsKXz1fHQAAeEM4SUide1Ymn69mzC2xuKgQAAC8ccgeddS5Z2X0mCb8lr+lkIsKAQDAG7JFM9S55yWoiC6nz5O9pZCLCgEAwBUPao5LZnGbwc1f7/66+B4AAMANwklCKo4z83KaJsx/SyEXFQIAgCdknQbq3HMTlIzLfI1f9nr318ZFhQAA4APhJCF17rmZgjyezH9c/np3Ct4BAMAHsklC6tyzM7pO4g57donFhHcAAPCAbJKQHE12wibyZ29EWKfsEotuCwAAsEc4SUiGJjuLd5Pxyi+xmPAOAADWyCYJZx5ofsJekUGznUExFhPeAQDAGNkkIRUw7l+hhQg2KMZ6zdipAABgiGySsOeBGhA2dWqz+BMtirF2RmMBAIAdsklCUjMFvEObeRoGxVi0XQAAgB2iScKNxIwFYaXuVjNhn/mLsV4THyQAANggmyTkVjgbyuj3HPJfU8hd0AAAYIRskpAWeRv6MpJnBtcUovoBAKCIs/mLnAzP04ZA5WLXj2AwtoHRWAAAYIBskpArCY0IdSLtmuwsxjZsfJcAAOD9aOZKQpcM5cyFXU+DTCGjsQAAIDOiSUJ6480IdXWqUfV3M4WMxgIAgJyIJgkZ1WBH6DxP07llJplCJrUBAECpdgJXEtoxFtWTQKYQAAAqR/Sko2XLjqWwl2XSU0imEAAAcnkJjGqohdC3NRr/vSbTR8kUAgBAJieBUQ21ECpYzPs+14tMIQAA1IpkkpBRDaZc5QniJ5lCAACoE9EkIRkYW7kS+r5O+7/5MZEpBACAGpFMEjKqwZgiGxNGMoUAAFAhkklC7tc1JtgPGj381RajscgUAgCAMpJ1MIxqMGYss3DOouCdTCEAAKjylEy98DiNGYLfmZPmT4uCdxxXAABQZBY8shYepzXBQuV08odbTHjv8VwBAMDPkcy00boEsxuVYTDhfSMmAAAAJQbB84rCFgcyJfitjW7+dou5DSOfDAAAqCBYYsy0UQesRb+2I7+NNTG2AQAANBDskz94mg4IL2fydNHRI/9FhTtjGwAAQB7BJCHTRl1wFF4+ZzB+lOw2AAA4OI+paPHNo/QpZkN+G4spIwAAII3gaUbne6mv1NtcqPw2FmMbAADA3PDAB3DOUX5+N39TIWMbAABAlA4LC9XssRApf1MhfRoAACCI3Bxtpo26ITxN2DvUidltrJlODQAAEIMLcyrkqOPtZR/xTjEWAABIIXfrc8/DdMOjkiK67DcVbk8+HgAAEEHu1mdGCjnirKWK7rln1lgXHw8AAEggdoBxYY4nIvoXnA4zWy8yhQAAUB4DFladbPVI5NzzR8kUAgBAOmID3TeepSvmmjRy7sENZAoBACAVMXuAC3N8EWFOOp628TjJFAIAQEms3PmMdi5i3MaykykEAIBy6LCweLVl3Hq0jmQKAQCgGMRmNWBhuVMkEbVLvnNjmWe8kykEAIB4pCqIufPZH1d9TmTe4VhcBQ0AALGIzWog3PdHxFx39w2hmVOF5L4BACCOEQurYiL67/wPNcvbVTiR/QYAgBh6LKyKWeoczJ+1q3Af+I4AACCYFQuraiIqw4soPRpzDiDlrgIAAAimw8Li/f7OWUZoMGeUWMQPAAAQitA5dfIknbJXq5aHjJMbeoqxAABA/QAuNrPUJF3Fjk3GyQ0bxVgAABDkAwj1W/EkK9LQBV1/lLEci2IsAAAI4MDCqp0IE6ugGVDrlU1icYcOAADc58TCqp5wE2sv6eflm451UowFAAB3wcKqn6X2jNiSq+SdawoBAEDv8MXCKo6pbhPrW76Sd+rdAQDgHiMWFjq6ilfaZdJY1LsDAMAdeiysFjgbeKdrprbCg88JAAC+PpWwsJrgEf5SC0yHZdJYzHcHAIAveWJhtcHYho54ZLlJh5ZCAAD4igsLqw3W8CqlMtvmsmgsrtABAIAv6LGwGiHcrRwL/aU5NBYSCwAAPnc2sLCaIXhiw1asinjoj8diagMAAMgaG9T9Fis7mjGxvuUYQYrEAgCAT5Aow2LKdSEEF7vvJf9adY2FxAIAgI/psbB427UO19TWWEgsAAD4iBULqyWGpkwsfY2FxAIAgA94YmE1RXCe8Fm8qJyRWAAAkJ8LC6stQvOEFQziUJ3dgMQCAACRA7eqdrMWCc4T1jCJQ1NjIbEAAOAd0suwNgYvlkVonvCs4lc/rg2JBQAA+XhiYTXH1GYWWO9OaKa7AwBAsqGBhVU+j63RToa125FYAADg08/4i4NnWBzPdlsZul5FYtFOCwAAf5B6tOw8wgIJbCC9avrtOgOyyJUDAMDvx03qydLxDEukbzkTrNJY+OSjAgCAXzhSC1B4hGWKjK1ph0ah6J2GQgAA+JUz8VxZeIRl8my9nUG86J1gAwAAfiExlJ94gqUyNt/PsJyyEuviowIAgH95JB4qZEbK5aShQXgKKYYuAAD8S0ePerOsPR0NshOy6KsFAIB/Sbv2eePK55IJqnavVz0IJgsZ2QAAAP8wcaA0zICJ9VNqSnUWcr8BAAD8A+dJ03S0yv37JGSShaTNAQDgB2nzRhk2Wjwjddz/rQWRUe8EHQAA8MZBXW/jBEw3r34yx2NOTxZySycAAASer/Sm18nJC/8/67HTTggAAAL0CWcJw0brEBU9b/xXnonJQtprAQDgW1qhO0dJcxKrjfmyaWNIKU4EAIC0QneuCKlGYu10yv3xRLp4c5cJJgAAkFTozqSGehg2fMu/nkls1TvJcwAASCp0p2eqRYnV0rinSCMLhQUAACmF7j0Pr0mJ1Vbx3ePayZ4DAEAETGqAMInV3MzyZ2i2EHMXAADCrqX7jZOH16jEaq+DdO1OWmwBACCILrrMnWOkVYnVZKtcgMjiYkIAAPj27aIjHQIlVqs9pDdFFi22AADwndjp1TvHSLsSq2F1/Zy/KnzfBj4jAAD49i12dPWTR9euxGrbpRmO85OHtCOwAADgOysXEsJvPHpMrFsq610vaxvxdgEA4I3YO3Moc69XdPeYWPce1DLOvyXZ97njuQAAwE8OytwhQmLxAfzHsCzL0X3/P3gUAADwf2bK3OEvifX1V7HzlAAAAD4hrpWQcL154d3xkAAAAD4mqpWQae7Vc2BiAQAAxLMyzR3epcPEAgAAiCaqlZB7bVvgq8FYmFgAAAAfEtNK2PPY2pBYPSYWAABAHGOEwmJmdSN8MbUBEwsAAOAjIloJL55aM8yYWAAAADHsjMKCTzi4OQkAACACbnyGT1k2xqIBAACE8mAUFnzOZ/XumFgAAADvEjysgRt/m2M9MbEAAADCOBiFBV8yYmIBAAAInZ2cqPAfHxdjYWIBAAC8w8R1OXCDR4/kBgAAUFNYDEBqlhkTCwAA4DYILLhJ936mcObJAAAAJCmsDbuiaT4Y20DiGAAA4E9ChjVsXEfYOOuMiQUAACCssHYEFrybKcTEAgAA+IP747B6Jo3C+5lCTCwAAIA/uD0O60RgwQ8uTCwAAICvmG8KLGwK+JfnxtcBAADwORNTGiCUdeKuSgAAgHSFxZQG+J0/y/dGHgkAAMCv3Kpxp4kQ/uCPgndMLAAAgFCFRY07/M16YWIBAAB8xONrgXXxlOA9lg0TCwAA4INT8ssSLGrc4QPWExMLAAAgSmFRggWf8Mvchp2nAQAA8B8dJViQwGNioAcAAMDffD7S/eABwRccGyYWAABAiMJiChbc4D8bCxMLAADgX66PBdZEhhBCZDomFgAAwL98PNKd3jC4yz/jR/E8AQAAvlBYOz2EEMAPG2viOQAAAHyqsGYyhBDEDxsLEwsAAOAn+7sl7k8eDIQyvl4nTwEAAOAHDMECKYb+9eApAAAAvK+wMLAglnHmGQAAALyrsDCwIB4+HgAAgPcU1k6tMgAAAEAiw+8JQmZgAQAAACSz/iqwLnI8AAAAAAJs/x+BRR8YAAAAgAjHP/VXB/4VAAAAgBTLPM0HV+T8w/8An+skQN3ivC0AAAAASUVORK5CYII=;" vertex="1" parent="1">
                    <mxGeometry x="721.39" y="410" width="47.21" height="50" as="geometry"/>
                </mxCell>
                <mxCell id="3" value="&lt;font style=&quot;font-size: 16px&quot; color=&quot;#000000&quot;&gt;&lt;b&gt;file_v?&lt;/b&gt;&lt;/font&gt;" style="text;html=1;strokeColor=none;fillColor=none;align=center;verticalAlign=middle;whiteSpace=wrap;rounded=0;" vertex="1" parent="1">
                    <mxGeometry x="725" y="480" width="40" height="20" as="geometry"/>
                </mxCell>
            </root>
        </mxGraphModel>
    </diagram>
</mxfile>